<?xml version="1.0" standalone="no"?>
<!DOCTYPE svg PUBLIC "-//W3C//DTD SVG 1.1//EN" "http://www.w3.org/Graphics/SVG/1.1/DTD/svg11.dtd" >
<svg>
<metadata>
Created by FontForge 20090914 at Sun Feb 21 22:02:54 2021
 By www-data
Typeface &#194;&#169; (Kong Font). 2020. All Rights Reserved.
</metadata>
<defs>
<font id="BillieBonnie" horiz-adv-x="565" >
  <font-face 
    font-family="Billie Bonnie"
    font-weight="400"
    font-stretch="normal"
    units-per-em="1000"
    panose-1="2 0 5 3 0 0 0 0 0 0"
    ascent="800"
    descent="-200"
    x-height="304"
    cap-height="617"
    bbox="-305.999 -234.001 1062 788"
    underline-thickness="50"
    underline-position="-75"
    unicode-range="U+0020-U+E020"
  />
<missing-glyph horiz-adv-x="500" 
d="M450 0h-400v533h400v-533zM400 50v433h-300v-433h300z" />
    <glyph glyph-name="at.1" unicode="at" horiz-adv-x="435" 
d="M252 58c-4 0 -6 1.66504 -6 4.99805v2c14.667 42 32.334 82.667 53.001 122c24.667 50.667 52.667 99.334 84 146.001l-50 -49c-81.333 -81.333 -145 -122 -191 -122c-6.66699 0 -13 0.666992 -19 2c-24 6 -36 22.333 -36 49l1 14c-8 -6.66699 -16.333 -12.667 -25 -18
c-2.66699 -1.33301 -7.16699 -4.33301 -13.5 -9l-23.5 -16.5c-9.33301 -6.33301 -18 -9.5 -26 -9.5s-12 6.33301 -12 19c0 19.333 6.33301 37.833 19 55.5s27.667 32.834 45 45.501c17.333 14.667 37.666 26 60.999 34c6.66699 2 13 3 19 3c16.667 0 31.667 -7 45 -21
c1.33301 -2.66699 2 -5 2 -7c0 -7.33301 -3 -11 -9 -11c-2 0 -4 0.666992 -6 2c-9.33301 4 -18.666 6 -27.999 6c-19.333 0 -42.666 -11 -69.999 -33c-25.333 -18.667 -44 -41.667 -56 -69c24 8.66699 53 25.334 87 50.001c3.33301 6.66699 8 12.334 14 17.001
c2 2.66699 4.33301 4 7 4c2.66699 -0.666992 5 -2 7 -4s3 -4.33301 3 -7s-2.16699 -9.16699 -6.5 -19.5s-6.5 -18.833 -6.5 -25.5c0 -5.33301 1.66699 -10.333 5 -15c6.66699 -7.33301 15.334 -11 26.001 -11c10 0 19.333 1 28 3c39.333 12.667 73.666 34 102.999 64
c46 40.667 98.333 90.334 157 149.001c10 13.333 16 21 18 23c-82.667 -2.66699 -165 -7.33398 -247 -14.001h-2c-3.33301 0 -5.5 1.33301 -6.5 4s-1.5 4.66699 -1.5 6c0 2 0.666992 4.66699 2 8s27.333 5 78 5c29.333 1.33301 91.666 2.66602 186.999 3.99902
c24 29.333 37.333 44.666 40 45.999c24 30 51.333 57 82 81c2 1.33301 3.66699 2 5 2c8.66699 -1.33301 13 -5.33301 13 -12s-30 -41.667 -90 -105l-9 -12c142.667 -1.33301 214.667 -3.66602 216 -6.99902c0 -2 -0.333008 -3.5 -1 -4.5s-2 -1.5 -4 -1.5l-113 2l-109 -1
c-42.667 -52 -82.334 -106.333 -119.001 -163c-40 -60.667 -72 -115.334 -96 -164.001l-20 -39c-1.33301 -2 -3 -3 -5 -3z" />
    <glyph glyph-name="att" unicode="att" horiz-adv-x="670" 
d="M465 -9c-2.66699 0 -4.50293 0.331055 -5.50293 0.998047s-1.5 2.66699 -1.5 6c39.333 120 92.666 234.333 159.999 343c-11.333 -14.667 -63.333 -71.667 -156 -171c-48.667 -54.667 -86.667 -91.667 -114 -111l-1 -1c-19.333 -15.333 -36 -23 -50 -23
c-20 0.666992 -30 12.334 -30 35.001c0 5.33301 0.833008 12.666 2.5 21.999s3.83398 18.333 6.50098 27c13.333 42 30.666 82.667 51.999 122l65 118l-41 -50c-33.333 -40 -70.666 -76 -111.999 -108c-19.333 -14.667 -40.666 -26.334 -63.999 -35.001
c-10 -4 -20.667 -6.66699 -32 -8c-12.667 0 -23.167 3.5 -31.5 10.5s-12.5 15.833 -12.5 26.5v10c0 6 2.33301 14 7 24l-36 -29l-51 -35c-10.667 -8 -19 -12 -25 -12c-3.33301 0 -7 1 -11 3c-8.66699 5.33301 -13 12.666 -13 21.999c0 16 6.33301 33.333 19 52
c18.667 26.667 42.334 47 71.001 61c17.333 8.66699 33.666 13 48.999 13c13.333 0 23.333 -7 30 -21c0.666992 0 1 -0.333008 1 -1l-1 -2c10.667 8 17.334 12 20.001 12c0.666992 0 1.66699 -0.333008 3 -1s2.33301 -1.66699 3 -3s1 -2.66602 1 -3.99902l-1 -3l-8 -13
c-11.333 -17.333 -20.666 -35.666 -27.999 -54.999c-1.33301 -5.33301 -2 -10.666 -2 -15.999c0 -9.33301 5.66699 -14.666 17 -15.999c40.667 0 85 22 133 66c36 32.667 69 67.834 99 105.501s51.333 67.834 64 90.501c-69.333 -7.33301 -128.666 -16 -177.999 -26
c-20.667 -4 -41.334 -7 -62.001 -9c-4 0 -6.83301 1.16699 -8.5 3.5s-2.5 4.83301 -2.5 7.5c0 5.33301 2.66699 9 8 11c25.333 5.33301 50.666 9 75.999 11l87 10l89 8c4 8 8.33301 15.667 13 23l7 14c9.33301 16 19 31.667 29 47c1.33301 3.33301 3 6.33301 5 9
c10 17.333 21 33.666 33 48.999c1.33301 1.33301 3 2 5 2c4.66699 0 7.83398 -1 9.50098 -3s2.5 -5 2.5 -9c-7.33301 -18.667 -16.333 -36.667 -27 -54c-2.66699 -4 -5 -8.33301 -7 -13l-35 -61c76.667 6.66699 153.667 11.667 231 15l8.5 10.5l9 11
c3 3.66699 5.5 7.16699 7.5 10.5c10.667 14 22.667 26.667 36 38c2.66699 2.66699 5.66699 4 9 4c0.666992 0 2.33398 -0.333008 5.00098 -1s4.66699 -2.33398 6 -5.00098s2 -4.66699 2 -6c0 -6.66699 -15 -27 -45 -61c45.333 2 90.666 3 135.999 3
c84 0 139.333 -1.66699 166 -5c2 0 3.33301 -0.666992 4 -2c0 -4.66699 -1.66699 -7 -5 -7c-14 -0.666992 -35 -1 -63 -1c-21.333 1.33301 -47.666 2 -78.999 2c-56.667 0 -113 -1.33301 -169 -4c-11.333 -13.333 -22 -27 -32 -41c-100 -132 -180.667 -275 -242 -429
c-0.666992 -2.66699 -2.33398 -4 -5.00098 -4zM305.997 53.998c3.33301 0.666992 8.33008 2.66699 14.9971 6c8.66699 4.66699 14.334 8.33398 17.001 11.001c29.333 20 56.333 43 81 69c82.667 82.667 158.667 164.667 228 246l49 67l9 12
c-57.333 -3.33301 -114.666 -7.33301 -171.999 -12l-57 -6l-65 -114l-61 -113c-21.333 -36.667 -38.666 -74.334 -51.999 -113.001l-3 -7c-4.66699 -13.333 -7 -23 -7 -29c0 -11.333 3.66699 -17 11 -17h7zM-0.00585938 172.998c4.66699 1.33301 11 4.33398 19 9.00098l5 3
c32 17.333 62.667 38 92 62c4 8.66699 9.33301 16.667 16 24c-2.66699 0 -4.66699 0.333008 -6 1c-4.66699 3.33301 -10 5 -16 5c-8 -0.666992 -15 -2.33398 -21 -5.00098c-30 -10.667 -54 -28.667 -72 -54c-0.666992 0 -1 -0.333008 -1 -1c-11.333 -15.333 -18 -27 -20 -35
v-4v-3c0 -1.33301 1.33301 -2 4 -2z" />
    <glyph glyph-name="c_t" unicode="ct" horiz-adv-x="324" 
d="M190 -36l-2.00195 0.000976562c-1.33301 0 -2.66602 0.333008 -3.99902 1s-2 2 -2 4c12.667 118.667 42.334 233.334 89.001 344.001l-104 -116c-27.333 -30.667 -58 -57.334 -92 -80.001c-12.667 -8.66699 -27.667 -15.667 -45 -21
c-4.66699 -1.33301 -9.33398 -2 -14.001 -2c-10.667 0 -20.667 4.66699 -30 14c-5.33301 7.33301 -8 15.666 -8 24.999c0 8.66699 0.666992 17.334 2 26.001c0 14 4.33301 32.333 13 55c13.333 34 33 63.667 59 89c19.333 19.333 38.333 31.333 57 36l5 1
c8.66699 0 16 -4 22 -12c3.33301 -4.66699 5 -9.66699 5 -15c0 -8.66699 -2.66699 -18.334 -8 -29.001c-8 -16.667 -19.333 -30.334 -34 -41.001c-0.666992 -0.666992 -1.66699 -1 -3 -1c-0.666992 0 -1.5 0.5 -2.5 1.5s-1.5 2.5 -1.5 4.5c0 1.33301 0.333008 2.33301 1 3
c15.333 13.333 26.333 29.333 33 48c0.666992 2.66699 1 5.66699 1 9s-0.5 6 -1.5 8s-3.5 3 -7.5 3c-5.33301 0 -12.666 -3.66699 -21.999 -11c-26.667 -22 -48 -48 -64 -78c-14 -26.667 -22 -55.334 -24 -86.001l-1 -8c0 -3.33301 0.666992 -6.83301 2 -10.5
s5.66602 -5.5 12.999 -5.5c14 1.33301 27 6 39 14c30.667 18.667 58.5 40.834 83.5 66.501l73.5 78.5c26.667 28 52.334 57 77.001 87c20 42 47 88 81 138c-68 -5.33301 -136 -11.666 -204 -18.999c-38.667 -5.33301 -77.334 -9.66602 -116.001 -12.999
c-2.66699 0 -4.5 1.16699 -5.5 3.5s-1.5 5.5 -1.5 9.5c1.33301 4.66699 42 9.66699 122 15c6 2 77 7 213 15c13.333 19.333 33 45 59 77l5 6c14 18 30 32.667 48 44h4c5.33301 0 8 -2 8 -6c0 -1.33301 -1.66699 -5.33301 -5 -12v-2c0 -4.66699 -23.667 -39.334 -71 -104.001
l167 8c14.667 0 22.334 -0.666992 23.001 -2s1 -2.33301 1 -3v-1c-0.666992 -1.33301 -1.66699 -2.33301 -3 -3c-14 -2 -28.333 -3 -43 -3c-18 0 -69 -2.33301 -153 -7l-63 -83c-85.333 -141.333 -141 -293.333 -167 -456c-0.666992 -2.66699 -2 -4 -4 -4z" />
    <glyph glyph-name="et" unicode="et" horiz-adv-x="628" 
d="M427 101l-8.99609 -0.00195312c-26.667 0 -50.334 10 -71.001 30c-21.333 24 -32 52.667 -32 86c0 28 5.66699 55.333 17 82l-106 -100c-28 -28.667 -60.333 -51.334 -97 -68.001c-16 -6 -32.333 -9 -49 -9c-1.33301 0 -7.33301 0.333008 -18 1s-23 7.66699 -37 21
c-16.667 16.667 -25 37.334 -25 62.001c0 11.333 2 22 6 32c15.333 35.333 41.333 57.666 78 66.999c4 1.33301 8 2 12 2c3.33301 0 7.5 -0.666992 12.5 -2s8.83301 -6 11.5 -14l1 -9c0 -10 -4.66699 -20.333 -14 -31c-17.333 -19.333 -38.333 -29 -63 -29l-12 1
c-1.33301 -5.33301 -2 -10.666 -2 -15.999c0 -13.333 4 -26 12 -38c11.333 -15.333 27.666 -23 48.999 -23c11.333 0 22 2 32 6c32.667 13.333 62.334 32.333 89.001 57c41.333 34.667 88.333 79 141 133c22.667 40 47 77 73 111c-43.333 -4.66699 -91.333 -14.667 -144 -30
c-20.667 -8 -39.334 -14.333 -56.001 -19c-6.66699 0 -11.167 1.33301 -13.5 4s-3.5 7.66699 -3.5 15c1.33301 6.66699 20 13 56 19c2 0 3.66699 0.333008 5 1h4c52 10.667 105.667 18.334 161 23.001l5 7c20.667 26.667 42.334 52.334 65.001 77.001l8 9
c20 22.667 42.333 42 67 58l4 1c3.33301 0 5.66602 -1 6.99902 -3s2 -3.66699 2 -5s-0.333008 -2.5 -1 -3.5l-5 -7.5v-1c-32 -43.333 -65.333 -86 -100 -128h8c6.66699 1.33301 27.334 2 62.001 2c44 0 88 -3 132 -9c1.33301 0 2.16602 -0.5 2.49902 -1.5
s0.5 -1.83301 0.5 -2.5c0 -2 -1.33301 -3 -4 -3c-38 3.33301 -77.333 5.33301 -118 6c-30.667 0 -61.334 -1.33301 -92.001 -4l-65 -75c-20.667 -30 -38.334 -61.333 -53.001 -94c-10.667 -24 -16.667 -50 -18 -78c0 -28 9 -52.333 27 -73
c18.667 -17.333 39.334 -26 62.001 -26c31.333 0 65 10.667 101 32c49.333 30 90.666 68.333 123.999 115c1.33301 1.33301 3.33301 2 6 2c0.666992 0 1.66699 -0.666992 3 -2v-1c0 -1.33301 -0.333008 -2.33301 -1 -3c-40 -56 -90.333 -99.333 -151 -130
c-27.333 -14 -56 -22 -86 -24zM35.0039 230.998c14.667 0 28.832 3.33398 42.499 10.001s23.834 17 30.501 31l3 11l-1 3c-2 3.33301 -4.66699 5 -8 5c-10 -2.66699 -19.667 -7.33398 -29 -14.001c-19.333 -12.667 -32 -28 -38 -46z" />
    <glyph glyph-name="ett" unicode="ett" horiz-adv-x="725" 
d="M516 4c-13.333 0 -23.665 8.66602 -30.998 25.999c-2.66699 10 -4 20 -4 30c0 20.667 3.33301 43 10 67c10.667 36.667 24.667 72.334 42 107.001c0.666992 2.66699 1.66699 5 3 7c-50 -60 -104.333 -116 -163 -168c-16 -14 -33 -26.833 -51 -38.5
s-33.667 -17.5 -47 -17.5c-5.33301 0 -10.333 0.666992 -15 2c-18.667 8 -29.334 22 -32.001 42c-1.33301 8.66699 -2 17.334 -2 26.001c0 10.667 1 20.667 3 30c10.667 47.333 27.334 92.666 50.001 135.999l37 73c-34.667 -37.333 -72 -72.333 -112 -105
c-27.333 -24 -57 -44.333 -89 -61c-20 -10.667 -39 -16 -57 -16c-12 0 -23.333 3.66699 -34 11c-14.667 12 -22 27 -22 45c0 14.667 2.66699 28.667 8 42c13.333 31.333 36 52.333 68 63c4.66699 1.33301 9.33398 2 14.001 2c8.66699 0 15.334 -2.16699 20.001 -6.5
s7 -9.5 7 -15.5c0 -6.66699 -2.33301 -12.667 -7 -18c-20.667 -25.333 -47 -41.666 -79 -48.999c-1.33301 -4.66699 -2 -9 -2 -13c0 -10.667 3.66699 -19.667 11 -27c8 -6 17 -9 27 -9c3.33301 0 9.33301 1 18 3c33.333 7.33301 69.666 27.666 108.999 60.999
c51.333 40 98.666 84 141.999 132c4.66699 12.667 21 39.334 49 80.001l-12 -1c-76.667 -10 -123 -17 -139 -21c-20 -4 -39.667 -7.33301 -59 -10c-7.33301 0 -11 4.33301 -11 13c0 5.33301 2.66699 8.33301 8 9c24 4.66699 48.333 8 73 10c4.66699 0 9 0.333008 13 1
l137 13c35.333 53.333 74.666 100.333 117.999 141c1.33301 1.33301 3 2 5 2c3.33301 0 5.83301 -0.833008 7.5 -2.5s2.5 -3.16699 2.5 -4.5s-0.666992 -3 -2 -5l-4 -6l-4 -6l1 -3c0 -2 -21.333 -29.667 -64 -83l-16 -22c-0.666992 -2 -2.33398 -4.33301 -5.00098 -7
c82 6 163.667 10.333 245 13c20.667 25.333 42.667 49.666 66 72.999c2.66699 2.66699 5 4 7 4c1.33301 0 3.66602 -0.666992 6.99902 -2s5 -4.66602 5 -9.99902c0 -2.66699 -1 -5.33398 -3 -8.00098l-34 -39l-12 -17l72 1c59.333 0 119 -1.33301 179 -4
c4 -1.33301 6.33301 -3.66602 7 -6.99902c0 -4 -2 -6 -6 -6c-59.333 2.66699 -118.333 4.33398 -177 5.00098c-28 0 -55.667 -0.333008 -83 -1l-80 -107c-29.333 -46.667 -55.666 -94.667 -78.999 -144c-26 -53.333 -42 -98 -48 -134c-2 -9.33301 -3 -18.666 -3 -27.999
c0 -22 6 -33 18 -33h9c6.66699 0 22 8 46 24c52 37.333 112 109.666 180 216.999c1.33301 1.33301 3 2 5 2c2.66699 -0.666992 4 -2.33398 4 -5.00098l-1 -2c-47.333 -68 -94.333 -128.667 -141 -182c-34 -36.667 -65.333 -59.334 -94 -68.001zM278.001 38.999
c7.33301 0 16.665 2.66895 27.998 8.00195c38.667 19.333 73 44.666 103 75.999c50.667 48 98.334 98.667 143.001 152c34 66 74 129 120 189c-86.667 -2 -168 -7 -244 -15c-23.333 -34 -45.333 -68.667 -66 -104c-57.333 -98.667 -92.666 -180.334 -105.999 -245.001
c-2 -7.33301 -3 -14.333 -3 -21c0 -26.667 8.33301 -40 25 -40zM37 231.001c18.667 6 36.332 15.333 52.999 28c12 9.33301 18 17 18 23c0 5.33301 -3.33301 8 -10 8c-10 -1.33301 -19 -6 -27 -14c-17.333 -14.667 -28.666 -29.667 -33.999 -45z" />
    <glyph glyph-name="er" unicode="er" horiz-adv-x="531" 
d="M352 97c-14.667 1.33301 -25.665 8.33203 -32.998 20.999c-2 5.33301 -3 11 -3 17c0 11.333 2.66699 23.333 8 36c14.667 41.333 37 78.666 67 111.999c-14.667 1.33301 -28.334 4.33301 -41.001 9c-32 -34.667 -73.667 -69 -125 -103
c-36 -25.333 -75.333 -41.666 -118 -48.999l-16 -1c-40 0 -66 16.667 -78 50c-2.66699 8.66699 -4 17.334 -4 26.001c0 28.667 13 54.667 39 78c16 16 31.667 24.667 47 26c8 0 14.5 -2 19.5 -6s7.5 -8.66699 7.5 -14c0 -8.66699 -5 -17.334 -15 -26.001l-5 -4
c-20.667 -22.667 -41.667 -39.667 -63 -51v-5c0 -19.333 8 -35.333 24 -48c11.333 -6 23 -9 35 -9c16.667 0 36.334 4.66699 59.001 14c32 13.333 61.667 30.666 89 51.999c32.667 23.333 63 49 91 77c-18 12.667 -27 31.334 -27 56.001c0 14 5.16699 29 15.5 45
s26.5 28.333 48.5 37c4.66699 2 9.33398 3 14.001 3c13.333 0 23.333 -6.66699 30 -20c1.33301 -4 2 -8.33301 2 -13c0 -11.333 -5.33301 -25.666 -16 -42.999c-0.666992 0 -1 -0.333008 -1 -1c-10.667 -18 -22.334 -34.667 -35.001 -50c13.333 -4 27 -6 41 -6h12
c8 -0.666992 12 -4.66699 12 -12c0 -3.33301 -1.33301 -6.33301 -4 -9c-22.667 -27.333 -42 -55 -58 -83l-24 -48c-5.33301 -10.667 -8 -18.667 -8 -24c0 -4 1 -7.33301 3 -10c4 -5.33301 9.66699 -8 17 -8h8c11.333 1.33301 29.666 9.66602 54.999 24.999
c30 17.333 67 50 111 98l26 26c2 2 4 3 6 3h3c1.33301 0 2 -1.33301 2 -4c0 -2 -1 -4 -3 -6c-8.66699 -8.66699 -18.667 -19.667 -30 -33c-18 -21.333 -36 -40.333 -54 -57c-26 -21.333 -54 -39.666 -84 -54.999c-14.667 -8.66699 -30.334 -13 -47.001 -13zM356.002 319.999
c11.333 13.333 21.333 27.333 30 42c1.33301 1.33301 2.33301 3 3 5c10 14.667 15 26.667 15 36c0 10 -2.66699 15 -8 15c-3.33301 0 -7 -1.33301 -11 -4l-1 -1c-19.333 -10 -33 -24.667 -41 -44c-2 -4.66699 -3 -9.66699 -3 -15c0 -8 2.66699 -16.333 8 -25
c2 -4 4.66699 -7 8 -9zM41.002 229.999c11.333 7.33301 22.3359 15.333 33.0029 24c1.33301 1.33301 4.16602 3.83301 8.49902 7.5s8.66602 8 12.999 13s7.16602 9 8.49902 12s2 5.16699 2 6.5c0 2 -1 3.66699 -3 5c-4.66699 0 -9.66699 -1.33301 -15 -4
c0 -0.666992 -0.333008 -1 -1 -1c-21.333 -14 -36.333 -32.667 -45 -56c-0.666992 -2 -1 -4.33301 -1 -7z" />
    <glyph glyph-name="es" unicode="es" horiz-adv-x="511" 
d="M283 105c-3.33301 0 -8.16699 0.833984 -14.5 2.50098s-11.833 6.66699 -16.5 15s-7 16.166 -7 23.499c0 9.33301 3 18.666 9 27.999c21.333 24.667 49.666 38 84.999 40c0.666992 14 1 36 1 66l2 27c-1.33301 -0.666992 -4.66602 -3.66699 -9.99902 -9l-28 -25l-48 -41
c-44 -39.333 -93 -70.666 -147 -93.999c-16.667 -6 -33 -9 -49 -9c-13.333 0 -25.333 3.33301 -36 10c-19.333 14.667 -29 32.334 -29 53.001c0 6.66699 1 13.334 3 20.001c6 27.333 19.667 50.333 41 69c9.33301 7.33301 20.333 13 33 17c4 1.33301 7.66699 2 11 2
c8.66699 0 16.667 -3.66699 24 -11c4 -5.33301 6 -10.666 6 -15.999s-2.5 -11.833 -7.5 -19.5s-11.833 -15.167 -20.5 -22.5l-3 -2c-17.333 -16.667 -37.333 -29.334 -60 -38.001c0 -12 4.83301 -22 14.5 -30s20.5 -12 32.5 -12s23.667 2 35 6
c24 7.33301 46.667 17.666 68 30.999c41.333 25.333 79.666 54.666 114.999 87.999c13.333 11.333 32.333 29.333 57 54v1c6.66699 36.667 22.334 58.334 47.001 65.001c8.66699 0 14 -3 16 -9c1.33301 -2 2 -4 2 -6c0 -2.66699 -1.33301 -5.66699 -4 -9l-24 -24l-1 -3
c-6.66699 -20.667 -10 -47.334 -10 -80.001c0 -15.333 -0.666992 -31 -2 -47l18 1c59.333 0 110.666 15 153.999 45l4 1c4 0 6 -2.66699 6 -8c0 -2 -0.666992 -3.66699 -2 -5c-45.333 -28.667 -95 -44 -149 -46l-32 -2c-8 -51.333 -30.667 -83 -68 -95
c-5.33301 -1.33301 -10.666 -2 -15.999 -2zM22.999 202.001c20.667 9.33301 39.666 22 56.999 38c2 2 4.5 5 7.5 9s5 7.33301 6 10s1.5 4.66699 1.5 6c0 7.33301 -3.33301 11 -10 11c-3.33301 0 -7 -1 -11 -3s-7 -3.66699 -9 -5c-9.33301 -6 -18.166 -15 -26.499 -27
s-13.5 -25 -15.5 -39zM279.998 119.001c9.33301 0 17.3311 3.66602 23.998 10.999c18.667 19.333 29.667 42.666 33 69.999c-11.333 0 -26.666 -3.66699 -45.999 -11c-22.667 -9.33301 -34 -23.666 -34 -42.999c0 -2 0.333008 -6.16699 1 -12.5
s6.33398 -11.166 17.001 -14.499h5z" />
    <glyph glyph-name="est" unicode="est" horiz-adv-x="826" 
d="M635 76c-28 3.33301 -48.3271 17.667 -60.9941 43c-7.33301 18 -11 36.667 -11 56c0 12.667 1.66699 25.667 5 39c10.667 52.667 31.667 108.334 63 167.001c-66.667 -68 -139.334 -118 -218.001 -150c-14.667 -6.66699 -29.667 -12.334 -45 -17.001
c-2.66699 -24.667 -12 -46.667 -28 -66s-35.667 -29 -59 -29c-18.667 0 -32.667 7.33301 -42 22c-2.66699 5.33301 -4 10.666 -4 15.999c0 6.66699 1.66699 13 5 19c12 16 34 27.667 66 35l32 9v6c0 17.333 -2.33301 34 -7 50v3l-1 2l-5 -5
c-50.667 -42.667 -105 -79 -163 -109c-1.33301 0 -2.33301 -0.333008 -3 -1c-32 -16.667 -59.333 -25 -82 -25h-10c-32.667 4.66699 -52.334 23.334 -59.001 56.001v10c0 28.667 9.66699 54 29 76c10 10.667 22.333 18 37 22c4.66699 1.33301 9.33398 2 14.001 2
c8.66699 0 17.334 -3.5 26.001 -10.5s13 -14.833 13 -23.5c0 -15.333 -8.33301 -29.666 -25 -42.999c-18.667 -16.667 -40.334 -27.667 -65.001 -33c4.66699 -23.333 20 -35 46 -35c15.333 0 33 4 53 12c58 22.667 110.667 54 158 94l10 7l23 18
c-2.66699 9.33301 -4 18.666 -4 27.999c0 4 0.5 10 1.5 18s6.83301 16.667 17.5 26c7.33301 7.33301 16 11 26 11c4 0 8 -0.666992 12 -2c8.66699 -4.66699 13 -10.667 13 -18c0 -10 -12.333 -27.333 -37 -52c0.666992 -5.33301 2 -10.333 4 -15c6 -24 9 -44 9 -60
c9.33301 2.66699 18.666 6 27.999 10c94 39.333 181.667 104.666 263 195.999c1.33301 0.666992 2.66602 2.66699 3.99902 6c-54.667 -4 -109 -11 -163 -21c-18.667 -4.66699 -37.334 -8.66699 -56.001 -12c-4.66699 0 -8 1.66699 -10 5s-3 6 -3 8l1 7
c1.33301 6.66699 19 10.667 53 12l30 3c52 4.66699 104 8 156 10l14 22c29.333 43.333 49.333 70.333 60 81c18 24.667 38.667 46.334 62 65.001c2 1.33301 3.66699 2 5 2c7.33301 -1.33301 11 -5 11 -11l-2 -5c-11.333 -19.333 -25 -37.666 -41 -54.999
c-24 -28.667 -48 -61.334 -72 -98.001l59 1c45.333 0 90.666 -1.66699 135.999 -5c2.66699 -1.33301 4 -3 4 -5s-1.33301 -3 -4 -3c-36.667 2 -73.334 3 -110.001 3c-30.667 0 -61.334 -0.666992 -92.001 -2c-46.667 -71.333 -81.667 -148.333 -105 -231
c-6 -18 -9 -35 -9 -51c0 -30 10.667 -51.333 32 -64c8.66699 -4.66699 17.334 -7 26.001 -7c5.33301 0 11 1 17 3c28 9.33301 53.667 23.333 77 42c42.667 36 80 77 112 123c1.33301 2 3 3 5 3c3.33301 0 5.33301 -1 6 -3l1 -2c0 -1.33301 -7.33301 -11 -22 -29
c-34.667 -46 -75.667 -85.667 -123 -119c-32 -21.333 -60 -32 -84 -32zM354.006 318.001c0.666992 0.666992 1.5 1.66602 2.5 2.99902s2 2.33301 3 3s1.5 1.33398 1.5 2.00098c6 6 10 12.667 12 20l1 3l-1 2h-1c-1.33301 0 -2.5 -0.333008 -3.5 -1s-1.83301 -1 -2.5 -1
c-8.66699 -6 -13 -15.333 -13 -28c0 -1.33301 0.333008 -2.33301 1 -3zM36.0059 207c10 2.66699 19.335 6.00098 28.002 10.001c24 13.333 39.667 27 47 41c1.33301 2.66699 2 5.33398 2 8.00098c0 5.33301 -2.5 10 -7.5 14s-9.5 6 -13.5 6
c-10.667 -0.666992 -20.334 -5.83398 -29.001 -15.501s-15.334 -19.334 -20.001 -29.001s-7 -21.167 -7 -34.5zM275.008 144.001c6 0 14.334 3 25.001 9c20 12.667 31.667 30 35 52l-15 -4c-22 -7.33301 -37.333 -13.333 -46 -18c-13.333 -8 -20 -15.333 -20 -22
c0 -4 2.16699 -7.83301 6.5 -11.5s9.16602 -5.5 14.499 -5.5z" />
    <glyph glyph-name="i_t" unicode="it" horiz-adv-x="282" 
d="M134 -2l-1.99609 0.000976562c-3.33301 0 -5 13 -5 39c0 32 4.66699 63.667 14 95c11.333 41.333 27.333 80.666 48 117.999c-0.666992 -1.33301 -3.33398 -4.33301 -8.00098 -9c-33.333 -36.667 -72.333 -66 -117 -88c-8.66699 -4 -17.667 -6 -27 -6
c-14 0 -24.667 5 -32 15c-4.66699 9.33301 -7 19.333 -7 30c0 14 3.66699 28.667 11 44c10 24 23 46.333 39 67c14.667 21.333 33 38.333 55 51l5 1c2 0 4.16699 -0.5 6.5 -1.5s4 -2.5 5 -4.5s1.5 -3.33301 1.5 -4c0 -4.66699 -8.66699 -16.334 -26 -35.001
c-36 -36 -58 -74 -66 -114c0 -8.66699 0.833008 -15.334 2.5 -20.001s6.5 -7 14.5 -7c10.667 0.666992 21 3.66699 31 9s19.333 10.666 28 15.999v1c38 26.667 72.667 57.667 104 93l2 2c0.666992 0.666992 1.5 1.66699 2.5 3s2.16699 2.33301 3.5 3
c31.333 50 65.333 97.333 102 142c-39.333 -5.33301 -77.666 -13.666 -114.999 -24.999c-14.667 -5.33301 -24.667 -8 -30 -8c-6.66699 0 -10 3 -10 9c0 3.33301 1.66699 6 5 8c15.333 8.66699 32 13.667 50 15l28 4c27.333 2.66699 54.666 6 81.999 10
c11.333 14 23 27.667 35 41l8 9c11.333 14.667 24.333 26.334 39 35.001l4 1c4 0 7 -1 9 -3s3 -4 3 -6l-1 -4c-9.33301 -19.333 -27 -42 -53 -68h3c60.667 6 133 9 217 9c4 -0.666992 6 -2.66699 6 -6s-2 -5 -6 -5c-82.667 0 -153.334 -2.66699 -212.001 -8l-18 -3l-23 -27
c-50 -61.333 -94 -126.666 -132 -195.999c-18 -33.333 -32.833 -67.333 -44.5 -102s-18.167 -66.667 -19.5 -96c-0.666992 -6 -1.33398 -11.5 -2.00098 -16.5s-3.33398 -7.5 -8.00098 -7.5zM137.004 381.001c-2.66699 0 -4.66699 0.331055 -6 0.998047
s-2.33301 1.33398 -3 2.00098l-2.5 2.5c-1 1 -1.83301 2.33301 -2.5 4s-1 2.83398 -1 3.50098v2c0 2 0.333008 3.83301 1 5.5s2 3.66699 4 6s5 3.5 9 3.5c3.33301 0 5.66602 -0.5 6.99902 -1.5s2.33301 -1.5 3 -1.5c2.66699 -2 4.33398 -4 5.00098 -6s1 -3.33301 1 -4v-2
c0 -2 -0.333008 -4 -1 -6s-2 -4 -4 -6s-5.33301 -3 -10 -3z" />
    <glyph glyph-name="is" unicode="is" horiz-adv-x="504" 
d="M131 374l-7.00098 1.00098l-3 1c0 0.666992 -0.666992 1.16699 -2 1.5s-2 1.16602 -2 2.49902l-1 2v-1v1l-0.5 0.5c-0.333008 0.333008 -0.5 0.833008 -0.5 1.5v0h-1v5v3.5c0 1.66699 1 3.66699 3 6s4.66699 3.83301 8 4.5v1h2h1h1h1
c2.66699 0 4.83398 -0.333008 6.50098 -1s2.5 -1.33398 2.5 -2.00098c3.33301 -2 5.33301 -5.33301 6 -10c0 -2 -0.166992 -3.66699 -0.5 -5s-0.833008 -2.66602 -1.5 -3.99902s-2.16699 -3 -4.5 -5s-4.83301 -3 -7.5 -3zM247.999 86.001
c-23.333 0 -35.6611 10.998 -36.9941 32.998c1.33301 19.333 14.5 36.833 39.5 52.5s52.5 25.5 82.5 29.5c5.33301 20.667 8 50 8 88c-64.667 -60 -133.334 -106 -206.001 -138c-19.333 -9.33301 -39.333 -14 -60 -14c-26.667 0 -47.334 10.333 -62.001 31
c-6 10 -9 20.333 -9 31c0 12 2.33301 25 7 39c13.333 46.667 38.666 85.334 75.999 116.001c2 1.33301 4.33301 2 7 2c1.33301 0 3.66602 -0.833008 6.99902 -2.5s5 -5.5 5 -11.5c0 -3.33301 -1 -6.33301 -3 -9c-30 -31.333 -51.333 -68 -64 -110
c-2.66699 -7.33301 -4 -14.666 -4 -21.999c0 -1.33301 0.166992 -4.5 0.5 -9.5s3.83301 -11.167 10.5 -18.5c11.333 -10.667 25 -16 41 -16h7c22.667 3.33301 44 9.66602 64 18.999c76 34 137.333 76.333 184 127c3.33301 38.667 18 63 44 73
c0.666992 0.666992 1.66699 1 3 1c4.66699 0 8 -1.83301 10 -5.5s3 -7.5 3 -11.5c0 -6 -2.83301 -12.167 -8.5 -18.5s-11.834 -12.5 -18.501 -18.5c-2 -12 -3 -24.667 -3 -38c0 -28 -2 -54.333 -6 -79l14 1c27.333 2.66699 53.833 7.33398 79.5 14.001
s48.834 19.334 69.501 38.001c2 1.33301 3.66699 2 5 2c4.66699 0 7 -2.33301 7 -7c0 -1.33301 -0.666992 -3 -2 -5c-18.667 -16.667 -39.834 -28.5 -63.501 -35.5s-47.834 -11.833 -72.501 -14.5c-0.666992 -0.666992 -14 -2.33398 -40 -5.00098
c-0.666992 -1.33301 -1 -3 -1 -5c-8.66699 -24.667 -22 -46.667 -40 -66s-39.667 -31.333 -65 -36zM242.004 105.999c6.66699 0 14.999 3.33301 24.999 10c26 17.333 46 40 60 68l2 4c-21.333 -3.33301 -41.666 -10 -60.999 -20c-28 -14 -42 -28.667 -42 -44l1 -7
c3.33301 -7.33301 8.33301 -11 15 -11z" />
    <glyph glyph-name="itt" unicode="itt" horiz-adv-x="739" 
d="M509 -30l-4.00293 0.00292969c-13.333 0 -24.666 6.33301 -33.999 19c-6.66699 11.333 -10 27.333 -10 48c0 18.667 2.66699 37 8 55c10 36.667 24 72 42 106l56 101l-7 -9c-0.666992 0 -1 -0.333008 -1 -1l-13 -15l-81 -98c-48 -59.333 -96.667 -105.666 -146 -138.999
c-16.667 -10 -31 -15 -43 -15c-5.33301 0 -10.666 0.666992 -15.999 2c-16.667 7.33301 -27.334 20 -32.001 38c-2.66699 11.333 -4 22.666 -4 33.999c0 6 0.333008 11.667 1 17c6 44.667 20 87 42 127c28.667 53.333 53.667 94.333 75 123l1 2l-102 -109
c-40 -42.667 -85.333 -78.667 -136 -108c-24.667 -13.333 -44.667 -20 -60 -20c-6.66699 0 -13.334 1 -20.001 3c-20 9.33301 -30 27 -30 53v4c3.33301 26 12.333 50.333 27 73c14.667 25.333 33.334 47 56.001 65c2.66699 2.66699 5.66699 4 9 4
c0.666992 0 3 -0.833008 7 -2.5s6 -4.83398 6 -9.50098c0 -3.33301 -1.33301 -6.33301 -4 -9c-22 -21.333 -40.333 -45 -55 -71c-12 -22.667 -18 -41.334 -18 -56.001c0 -20 7.33301 -31 22 -33h8c8 0 16 1.33301 24 4c58 20.667 122.667 70.334 194 149.001l110 119l22 31
l-15 -2c-26 -2 -62.667 -7 -110 -15c-25.333 -4.66699 -42.166 -8.5 -50.499 -11.5s-17.166 -5.16699 -26.499 -6.5c-2 0 -3.66699 0.833008 -5 2.5s-2 3.83398 -2 6.50098c0 2 0.666992 3.33301 2 4c17.333 12.667 44 21.667 80 27l4 1c30.667 5.33301 61 9.33301 91 12
c21.333 3.33301 37.666 5 48.999 5c4 6 21.333 29 52 69c10.667 13.333 22 26.333 34 39l16 17c2 2 4.33301 3 7 3c4.66699 0 8.33398 -2 11.001 -6c1.33301 -1.33301 2 -3 2 -5s-0.666992 -4 -2 -6l-23.5 -32.5c-7.66699 -11 -15.5 -21.667 -23.5 -32l-23 -30.5l-9 -12
c78 6.66699 156 10.334 234 11.001c21.333 28 44.666 54.333 69.999 79c2 2 4.33301 3 7 3c2 0 4 -0.666992 6 -2h2c2.66699 0 4 -2 4 -6c0 -2.66699 -0.666992 -5.33398 -2 -8.00098c-28 -39.333 -44.333 -61.333 -49 -66h31c97.333 0 194.333 -5.66699 291 -17
c4 -1.33301 6.33301 -3.66602 7 -6.99902c0 -4 -2.33301 -6 -7 -6l-59 4c-80 6 -160 9 -240 9h-36l-8 -12c-62.667 -82.667 -119.667 -174 -171 -274c-32.667 -60.667 -51.667 -109.334 -57 -146.001v-2c-2 -8 -3 -16.333 -3 -25s2.83301 -15.834 8.5 -21.501
s12.167 -8.5 19.5 -8.5c9.33301 0 18 2.33301 26 7c14.667 8.66699 28 19 40 31c24 22 45.667 45.667 65 71l44 60c26.667 38 53.334 72.333 80.001 103c1.33301 1.33301 3 2 5 2l3 -1c2.66699 -0.666992 4 -2.33398 4 -5.00098l-1 -4c-28 -32 -54.333 -66 -79 -102
c-22.667 -31.333 -46 -61.333 -70 -90c-46.667 -54.667 -85.667 -83.334 -117 -86.001zM276.997 41.0029c8 0 18.001 3.33301 30.001 10c61.333 38.667 140.666 118.667 237.999 240l42 51l12 16c14 15.333 22.667 26.666 26 33.999c18 27.333 37 54 57 80
c-51.333 -1.33301 -102.666 -3.66602 -153.999 -6.99902l-84 -8c-70 -96 -121.667 -176.667 -155 -242c-20 -38 -33 -78 -39 -120v-11c0 -14 2.66699 -24.667 8 -32s11.666 -11 18.999 -11zM122.998 356.003h-4.99707c-4.66699 0 -8 1.33301 -10 4
c-2.66699 1.33301 -4 4.33301 -4 9c0 2 0.666992 4 2 6v1l4 5l3 1c1.33301 1.33301 3.66602 2 6.99902 2c2.66699 0 5 -0.666992 7 -2c4.66699 -3.33301 7 -7.33301 7 -12c0 -2 -0.5 -3.83301 -1.5 -5.5s-2 -3 -3 -4l-2.5 -2.5c-0.666992 -0.666992 -1.33398 -1 -2.00098 -1
s-1.33398 -0.333008 -2.00098 -1z" />
    <glyph glyph-name="ks" unicode="ks" horiz-adv-x="634" 
d="M388 104c-10.667 0 -20 2.67383 -28 8.00684s-12.333 13.666 -13 24.999c2.66699 21.333 16.334 38.666 41.001 51.999c19.333 11.333 40 18.333 62 21c-0.666992 13.333 -2.33398 26.666 -5.00098 39.999c-2.66699 9.33301 -4.66699 22.666 -6 39.999
c-11.333 -12 -23 -23 -35 -33c-74.667 -64.667 -140 -105 -196 -121c-10 -2 -20 -3 -30 -3c-25.333 0 -49.333 6.66699 -72 20c-19.333 12 -38 25.667 -56 41c-22 -20 -42.667 -41 -62 -63c-0.666992 -0.666992 -1.66699 -1 -3 -1c-2 0 -3.66699 0.666992 -5 2s-2 3 -2 5
c28 102.667 76 203.334 144 302.001c38.667 60.667 83.667 116.667 135 168c2 2 4 3 6 3c6 0 10.333 -2.33301 13 -7c0.666992 -1.33301 1 -3 1 -5c0 -2.66699 -1 -5.33398 -3 -8.00098c-26 -30 -51 -61 -75 -93c-61.333 -80.667 -116 -170 -164 -268
c21.333 1.33301 36.333 4 45 8c3.33301 0 5.66602 0.666992 6.99902 2c45.333 40 78.333 65 99 75c11.333 7.33301 20 11 26 11c5.33301 0 9.83301 -2.16699 13.5 -6.5s5.5 -8.83301 5.5 -13.5c0 -2.66699 -0.833008 -6.33398 -2.5 -11.001s-4.83398 -9.66699 -9.50098 -15
c-26 -26.667 -56.667 -46 -92 -58c-17.333 -6.66699 -35.333 -10 -54 -10h-6l-3 -4l-5 -4l14 -10c14.667 -11.333 30 -21.333 46 -30c20.667 -10.667 42 -16 64 -16c13.333 0 27 2 41 6c35.333 12 68 30 98 54c48 35.333 87.333 69.333 118 102
c0.666992 7.33301 2.33398 14.666 5.00098 21.999c8 20 22 33 42 39h4c4.66699 0 7.66699 -1.5 9 -4.5s2 -5.5 2 -7.5c0 -6 -5.33301 -12.667 -16 -20l-14 -13c-3.33301 -10 -5 -19.667 -5 -29c0 -12.667 1.66699 -27.334 5 -44.001c3.33301 -12.667 5.33301 -25.667 6 -39
l38 2c28.667 0 55.667 2.5 81 7.5s46 16.833 62 35.5c2 2.66699 5.66699 4 11 4c1.33301 -0.666992 2.33301 -1.83398 3 -3.50098s1 -3.16699 1 -4.5s-1 -3 -3 -5c-38 -30.667 -82.333 -46 -133 -46c-7.33301 -0.666992 -15 -1 -23 -1l-37 -2v-5
c-3.33301 -22.667 -13.166 -43.167 -29.499 -61.5s-36.5 -28.166 -60.5 -29.499zM103 243.007c34.667 9.33301 66.668 27 96.001 53c3.33301 2 5.66602 5 6.99902 9h-5c-4.66699 0 -9 -0.666992 -13 -2c-16 -6 -30.833 -14.5 -44.5 -25.5s-27.167 -22.5 -40.5 -34.5z
M2.00098 160.007l41 39l-17 11zM378.001 122.007c6 0 12.333 1.33301 19 4c26 12 42.667 32.667 50 62c1.33301 3.33301 2 6.33301 2 9c-28.667 -4 -53 -14.667 -73 -32c-9.33301 -8 -14 -16.667 -14 -26v-5c2 -8 7.33301 -12 16 -12z" />
    <glyph glyph-name="ll" unicode="ll" horiz-adv-x="356" 
d="M244 78c-6.66699 2 -11.1689 5.99609 -13.502 11.9961s-3.66602 11.833 -3.99902 17.5s-0.5 10.834 -0.5 15.501c0 42.667 14 91.334 42 146.001l5 10c-83.333 -94.667 -155.666 -146.667 -216.999 -156l-10 -1c-12.667 0 -23.5 5.5 -32.5 16.5s-13.5 23.167 -13.5 36.5
c0 14.667 3 31.334 9 50.001c14 36 32.667 69 56 99c80.667 110 162.667 200 246 270c2.66699 2.66699 5.33398 4 8.00098 4c5.33301 -0.666992 9.33301 -3.33398 12 -8.00098c1.33301 -1.33301 2 -3 2 -5c0 -2.66699 -1.33301 -5.66699 -4 -9l-91 -92
c-68.667 -73.333 -121.334 -133.666 -158.001 -180.999c-22.667 -27.333 -40.667 -57.666 -54 -90.999c-5.33301 -16 -8 -29.667 -8 -41c0 -6.66699 1.33301 -13.667 4 -21s10 -12 22 -14c29.333 0 61.333 12.333 96 37c42.667 30 93 76.667 151 140
c8.66699 16.667 18 33 28 49c31.333 49.333 62.333 92 93 128l5 6c9.33301 12.667 20.333 23 33 31c2 1.33301 4 2 6 2c2.66699 0 5 -1.16699 7 -3.5s3 -4.83301 3 -7.5l-1 -6c-6 -12 -13.667 -23.333 -23 -34l-9 -10c-51.333 -64 -96 -132.333 -134 -205l-6 -11
c-26.667 -47.333 -43.667 -89 -51 -125v-2c-1.33301 -6 -2 -13 -2 -21s2.66699 -14 8 -18c1.33301 -0.666992 2 -1.66699 2 -3c0 -3.33301 -2 -5 -6 -5z" />
    <glyph glyph-name="ls" unicode="ls" horiz-adv-x="589" 
d="M312 38l-2.00098 0.00195312c-13.333 0 -23.333 6.33301 -30 19c-2 5.33301 -3 10.666 -3 15.999c0 7.33301 2.33301 15.833 7 25.5s11.334 18.834 20.001 27.501c27.333 27.333 58.666 45.666 93.999 54.999c0.666992 0.666992 1 2 1 4c2 10.667 3 21.334 3 32.001
c0 17.333 -2.33301 34 -7 50l-5 22l-15 -16c-31.333 -30.667 -65.333 -58 -102 -82c-76.667 -52.667 -139.667 -79 -189 -79h-11c-37.333 7.33301 -58.666 29.333 -63.999 66v8c0 34.667 8 67.667 24 99l1 1c30.667 72.667 70.334 140 119.001 202
c53.333 70 110 124.667 170 164c2 1.33301 3.66699 2 5 2c5.33301 0 9.33301 -2.33301 12 -7l1 -5c0 -3.33301 -1 -6.33301 -3 -9c-46.667 -40.667 -77.667 -68.667 -93 -84c-81.333 -82.667 -144 -176.667 -188 -282l-2 -3c-15.333 -32 -23 -58.333 -23 -79l1 -13
c5.33301 -28.667 24.666 -43 57.999 -43l14 1c35.333 6 68.333 18 99 36c66.667 34.667 124.667 78 174 130c2.66699 4 6 8 10 12v8c0 13.333 2.66699 26.333 8 39c11.333 22.667 28.333 34 51 34c2.66699 0 6 -0.333008 10 -1s6 -3.66699 6 -9
c0 -2.66699 -0.666992 -5.33398 -2 -8.00098c-10 -10.667 -19.333 -21.667 -28 -33l-16 -18c0 -12 2.5 -27.833 7.5 -47.5s7.5 -39.834 7.5 -60.501c0 -14 -0.666992 -21.667 -2 -23l34 8c28 4.66699 55 11.5 81 20.5s49.667 22.833 71 41.5c1.33301 1.33301 3 2 5 2
c4 0 6 -2.33301 6 -7l-1 -4c-22 -20 -46.833 -34.667 -74.5 -44s-55.834 -17 -84.501 -23l-39 -9c-10.667 -52 -37 -93.333 -79 -124c-11.333 -7.33301 -23.666 -11.333 -36.999 -12zM307.999 60.002l7.00195 0.998047c11.333 4 22 11.333 32 22
c23.333 24.667 38.666 51.334 45.999 80.001c-30 -10 -55.667 -26.333 -77 -49c-10 -9.33301 -16.667 -20.666 -20 -33.999v-3c0 -5.33301 1.16699 -9.5 3.5 -12.5s5.16602 -4.5 8.49902 -4.5z" />
    <glyph glyph-name="nd" unicode="nd" horiz-adv-x="648" 
d="M457 130l-5.99902 -0.0078125c-23.333 0 -41 12 -53 36c-3.33301 12.667 -5 25.334 -5 38.001s1.66699 25.334 5 38.001c0 2.66699 0.666992 5.33398 2 8.00098c-31.333 -34.667 -63 -62 -95 -82c-4.66699 -2.66699 -13 -4 -25 -4
c-4 0.666992 -7.66699 5.33398 -11 14.001c-0.666992 3.33301 -1 8.33301 -1 15c-18.667 -15.333 -39.334 -27.666 -62.001 -36.999c-9.33301 -4 -18.666 -6 -27.999 -6c-7.33301 0 -14.666 1 -21.999 3c-24 9.33301 -36 30.666 -36 63.999c0 14.667 4.66699 42 14 82
c0 2 0.333008 3.33301 1 4l-7 -4c-5.33301 -2.66699 -15.333 -10.667 -30 -24c-29.333 -28 -57.333 -57.333 -84 -88c-5.33301 -7.33301 -10.666 -14.166 -15.999 -20.499l-15 -18.5c-6 -9.33301 -10.333 -14 -13 -14c-6 0 -9 3.33301 -9 10
c9.33301 44 37.666 94.667 84.999 152c11.333 17.333 24.666 31 39.999 41c2 1.33301 4 2 6 2c1.33301 0 3.16602 -0.5 5.49902 -1.5s4 -2.66699 5 -5s1.5 -4.16602 1.5 -5.49902c0 -2 -0.666992 -4 -2 -6c-6.66699 -11.333 -14.334 -21.666 -23.001 -30.999
c-16.667 -16.667 -37.667 -46 -63 -88c13.333 16 27 31.333 41 46s28.667 28.667 44 42l9 9c10 11.333 19.333 18.666 28 21.999h4c11.333 0 18 -6.66699 20 -20l-1 -14c-0.666992 -1.33301 -2.33398 -11.666 -5.00098 -30.999c-2.66699 -22.667 -4 -36.667 -4 -42
c0 -14 2 -24.333 6 -31c6 -8.66699 16.333 -13 31 -13c5.33301 0 10.333 0.666992 15 2c24.667 6.66699 47.334 19 68.001 37c6.66699 20.667 17.334 39.667 32.001 57c9.33301 12.667 20.333 23.667 33 33c12.667 11.333 27 20 43 26c4.66699 1.33301 9 2 13 2
c14 0 23.667 -6.66699 29 -20l9 18c26.667 53.333 56.334 104.666 89.001 153.999c46 68 83 114.667 111 140c2 2 4.33301 3 7 3c8 -1.33301 12 -4.66602 12 -9.99902c0 -2 -0.666992 -4.33301 -2 -7c-11.333 -18 -23.666 -35.333 -36.999 -52l-16 -21
c-53.333 -72.667 -98.333 -145 -135 -217c-28.667 -54 -43 -95.333 -43 -124c0 -31.333 11.333 -48.333 34 -51l16 -1c25.333 0 53.666 8.33301 84.999 25c47.333 24.667 89.333 56.667 126 96c1.33301 1.33301 3.33301 2 6 2l3 -6l-1 -2
c-45.333 -45.333 -97 -80.666 -155 -105.999c-22.667 -10 -47.334 -16 -74.001 -18zM293.001 178.992c6 0.666992 12.002 3 18.002 7l3 2c27.333 15.333 57.666 42.333 90.999 81l1 1c-0.666992 2 -1 4.83301 -1 8.5s-0.333008 8 -1 13s-3.33398 7.5 -8.00098 7.5
c-6 0 -16 -5 -30 -15c-27.333 -20 -49.333 -47.667 -66 -83l-2 -5c-3.33301 -4.66699 -5.33301 -9.66699 -6 -15v-1z" />
    <glyph glyph-name="oo" unicode="oo" horiz-adv-x="358" 
d="M169 138c-10 0 -19.3379 4.83105 -28.0049 14.498s-13 20.5 -13 32.5c0 17.333 5 33.666 15 48.999c8 14.667 18.333 27.334 31 38.001c-26 -6 -55.333 -9 -88 -9h-14c4.66699 -8.66699 7 -17.667 7 -27s-2.33301 -19 -7 -29c-11.333 -23.333 -28 -42.666 -50 -57.999
c-9.33301 -6.66699 -18.666 -10 -27.999 -10h-4c-15.333 4.66699 -23 16.334 -23 35.001c0 9.33301 2.66699 19.666 8 30.999c17.333 36.667 43.333 64 78 82l7 2c2.66699 0 5.33398 -1 8.00098 -3s4.33398 -5 5.00098 -9h7c55.333 0 99.333 6.66699 132 20
c2 1.33301 4 2 6 2c0.666992 0 2.16699 -0.833008 4.5 -2.5s3.5 -4.16699 3.5 -7.5c0 -4.66699 -6.33301 -12.667 -19 -24c-15.333 -14.667 -28.333 -31 -39 -49c-6 -10 -9 -20 -9 -30c0 -4 0.833008 -8.5 2.5 -13.5s6.83398 -8.16699 15.501 -9.5c14 0 26 5.66699 36 17
c20 22.667 30.667 49.334 32 80.001l-1 13c-7.33301 6.66699 -14 14.667 -20 24l-1 4c0 6 2.66699 9 8 9c14.667 -0.666992 23.334 -8 26.001 -22c27.333 -21.333 56 -32 86 -32c14.667 0 29.667 2.33301 45 7l3 1c2 0 3 -2 3 -6c0 -2 -0.666992 -3.33301 -2 -4
c-20.667 -8.66699 -41 -13 -61 -13c-24.667 0 -48.667 6.66699 -72 20c-2.66699 -42 -17.667 -76.333 -45 -103c-14 -13.333 -29 -20 -45 -20zM4.99512 158.998c4 0 8.33301 1.33301 13 4c15.333 8 29.333 20.333 42 37c6.66699 10 10 21 10 33
c0 9.33301 -2.66699 18.333 -8 27c-18 -12 -33 -27 -45 -45c-6.66699 -9.33301 -12 -19 -16 -29c0 -0.666992 -0.333008 -1.66699 -1 -3s-1.5 -3.33301 -2.5 -6s-1.5 -5 -1.5 -7v-6.5c0 -3 3 -4.5 9 -4.5z" />
    <glyph glyph-name="om" unicode="om" horiz-adv-x="718" 
d="M207 157l-2.99805 -0.00195312c-2.66699 0 -5.33398 0.833008 -8.00098 2.5s-4 4.5 -4 8.5c4 33.333 14.333 65.333 31 96c0.666992 0.666992 1 1.66699 1 3l10 19l13 28l8 21c0 -0.666992 -0.333008 -1 -1 -1s-1.33398 -0.333008 -2.00098 -1
c-36.667 -21.333 -67 -32 -91 -32c-19.333 0 -34 4.33301 -44 13c-4.66699 -30.667 -14 -59.667 -28 -87c-12.667 -24 -26 -43 -40 -57c-8 -8 -16.667 -12 -26 -12c-4 0 -8.5 1.16699 -13.5 3.5s-9 6.83301 -12 13.5s-4.5 13 -4.5 19c0 6.66699 1.33301 13.334 4 20.001
c15.333 40.667 42 77 80 109c12 9.33301 25.333 15.666 40 18.999h2c6 0 9 -2.66699 9 -8c0 -2.66699 -0.666992 -5 -2 -7h-1c10 -4.66699 22.667 -7 38 -7c17.333 0 38 5 62 15c11.333 4 19 8 23 12c7.33301 3.33301 13.666 8 18.999 14c2.66699 2.66699 5.66699 4 9 4
c5.33301 0 8.33301 -3 9 -9c0 -17.333 -3.33301 -34 -10 -50s-13.834 -32.167 -21.501 -48.5s-15.167 -33.166 -22.5 -50.499l22 23c31.333 39.333 72 78.333 122 117c1.33301 0.666992 2.33301 1.66699 3 3l13.5 8c4.33301 2.66699 9.16602 4 14.499 4
c12.667 0 19 -6.33301 19 -19c0 -12 -5.33301 -28.667 -16 -50l-27 -71l48 43c37.333 31.333 77 59 119 83l8 5c17.333 11.333 31.666 17 42.999 17l8 -1c12.667 -4.66699 19.334 -12.667 20.001 -24c0 -16 -4.66699 -37 -14 -63c-5.33301 -14 -9.66602 -28.333 -12.999 -43
c-2.66699 -8.66699 -4 -17 -4 -25l1 -10c2.66699 -9.33301 10 -15.666 22 -18.999c12.667 0 24 2.33301 34 7l4 1c37.333 14 66.666 36 87.999 66c1.33301 1.33301 3.66602 2 6.99902 2c0.666992 0 1.33398 -0.666992 2.00098 -2s1 -2.33301 1 -3s-0.666992 -1.66699 -2 -3
c-39.333 -44.667 -78.666 -73 -117.999 -85c-6 -2 -12 -3 -18 -3c-14 0 -26.333 5.33301 -37 16c-7.33301 8.66699 -11.333 18.667 -12 30v9c0 20.667 5.33301 45.334 16 74.001l7 20c3.33301 10 5.66602 20 6.99902 30l1 2l-2 1c-0.666992 0 -1 0.333008 -1 1l-8 1l-6 -1
c-44.667 -14.667 -84.667 -38 -120 -70c-18 -14.667 -44.333 -38 -79 -70v-1c-4 -2.66699 -9.33301 -7.33398 -16 -14.001l-1 -3c-3.33301 -4.66699 -7 -7 -11 -7c-4.66699 0 -8.5 1.5 -11.5 4.5s-4.5 6.16699 -4.5 9.5l1 4c4 14 9 28 15 42l40 99h-1
c-5.33301 -2 -10.666 -5 -15.999 -9l-4 -3c-7.33301 -4.66699 -14.666 -10 -21.999 -16c-29.333 -24.667 -58 -53 -86 -85c-21.333 -20 -38.666 -42.333 -51.999 -67c-2 -3.33301 -4.66699 -5 -8 -5zM26.002 180.998c2 0 5.66699 2.00098 11 6.00098l12 9
c30 28.667 48.667 66.334 56 113.001l-15 -13c-25.333 -22.667 -44 -46.334 -56 -71.001c-0.666992 0 -1 -0.333008 -1 -1c-6.66699 -10.667 -10.667 -22.334 -12 -35.001c0 -5.33301 1.66699 -8 5 -8z" />
    <glyph glyph-name="on" unicode="on" horiz-adv-x="544" 
d="M224 120c-4.66699 0 -8.50098 1.49707 -11.501 4.49707s-4.5 6.16699 -4.5 9.5s12.667 33 38 89c6.66699 16 11.334 26 14.001 30c12 28.667 25.667 56.334 41 83.001c-5.33301 -1.33301 -10.666 -3.5 -15.999 -6.5s-21 -8.5 -47 -16.5c-36 -11.333 -68 -17 -96 -17
l-25 1v-7c-0.666992 -2.66699 -1.16699 -5.16699 -1.5 -7.5s-0.5 -4.83301 -0.5 -7.5c-2.66699 -19.333 -8.16699 -38 -16.5 -56s-18.833 -34.667 -31.5 -50c-14 -18.667 -27.333 -28 -40 -28l-9 1c-10.667 3.33301 -18 10 -22 20c-3.33301 7.33301 -5 15 -5 23v7
c3.33301 20 9.83301 38.5 19.5 55.5s22 32.333 37 46s32.5 21.834 52.5 24.501c2.66699 0 5 -1 7 -3s3 -4.33301 3 -7c0.666992 0 1 0.333008 1 1c3.33301 2 7.66602 3 12.999 3l5 -1c2 0 3.66699 0.333008 5 1c22 0.666992 44 3.33398 66 8.00098c18 4 43.667 11.667 77 23
c13.333 6 27 10.333 41 13h1c3.33301 0 5.66602 -1.16699 6.99902 -3.5s2 -4.83301 2 -7.5v-2c-11.333 -35.333 -25 -69.666 -41 -102.999l-30 -67c6.66699 6.66699 10 10.667 10 12c28.667 31.333 59.334 61.666 92.001 90.999c8.66699 6.66699 16.167 13 22.5 19
s12.166 9 17.499 9c3.33301 0 6.83301 -1.5 10.5 -4.5s5.5 -7.5 5.5 -13.5s-1 -12 -3 -18l-3 -16c-4 -14.667 -6 -30 -6 -46c0 -8 2.16699 -15.5 6.5 -22.5s12.5 -10.5 24.5 -10.5c14 0 30.333 4.66699 49 14c33.333 18.667 62.666 42 87.999 70c2.66699 2.66699 5 4 7 4
c2.66699 0 4.33398 -1 5.00098 -3c0 -2 -0.666992 -3.66699 -2 -5c-30.667 -30 -64.334 -56.333 -101.001 -79c-14.667 -8.66699 -31 -14.667 -49 -18l-11 -1c-13.333 0 -24.666 5.83301 -33.999 17.5s-14 24.5 -14 38.5c0 16.667 5 39.667 15 69l1 4h-1
c-1.33301 -1.33301 -2.5 -2.16602 -3.5 -2.49902s-1.5 -0.833008 -1.5 -1.5c-8 -6 -15.667 -12.333 -23 -19c-36.667 -32 -70.667 -67.667 -102 -107c-13.333 -16 -20.166 -24.333 -20.499 -25s-0.5 -1.33398 -0.5 -2.00098c-2.66699 -4.66699 -6.66699 -7 -12 -7z
M30.999 165.997c8.66699 0 18.667 7.33203 30 21.999c0.666992 0 1 0.333008 1 1c26.667 28.667 41 62.334 43 101.001l1 8l-15 -11c-28.667 -19.333 -49 -42.333 -61 -69c-6 -14 -9 -25 -9 -33c0 -12.667 3.33301 -19 10 -19z" />
    <glyph glyph-name="os" unicode="os" horiz-adv-x="489" 
d="M267 138c-16 0 -29.332 4.33301 -39.999 13c-6.66699 4.66699 -10 11.667 -10 21v2c3.33301 16.667 16.666 29.167 39.999 37.5s47.666 13.166 72.999 14.499c4.66699 15.333 8 31 10 47c0 4.66699 1.66699 17.667 5 39c-51.333 -34 -102 -58.667 -152 -74
c-16.667 -5.33301 -34 -8 -52 -8c-18.667 0 -33.334 2.66699 -44.001 8l-2 -4c-19.333 -38 -39.666 -57 -60.999 -57c-8 0 -15.667 2.66699 -23 8c-6.66699 8 -10 17 -10 27l1 11c4.66699 24.667 16.5 45.667 35.5 63s36.833 26 53.5 26
c4.66699 0 9.16699 -0.666992 13.5 -2s6.5 -4.33301 6.5 -9c0 -2.66699 -1 -5 -3 -7l1 -12c0 -8 -1.66699 -16.333 -5 -25c12.667 -6 29 -9 49 -9c18 0 36 3 54 9c50.667 16.667 98 40.334 142 71.001c0 2 0.666992 4 2 6c5.33301 13.333 14.333 20.666 27 21.999
c5.33301 0 10.666 -2.33301 15.999 -7c2.66699 -2 4 -4.33301 4 -7c-0.666992 -3.33301 -2.16699 -6.16602 -4.5 -8.49902s-5 -3.66602 -8 -3.99902s-5.33301 -3 -7 -8s-2.5 -9.5 -2.5 -13.5c-2 -9.33301 -3.33301 -19 -4 -29s-4 -27 -10 -51c60.667 0 113 11 157 33l4 1
c4 0 6 -2 6 -6c0 -2.66699 -1 -4.66699 -3 -6c-39.333 -22 -81.666 -34 -126.999 -36c-14 -2 -28 -3 -42 -3c-9.33301 -28.667 -25 -49.334 -47 -62.001c-13.333 -7.33301 -27.666 -11 -42.999 -11zM93.001 266c2 5.33301 3 11 3 17v4
c-0.666992 -0.666992 -1.66699 -1.33398 -3 -2.00098s-2.33301 -1.5 -3 -2.5s-1 -1.83301 -1 -2.5c0 -3.33301 0.333008 -6.16602 1 -8.49902s1.66699 -3.83301 3 -4.5v-1zM38.001 197c4.66699 0 9.66699 1.66699 15 5c12 8.66699 23 23 33 43
c-9.33301 6.66699 -14.666 15.667 -15.999 27c-22.667 -14 -36.334 -35.667 -41.001 -65c0 -6.66699 3 -10 9 -10zM260.001 158c12 0 22.668 3.33203 32.001 9.99902c14 11.333 24.333 25 31 41c-45.333 -4 -74.333 -14 -87 -30c-2 -2 -3 -4 -3 -6
c0 -3.33301 2.66699 -6.66602 8 -9.99902s11.666 -5 18.999 -5z" />
    <glyph glyph-name="or" unicode="or" horiz-adv-x="398" 
d="M258 118l-11.0039 -0.000976562c-6.66699 0.666992 -12.667 7.33398 -18 20.001c-1.33301 4 -2 8 -2 12l1 12c1.33301 13.333 10 33.666 26 60.999c10 18.667 22.667 38 38 58c-12.667 0 -23.334 2 -32.001 6l-3 2v1c-32.667 -26 -67 -45.333 -103 -58
c-15.333 -8 -31.333 -12 -48 -12c-7.33301 0 -11.666 0.666992 -12.999 2h-2c-4.66699 -8 -9.66699 -15.667 -15 -23c-11.333 -14.667 -25.333 -26.334 -42 -35.001c-4 -2 -8 -3 -12 -3s-9 1.66699 -15 5c-8.66699 4 -13 13.667 -13 29c0 14 3.33301 27.333 10 40
c14.667 36 39.334 62.333 74.001 79l6 1c6.66699 0 11 -3.33301 13 -10c0 -4 -0.666992 -7.33301 -2 -10c8 -4 12 -11.333 12 -22c0 -5.33301 -3 -17 -9 -35l11 -1c6 0 13 0.833008 21 2.5s16 3.83398 24 6.50098c26.667 9.33301 51.334 22 74.001 38l20 14
c-8.66699 11.333 -13 23.666 -13 36.999c0 23.333 8.66699 43.666 26 60.999c11.333 10.667 24.333 16.667 39 18c4 0 8 -0.666992 12 -2c12 -5.33301 18 -12.666 18 -21.999v-10c-0.666992 -5.33301 -4.33398 -13.5 -11.001 -24.5s-13 -19.833 -19 -26.5
s-12.333 -13 -19 -19v-1c5.33301 -2.66699 11 -4 17 -4c6.66699 0 12.667 0.333008 18 1c5.33301 0 9 -1 11 -3s3 -4 3 -6c0 -4.66699 -5.5 -15 -16.5 -31s-24.167 -37.667 -39.5 -65c-14.667 -27.333 -22 -46.333 -22 -57c0 -6.66699 4 -10 12 -10
c3.33301 0 6.33301 0.333008 9 1c15.333 3.33301 29.833 10 43.5 20s26.834 20.667 39.501 32c40 38.667 63 63 69 73c2 1.33301 3.66699 2 5 2c0.666992 0 1.83398 -0.333008 3.50098 -1s2.83398 -1.66699 3.50098 -3s1 -2.66602 1 -3.99902s-1 -3 -3 -5
c-23.333 -25.333 -48.333 -49.666 -75 -72.999c-46.667 -38.667 -80.667 -58 -102 -58zM270.996 317.999c21.333 17.333 35.333 35.667 42 55l3 11c0 4 -1 6.33301 -3 7s-3.33301 1 -4 1l-10 -4c-22 -12 -33 -29 -33 -51c0 -8.66699 1.66699 -15 5 -19zM87.9961 242
c1.33301 3.33301 2.33301 6.49902 3 9.49902s1.5 6.33301 2.5 10s1.5 6.83398 1.5 9.50098s-0.333008 5.5 -1 8.5s-3 4.83301 -7 5.5l-4 -1c-8.66699 -2.66699 -13 -8.66699 -13 -18c0 -4 1.33301 -8 4 -12c4 -6 8.66699 -10 14 -12zM30.9961 181.999c4 0 9 2 15 6l1 1
c14 8.66699 25 21 33 37c-14 6 -22.667 16.667 -26 32c-20 -24 -30 -47 -30 -69c0 -4.66699 2.33301 -7 7 -7z" />
    <glyph glyph-name="ou" unicode="ou" horiz-adv-x="548" 
d="M230 164c-10.667 0 -18.001 4.99805 -22.001 14.998c-2 4 -3 8 -3 12c0 7.33301 2 15.333 6 24c14.667 35.333 36 70 64 104c-48 -24 -89.667 -39.333 -125 -46c-15.333 0 -27.666 1.33301 -36.999 4c-2 -10 -5.33301 -19.667 -10 -29c-10 -21.333 -23.333 -40 -40 -56
l-3 -2c-16 -16 -29 -24 -39 -24c-4 0 -8.33301 1 -13 3c-9.33301 6 -14 14 -14 24c0 13.333 3.33301 27 10 41c20 46.667 54 78 102 94c4.66699 0 8.16699 -1 10.5 -3s3.5 -5 3.5 -9c0 -3.33301 -1.33301 -6 -4 -8c0.666992 -3.33301 1 -8 1 -14
c1.33301 -0.666992 3 -1 5 -1c7.33301 -2 14.666 -3 21.999 -3c20 0 39.333 3 58 9c24.667 7.33301 53.334 20.333 86.001 39c2 2 4 3 6 3c8 8.66699 17 15.334 27 20.001c4 0 7.16699 -0.666992 9.5 -2s3.5 -3.33301 3.5 -6l-1 -4
c-5.33301 -11.333 -12.666 -21.666 -21.999 -30.999l-6 -9c-19.333 -22.667 -37.333 -49.334 -54 -80.001l-14 -26c-4 -6 -6 -11 -6 -15c0 -2 0.5 -3 1.5 -3h2.5l9 2c31.333 14.667 63.333 40.334 96 77.001c6.66699 18 16.667 34 30 48c2 1.33301 5.33301 2 10 2
c2 0 3.83301 -1 5.5 -3s2.5 -4 2.5 -6c0 -4 -3 -11.333 -9 -22c-9.33301 -16.667 -14 -34 -14 -52c0 -8.66699 1.66699 -16.334 5 -23.001c5.33301 -14.667 19.333 -22 42 -22c29.333 0 59.333 8.66699 90 26c26 14.667 50.333 30.667 73 48l3 1c2 0 3.66699 -1.66699 5 -5
c0 -2 -0.833008 -3.66699 -2.5 -5s-3.16699 -2.66602 -4.5 -3.99902c-26 -19.333 -53.5 -37 -82.5 -53s-60.167 -24.667 -93.5 -26c-34.667 0.666992 -56 18 -64 52l-1 11c0 4 0.333008 7.66699 1 11c-22.667 -22.667 -42.334 -40 -59.001 -52c-10 -10 -22.667 -18 -38 -24
c-2.66699 -1.33301 -5.66699 -2 -9 -2zM26.999 185.998c6.66699 0 11.666 1.66699 14.999 5c7.33301 3.33301 14.333 8 21 14c20.667 19.333 34 43.333 40 72l1 4c-4.66699 3.33301 -8.66699 7.33301 -12 12c-31.333 -19.333 -53.666 -47 -66.999 -83
c0 -1.33301 -0.333008 -2.33301 -1 -3c-2.66699 -6.66699 -4 -12 -4 -16c0 -3.33301 2.33301 -5 7 -5z" />
    <glyph glyph-name="ow" unicode="ow" horiz-adv-x="470" 
d="M193 115l-7.99512 1c-11.333 4.66699 -17 14.334 -17 29.001l1 9c3.33301 20 9 39.333 17 58c20 52.667 45.667 99 77 139c-39.333 -22 -76.333 -38.333 -111 -49l-17 -4v-1c-4 -26 -13.5 -49.5 -28.5 -70.5s-33.833 -37.5 -56.5 -49.5c-6.66699 -4 -14 -6 -22 -6
c-6 0 -11.667 2 -17 6c-7.33301 8.66699 -11 18.667 -11 30c0 12.667 4 26.334 12 41.001c12 30 33.667 58.667 65 86c5.33301 3.33301 11 6 17 8l4 2c3.33301 0 6 -1.66699 8 -5c15.333 0 24.666 -8.66699 27.999 -26l5 2c58 18 109.667 41.667 155 71
c9.33301 9.33301 19.333 17.666 30 24.999l4 1c3.33301 0 5.66602 -1 6.99902 -3s2 -4 2 -6c0 -3.33301 -11.333 -19.666 -34 -48.999c-41.333 -49.333 -75 -109.666 -101 -180.999l-4 -11c-4 -8 -6 -15.333 -6 -22c0 -5.33301 1.66699 -8 5 -8c2 0 5.33301 1 10 3
c24.667 13.333 57.667 45.333 99 96c7.33301 24 16.666 43.333 27.999 58c8 11.333 15 17 21 17c1.33301 0 2.66602 -0.333008 3.99902 -1s2.5 -1.66699 3.5 -3s1.83301 -2.66602 2.5 -3.99902c0 -2 -0.333008 -3.5 -1 -4.5s-1.33398 -2.16699 -2.00098 -3.5
c-2 -8 -5.33301 -15.667 -10 -23c-2.66699 -4 -4.66699 -7.66699 -6 -11c-12 -26.667 -18.667 -52.334 -20 -77.001v-10c0 -14.667 4 -22 12 -22c4 0 9 1.66699 15 5c13.333 7.33301 25 17.666 35 30.999c14 19.333 24.667 40.666 32 63.999c3.33301 10 5 20.667 5 32v5
c0 6.66699 -2 14 -6 22c-2.66699 4 -4 8 -4 12c0 3.33301 0.833008 5.66602 2.5 6.99902s3.5 2 5.5 2l5 -1c9.33301 -6.66699 14 -19.667 14 -39c0 -14.667 -4 -32.334 -12 -53.001c-18.667 -52 -44.667 -86.667 -78 -104c-6 -3.33301 -12 -5 -18 -5
c-8 0 -15.167 2.83301 -21.5 8.5s-10.333 12.167 -12 19.5s-2.5 14.333 -2.5 21c0 12.667 1.33301 25.334 4 38.001c-18.667 -22 -42 -45.667 -70 -71l-6 -6c-12 -13.333 -23 -20 -33 -20zM112.005 309l10.999 0.999023c-1.33301 10.667 -6.66602 16.334 -15.999 17.001h-2
l-9 -12c2.66699 -4 8 -6 16 -6zM38.0039 193.999c2.66699 0 8.99902 2.33301 18.999 7c0.666992 0 1 0.333008 1 1c18 10 32 23.333 42 40c11.333 16 19 33.667 23 53l-11 -1c-10 0 -18.667 3 -26 9v1c-27.333 -27.333 -45.666 -58 -54.999 -92
c0 -0.666992 -0.333008 -1 -1 -1c-0.666992 -2.66699 -1 -5.66699 -1 -9c0 -5.33301 3 -8 9 -8z" />
    <glyph glyph-name="rs" unicode="rs" horiz-adv-x="443" 
d="M221 90c-8.66699 0 -15.332 2.50391 -19.999 7.50391s-7 11.167 -7 18.5c0 10.667 3.66699 21 11 31c13.333 16.667 32 31.667 56 45c-0.666992 0.666992 -1 1.16699 -1 1.5s-0.333008 3.83301 -1 10.5c-2 12 -3 23.667 -3 35v9l-16 -17l-27 -30
c-36.667 -40.667 -74 -69.334 -112 -86.001c-15.333 -6 -27.666 -9 -36.999 -9h-5c-17.333 4 -26 16 -26 36c0 14.667 2.66699 28.334 8 41.001c8.66699 20.667 20.334 40 35.001 58l-19 -1c-8.66699 0 -18.334 1 -29.001 3s-20 9.33301 -28 22
c-4.66699 9.33301 -7 18.666 -7 27.999c0 31.333 16.333 57 49 77c10.667 6 21.334 9.33301 32.001 10c6 0 12 -1.66699 18 -5c9.33301 -7.33301 14 -16 14 -26c0 -12 -4.83301 -25.5 -14.5 -40.5s-20.834 -27.833 -33.501 -38.5h49c8.66699 0 13 -4 13 -12
c0 -7.33301 -8 -21.333 -24 -42c-10.667 -14.667 -19.667 -30.334 -27 -47.001l-2 -3c-4 -11.333 -6 -21 -6 -29c0 -8.66699 4 -13 12 -13c5.33301 0 11.666 1.33301 18.999 4c26.667 10 51 24.333 73 43c24.667 21.333 48 44.666 70 69.999l24 27v1
c6 18.667 17.667 32 35 40c4 2 9.33301 3 16 3s11.667 -1.33301 15 -4s5 -6 5 -10c0 -2 -0.5 -4.16699 -1.5 -6.5s-2.16699 -4 -3.5 -5s-3 -1.5 -5 -1.5h-2h2c0 -0.666992 -0.333008 -1 -1 -1l-6 1c-2 0 -3 -0.666992 -3 -2h-1c-4 -2 -7.66699 -4.33301 -11 -7
c-8 -9.33301 -12 -22.666 -12 -39.999c0 -9.33301 1 -18.333 3 -27v-2c43.333 18 105 36.333 185 55h2c2.66699 0 4.5 -0.5 5.5 -1.5s1.5 -2.5 1.5 -4.5v-3.5c0 -1.66699 -1.66699 -2.83398 -5 -3.50098c-48.667 -10 -96.667 -22.667 -144 -38
c-14.667 -4.66699 -29.334 -10.334 -44.001 -17.001l1 -22c-2 -19.333 -8.83301 -37.333 -20.5 -54s-28.167 -26 -49.5 -28zM42.002 272.004c18.667 10 33.6689 24.001 45.002 42.001c6.66699 11.333 10 21.333 10 30c0 5.33301 -1.5 10 -4.5 14s-6.16699 6 -9.5 6
c-6.66699 0 -12.334 -1.66699 -17.001 -5c-16.667 -12.667 -28.667 -27 -36 -43c-4.66699 -10.667 -7 -18 -7 -22s1 -7.66699 3 -11c3.33301 -6.66699 8.66602 -10.334 15.999 -11.001zM216.004 110.005l7 0.999023c16 6.66699 27.667 18 35 34c3.33301 8 5 16 5 24l-1 11
c-28.667 -17.333 -46.667 -35.666 -54 -54.999l-1 -5c0.666992 -6.66699 3.66699 -10 9 -10z" />
    <glyph glyph-name="ss" unicode="ss" horiz-adv-x="409" 
d="M200 51c-6.66699 0 -13.332 2.16699 -19.999 6.5s-11.334 11.833 -14.001 22.5v7c0 24.667 26.667 55.667 80 93v30l1 35c-18.667 -10 -51.334 -22.667 -98.001 -38c-26.667 -9.33301 -53.334 -19.333 -80.001 -30c-2 -2 -3.66699 -3 -5 -3v-11
c0 -8 -0.333008 -15.667 -1 -23c-2.66699 -26 -14 -47.333 -34 -64c-8 -6 -17.333 -9 -28 -9h-11c-6 0 -12.333 5 -19 15c-2.66699 6 -4 12 -4 18c0 14 8 27.333 24 40c12.667 11.333 26.667 21 42 29c-0.666992 12 -2 24 -4 36l-2 13c-3.33301 12 -5 23.667 -5 35
c0 10.667 1.66699 21.334 5 32.001s10.666 19.334 21.999 26.001c6.66699 3.33301 13.334 5 20.001 5c4.66699 0 9.33398 -1 14.001 -3s7 -5 7 -9c0 -2.66699 -0.833008 -5 -2.5 -7s-4.16699 -3 -7.5 -3h-6c-4.66699 0 -8.83398 -2.33301 -12.501 -7s-6 -9.66699 -7 -15
s-1.5 -10.333 -1.5 -15c0 -8 1 -16 3 -24c0 -2.66699 0.333008 -5 1 -7c2.66699 -14 4.66699 -28 6 -42c28 12 56.333 23 85 33c35.333 11.333 69 25 101 41c2.66699 17.333 9.5 32.5 20.5 45.5s24.833 19.833 41.5 20.5c11.333 0 17 -3.33301 17 -10v-3
c-2 -9.33301 -9.66699 -19 -23 -29h-1c-8 -6.66699 -16.667 -13 -26 -19c-2 -15.333 -3 -31 -3 -47v-16c9.33301 6 19 11.333 29 16c42.667 21.333 87.334 36.666 134.001 45.999h2c2.66699 0 4.5 -0.833008 5.5 -2.5s1.5 -3.5 1.5 -5.5
c-0.666992 -2.66699 -2.66699 -4.33398 -6 -5.00098c-59.333 -8 -114.666 -29 -165.999 -63l1 -16c0 -29.333 -6 -55.333 -18 -78c-10 -20 -26 -33.333 -48 -40zM284.002 280l2 0.999023c12 8.66699 19.667 16.334 23 23.001c-12 -3.33301 -20.333 -11.333 -25 -24z
M197.002 70.999c6.66699 0 13 4.33398 19 13.001c6 2.66699 11.667 10.667 17 24c8.66699 18.667 13 38 13 58c-18 -13.333 -34.333 -28 -49 -44c-10.667 -12.667 -16 -23.334 -16 -32.001c0 -4 1.16699 -8.16699 3.5 -12.5s6.5 -6.5 12.5 -6.5zM-4.99805 87
c10.667 2 18.832 8.33496 24.499 19.002s9.33398 20.167 11.001 28.5s2.5 16.166 2.5 23.499c-16.667 -10 -29.667 -19.333 -39 -28s-14 -17.334 -14 -26.001c0 -11.333 5 -17 15 -17z" />
    <glyph glyph-name="st" unicode="st" horiz-adv-x="458" 
d="M-14 52c-6.66699 0 -13.6709 2.33301 -21.0039 7c-10.667 8 -16 17.667 -16 29c0 14.667 6 29 18 43c16 16 34.333 29.333 55 40c0 15.333 -0.333008 27 -1 35s-1 16 -1 24v24c0 18 4.5 34 13.5 48s21.833 21.333 38.5 22c16.667 -1.33301 26 -10 28 -26
c0 -6 -3 -9 -9 -9l-4 1c-4.66699 2.66699 -8.66699 4 -12 4c-2 0 -5 -0.5 -9 -1.5s-7.33301 -4.83301 -10 -11.5c-4.66699 -12.667 -7 -26.334 -7 -41.001l1 -14c0.666992 -2 1 -9.66699 1 -23c0.666992 -5.33301 1 -11 1 -17l8 4c70.667 30.667 136 69.334 196 116.001
c30.667 42.667 68.667 90 114 142h-2c0 -0.666992 -0.333008 -1 -1 -1c-53.333 -6.66699 -102 -16.334 -146 -29.001h-2c-7.33301 -2.66699 -14.666 -4.66699 -21.999 -6l-3 -1c-3.33301 -1.33301 -6.66602 -2 -9.99902 -2s-6.33301 1 -9 3s-4 5 -4 9v3
c6 9.33301 21.333 14 46 14l49 8c66.667 9.33301 105 14 115 14c18.667 25.333 42 48.666 70 69.999c2 1.33301 3.66699 2 5 2c8 -1.33301 12 -5.66602 12 -12.999l-1 -5c-12 -17.333 -25.667 -34 -41 -50l41 3c25.333 2 45.666 3 60.999 3l20 1c14 0 21.167 -0.5 21.5 -1.5
s0.5 -1.83301 0.5 -2.5c0 -3.33301 -9.33301 -5 -28 -5h-26c-16 -1.33301 -32.167 -2.5 -48.5 -3.5s-32.833 -2.5 -49.5 -4.5c-24.667 -32.667 -51.667 -63.667 -81 -93l-4 -5c-66 -76.667 -106.667 -149 -122 -217c-1.33301 -6 -2 -12.333 -2 -19
c0 -4.66699 0.5 -11.167 1.5 -19.5s7.16699 -15.166 18.5 -20.499c5.33301 -1.33301 11 -2 17 -2c14.667 0 32.667 6.33301 54 19c54.667 27.333 102.667 66.666 144 117.999c12.667 14.667 25.667 29 39 43c2.66699 2 5.33398 3 8.00098 3
c4.66699 -0.666992 7 -2.66699 7 -6c0 -1.33301 -0.666992 -2.66602 -2 -3.99902l-39 -42c-55.333 -65.333 -113.666 -111 -174.999 -137c-15.333 -6.66699 -28.666 -10 -39.999 -10c-12 0 -23 3.66699 -33 11c-16 16 -24 34.667 -24 56c0 32 7.66699 64 23 96
c7.33301 16 15.666 31.667 24.999 47c-47.333 -34.667 -100 -64.667 -158 -90l-23 -11v-9c0 -46 -14.667 -79.667 -44 -101c-7.33301 -6 -14.666 -9 -21.999 -9zM-22.0039 70c6 0 12.332 4.33203 18.999 12.999c16 19.333 24.333 43.333 25 72
c-18.667 -9.33301 -34.667 -21.666 -48 -36.999c-8 -8.66699 -12 -18 -12 -28c0 -6 2.66699 -11.333 8 -16c2.66699 -2.66699 5.33398 -4 8.00098 -4z" />
    <glyph glyph-name="ts" unicode="ts" horiz-adv-x="526" 
d="M293 58l-10.9971 -0.00195312c-6 0.666992 -12.667 6.33398 -20 17.001c-4 6.66699 -6 13.667 -6 21c0 4 1.16699 9.83301 3.5 17.5s7.16602 15.834 14.499 24.501c24 28 52.667 47.333 86 58c1.33301 18 2 35.667 2 53c0 10.667 0.666992 27.334 2 50.001
c-42.667 -43.333 -88.334 -84 -137.001 -122c-42 -31.333 -72 -52.333 -90 -63c-42 -30.667 -77 -46 -105 -46h-14c-7.33301 0.666992 -15.833 6.5 -25.5 17.5s-15.167 23.833 -16.5 38.5c0 42.667 14.667 88 44 136c33.333 56 67 104.667 101 146l-13 -1
c-58.667 -6 -117.334 -14.333 -176.001 -25c-6.66699 -2.66699 -16.667 -4.66699 -30 -6l-2 -1h-12c-2.66699 0 -5.16699 1.16699 -7.5 3.5s-3.5 4.5 -3.5 6.5c0 10 9.33301 15.333 28 16l23 3l37 3c56 6 112 11.333 168 16l4 5c15.333 18 27.666 31.667 36.999 41
c10.667 12 22.667 22 36 30l5 1c4.66699 0 8 -1.33301 10 -4s3 -5 3 -7s-0.666992 -4 -2 -6c-7.33301 -12 -16 -22.667 -26 -32l-9 -9l-14 -16c82.667 5.33301 146 8 190 8c75.333 0 113.666 -2 114.999 -6c0.666992 -0.666992 1 -1.66699 1 -3c0 -4 -2 -6 -6 -6l-134 1
c-59.333 -1.33301 -119 -4 -179 -8l-3 -5c-16 -16 -38.667 -45 -68 -87c-37.333 -50.667 -65.666 -105.667 -84.999 -165c-2.66699 -9.33301 -4 -19.333 -4 -30v-7c0 -13.333 6.33301 -23 19 -29c5.33301 -2 11 -3 17 -3c14 0 33.333 7 58 21c104 60 193.667 131 269 213
c1.33301 7.33301 4.66602 14.166 9.99902 20.499s12 9.5 20 9.5c1.33301 0 4.83301 -0.333008 10.5 -1s9.83398 -6.66699 12.501 -18c0 -6 -2.66699 -10.333 -8 -13h-6l-3 3c-2 1.33301 -3 2.33301 -3 3v1c-2.66699 -2.66699 -4 -7.33398 -4 -14.001l-1 -2
c-1.33301 -16 -2 -35 -2 -57l-1 -44l43 12c42.667 8 82.334 22 119.001 42l4 1c3.33301 0 5 -2 5 -6v-1c0 -1.33301 -1 -2.66602 -3 -3.99902c-36.667 -20.667 -75.667 -35.667 -117 -45l-40 -11c-2 -1.33301 -4.16699 -2.33301 -6.5 -3s-4.5 -1.33398 -6.5 -2.00098v-5
c-6.66699 -57.333 -29 -96.666 -67 -117.999c-9.33301 -5.33301 -19.333 -8 -30 -8zM289.003 77.998c3.33301 0 7 0.998047 11 2.99805c18 10.667 31.5 24.834 40.5 42.501s14.833 35.5 17.5 53.5c-28.667 -11.333 -52.334 -28.666 -71.001 -51.999
c-4 -4.66699 -7 -9.5 -9 -14.5s-3 -9.83301 -3 -14.5v-4c2.66699 -9.33301 7.33398 -14 14.001 -14z" />
    <glyph glyph-name="t_t" unicode="tt" horiz-adv-x="387" 
d="M199 -9l-1.99609 0.000976562c-4 0 -6 2 -6 6v2c19.333 97.333 54.333 192.666 105 285.999l-49 -60c-46 -62.667 -98.333 -119 -157 -169c-16.667 -13.333 -34.667 -25.666 -54 -36.999c-14.667 -7.33301 -28 -11 -40 -11c-6.66699 0 -13.667 1.66699 -21 5
c-18 12 -27 28 -27 48c0 2 0.333008 9 1 21s5 27.667 13 47c41.333 110 92.666 210 153.999 300c-48 -8 -107.333 -20.667 -178 -38c-25.333 -6.66699 -39.666 -10 -42.999 -10s-6 1.33301 -8 4s-3 5.66699 -3 9c0 1.33301 0.166992 3.16602 0.5 5.49902
s3.16602 4.16602 8.49902 5.49902c72 17.333 150.333 31 235 41c36 54 76 104.333 120 151c3.33301 3.33301 6.66602 5 9.99902 5c8.66699 -1.33301 13 -6 13 -14c0 -3.33301 -1 -6.66602 -3 -9.99902c-34.667 -41.333 -67.334 -83.666 -98.001 -126.999
c82 9.33301 164.333 15 247 17c18 24 37.333 46.333 58 67c3.33301 6.66699 11.333 13.334 24 20.001l5 1c1.33301 0 2.83301 -0.333008 4.5 -1s3.16699 -1.83398 4.5 -3.50098s2 -3.5 2 -5.5v-3c-5.33301 -10.667 -12.333 -20.334 -21 -29.001l-22 -27
c-2.66699 -2.66699 -5.16699 -5.66699 -7.5 -9s-4.83301 -6.33301 -7.5 -9h15c101.333 0 202.333 -6.33301 303 -19c3.33301 0 5 -1.66699 5 -5c0 -2.66699 -1.66699 -4 -5 -4c-100.667 11.333 -198.334 17 -293.001 17h-33l-8 -9l-11 -15
c-91.333 -119.333 -166.666 -265.333 -225.999 -438c-0.666992 -3.33301 -2.33398 -5 -5.00098 -5zM1.00391 28.001c6.66699 0 14.999 2.33301 24.999 7c37.333 20 70.833 44.667 100.5 74s57.834 60 84.501 92c63.333 76 98.333 117.333 105 124c3.33301 4.66699 7 9 11 13
c19.333 35.333 46.666 75 81.999 119c-89.333 -2 -172.666 -9 -249.999 -21c-68.667 -95.333 -126.667 -204.666 -174 -327.999l-2 -6c-7.33301 -16 -11 -29.333 -11 -40c0 -4.66699 0.666992 -9.33398 2 -14.001c4.66699 -13.333 13.667 -20 27 -20z" />
    <glyph glyph-name="um" unicode="um" horiz-adv-x="788" 
d="M113 117c-16 0 -27.666 7.66504 -34.999 22.998c-2 6 -3 12 -3 18c0 8.66699 1.33301 18 4 28c0 -0.666992 -0.333008 -1.16699 -1 -1.5s-1.33398 -1.16602 -2.00098 -2.49902c-19.333 -17.333 -40 -33 -62 -47l-2 -1c-12.667 -8 -23.667 -12 -33 -12
c-14 2.66699 -21.333 11.334 -22 26.001c0 16 10 40 30 72c16.667 28.667 35 48 55 58l5 1c2.66699 0 5.16699 -1 7.5 -3s3.5 -4.33301 3.5 -7c0 -6 -5.83301 -16 -17.5 -30s-22.5 -28.333 -32.5 -43c-6 -10.667 -11.333 -21.667 -16 -33l-2 -4
c-4.66699 -5.33301 -7 -10.666 -7 -15.999c0.666992 -2 3 -3 7 -3c2.66699 0 5.66699 0.666992 9 2c26.667 12 50.667 28.333 72 49c8 8 13 12.667 15 14c10 29.333 27.333 51.666 52 66.999l5 1c6 0 9 -3 9 -9c0 -4.66699 -5.66699 -15.667 -17 -33
c-19.333 -28 -29 -52.333 -29 -73v-4c0 -11.333 6 -17 18 -17c7.33301 0 16 2.66699 26 8c9.33301 4.66699 18.666 10 27.999 16c28 17.333 61.667 46.666 101 87.999c14 14.667 28.667 29 44 43c18.667 18.667 33.667 29 45 31c1.33301 0 2.33301 -0.333008 3 -1
c5.33301 -1.33301 8.83301 -4.5 10.5 -9.5s2.5 -9.83301 2.5 -14.5c-1.33301 -10 -4.66602 -19.667 -9.99902 -29c0 -3.33301 -11.667 -27 -35 -71l-5 -10c24.667 26 60.334 57.667 107.001 95l15 12c13.333 13.333 24.666 20 33.999 20c12.667 0 19 -5.33301 19 -16
c-4 -14.667 -9.33301 -28.667 -16 -42l-25 -53c-8 -16 -13 -25.333 -15 -28s-3 -4.66699 -3 -6c0 -0.666992 0.333008 -1 1 -1h2c2.66699 0.666992 5 1.83398 7 3.50098l24 19.5l88 74c10 8.66699 20.667 17 32 25c2.66699 2.66699 5.83398 5 9.50098 7
s7.16699 4.33301 10.5 7c9.33301 6.66699 16.666 10 21.999 10s9.66602 -1.66699 12.999 -5s5 -7.66602 5 -12.999c0 -6.66699 -3 -16 -9 -28l-1 -3c-5.33301 -13.333 -11.666 -26.333 -18.999 -39v-1c-6 -10.667 -11.333 -21.667 -16 -33v-1
c-5.33301 -12 -8 -21.667 -8 -29c0 -14 7.66699 -21 23 -21c11.333 0 27.333 5.66699 48 17c50.667 25.333 95 59 133 101c0.666992 0.666992 2.66699 1 6 1c1.33301 -0.666992 2.33301 -1.66699 3 -3c0 -2 -0.666992 -4 -2 -6c-14 -11.333 -27.667 -23.333 -41 -36
s-27 -24.667 -41 -36c-24 -20 -50 -36.333 -78 -49c-12 -5.33301 -24.667 -8 -38 -8h-14c-8 0 -16 7.33301 -24 22c-3.33301 7.33301 -5 15 -5 23c0 15.333 7.33301 37 22 65c7.33301 12 14.333 25.333 21 40l8 20c-12.667 -6.66699 -23.834 -14 -33.501 -22l-30.5 -25
c-10.667 -8.66699 -27.334 -23.334 -50.001 -44.001c-16.667 -15.333 -33.667 -30 -51 -44c-4.66699 -4 -10.667 -6.66699 -18 -8c-7.33301 0 -13.166 2.16699 -17.499 6.5s-6.5 9.16602 -6.5 14.499c0 9.33301 3 19.333 9 30c0 4.66699 6.33301 19 19 43l9 20
c4.66699 10 9.66699 19.667 15 29c-3.33301 -1.33301 -6.33301 -3.33301 -9 -6l-2 -1c-17.333 -11.333 -43.666 -32.666 -78.999 -63.999c-28 -26 -54.333 -52.667 -79 -80c-2.66699 -3.33301 -5.33398 -7 -8.00098 -11s-6 -6 -10 -6c-6.66699 0 -11.667 2 -15 6
c-1.33301 2 -2 4.33301 -2 7c0 5.33301 9.33301 24 28 56c13.333 23.333 31 57 53 101c2.66699 3.33301 4.33398 7 5.00098 11c-6.66699 -2.66699 -13.667 -7.66699 -21 -15l-4 -3c-31.333 -28 -52 -47 -62 -57c-46 -46 -83.333 -78.333 -112 -97
c-14 -10 -29.667 -15.667 -47 -17z" />
    <glyph glyph-name="un" unicode="un" horiz-adv-x="631" 
d="M293 105l-5.00293 0.00683594c-2.66699 0.666992 -5 2.5 -7 5.5s-3 6.16699 -3 9.5l1 6c13.333 28 26.333 53.667 39 77l20 41c2 4.66699 4.33301 9 7 13c4 7.33301 7.66699 15 11 23l3 11c0 3.33301 -2.66699 5 -8 5c-30.667 -4 -70.334 -30.333 -119.001 -79
c-32 -30.667 -57.333 -51.334 -76 -62.001c-12.667 -8 -25 -12 -37 -12c-11.333 0 -19.333 7.33301 -24 22c-1.33301 6 -2 12.333 -2 19c0 8.66699 1.33301 17.667 4 27c-32 -34.667 -59 -58.667 -81 -72c-5.33301 -2.66699 -11 -4.33398 -17 -5.00098
c-1.33301 -0.666992 -3 -1 -5 -1c-3.33301 0 -7 1.33301 -11 4c-8 5.33301 -12 14.333 -12 27c0 9.33301 3.66699 21.333 11 36v1c9.33301 21.333 22.333 41.666 39 60.999l1 1c8.66699 12 18.334 18.667 29.001 20c2 0 4 -1 6 -3s3 -4.33301 3 -7
c0 -6 -4.33301 -14.333 -13 -25c-2 -1.33301 -3.66699 -3 -5 -5c-19.333 -25.333 -33 -51.333 -41 -78v-6l-1 -4c1.33301 -0.666992 3 -1 5 -1c4.66699 0 9.33398 1.33301 14.001 4c24 16 52.667 40.667 86 74c9.33301 24 22 37.667 38 41c3.33301 0 5.83301 -0.5 7.5 -1.5
s2.5 -2.83301 2.5 -5.5c-2 -10.667 -6.66699 -21.334 -14 -32.001c-11.333 -20 -17 -41.333 -17 -64c0 -4.66699 1.66699 -8 5 -10c7.33301 0 13 1.33301 17 4l1 1c28 15.333 53.667 34.666 77 57.999c34.667 34.667 70.334 61.667 107.001 81h1l15 6.5
c5.33301 2.33301 10.666 3.5 15.999 3.5c6.66699 0 12.5 -2.83301 17.5 -8.5s7.5 -11.834 7.5 -18.501c0 -8.66699 -3.66699 -19.667 -11 -33l-2 -5l-16 -35c20 24.667 42.333 47.334 67 68.001c16.667 13.333 30 20 40 20c4 0 7.66699 -0.666992 11 -2
c9.33301 -4.66699 14.333 -12.334 15 -23.001v-8c0 -14 -2.83301 -31.333 -8.5 -52s-8.5 -38.667 -8.5 -54c0 -5.33301 1.33301 -9.83301 4 -13.5s6.33398 -5.83398 11.001 -6.50098h13c22.667 5.33301 43.334 14.333 62.001 27c34 22.667 63.667 50.334 89 83.001l5.5 5.5
c1.66699 1.66699 3.83398 2.5 6.50098 2.5l2 -4c0 -2.66699 -0.333008 -4.66699 -1 -6c-64 -69.333 -116 -112 -156 -128c-6.66699 -2 -13 -3 -19 -3c-12.667 0 -24.334 5.33301 -35.001 16c-7.33301 8.66699 -11 18.667 -11 30v8c0 15.333 3 34.166 9 56.499
s9 36.833 9 43.5c0 6 -0.666992 9.33301 -2 10s-2.66602 1 -3.99902 1l-4 -1c-10.667 -2.66699 -20.334 -8 -29.001 -16c-28 -24 -57 -57.333 -87 -100l-6 -9c-8 -16 -16.667 -31.667 -26 -47c-3.33301 -4.66699 -7 -7 -11 -7z" />
    <glyph glyph-name="us" unicode="us" horiz-adv-x="492" 
d="M269 58l-12.0049 1.00684c-14 4.66699 -21 14 -21 28v4c5.33301 27.333 30 50.666 74 69.999l-1 20v26l-2 -2c-30 -26 -63.667 -46 -101 -60c-16.667 -6 -33.334 -9 -50.001 -9c-1.33301 0 -7.16602 0.166992 -17.499 0.5s-21.166 9.16602 -32.499 26.499
c-6.66699 12 -10 23.667 -10 35l1 9l-25 -26c-16 -16.667 -34.667 -30.334 -56 -41.001c-5.33301 -2.66699 -11 -4 -17 -4s-11.667 2.66699 -17 8s-8 12.666 -8 21.999c0 4.66699 0.666992 9.33398 2 14.001c4.66699 22 13.667 42.333 27 61c9.33301 14 21 27 35 39
c6.66699 5.33301 12.334 8 17.001 8s7.83398 -1.33301 9.50098 -4s2.5 -5 2.5 -7c0 -6.66699 -5.33301 -15.334 -16 -26.001c-3.33301 -2.66699 -6 -5.66699 -8 -9c-7.33301 -8 -14 -16.667 -20 -26c-8 -14.667 -14.667 -30.334 -20 -47.001v-1
c-1.33301 -1.33301 -2 -4 -2 -8c0 -2 1.33301 -3 4 -3c2 0 6.66699 1.66699 14 5c6 2.66699 11.667 6 17 10c10.667 6.66699 20.667 14 30 22l38 35c7.33301 15.333 17.333 28.666 30 39.999c2.66699 2 5.33398 3 8.00098 3c0.666992 0 2 -0.166992 4 -0.5
s3.83301 -1.66602 5.5 -3.99902s2.5 -4.5 2.5 -6.5s-0.666992 -3.83301 -2 -5.5s-2.33301 -3.16699 -3 -4.5c-11.333 -16 -18.666 -33.333 -21.999 -52v-4c0 -30 14 -45 42 -45c13.333 0 28.333 3.33301 45 10c33.333 12.667 65 32.334 95 59.001
c0 23.333 3.33301 44.666 10 63.999c8.66699 26.667 23.667 45.334 45 56.001c5.33301 2.66699 11 4 17 4s10.5 -2.33301 13.5 -7s4.5 -9 4.5 -13c0 -8.66699 -3.66699 -18.334 -11 -29.001c-12.667 -22 -28.667 -42 -48 -60v-60l41 16c50 16 96 39 138 69
c2 1.33301 3.66699 2 5 2c0.666992 0 2 -0.5 4 -1.5s3 -2.83301 3 -5.5c0 -2 -0.666992 -3.66699 -2 -5c-36.667 -27.333 -76.334 -49 -119.001 -65c-19.333 -6.66699 -43 -15.334 -71 -26.001c-1.33301 -40.667 -13.666 -70.334 -36.999 -89.001
c-10.667 -7.33301 -21.667 -11 -33 -11zM341.995 247.007c15.333 14 27.333 29 36 45c4.66699 10.667 7 18 7 22l-2 7c-0.666992 0 -1.16699 -0.333008 -1.5 -1s-0.666016 -1.16699 -0.999023 -1.5s-1.83301 -1.5 -4.5 -3.5s-5.33398 -4.33301 -8.00098 -7
c-15.333 -20 -24 -40.333 -26 -61zM265.995 71.0068c3.33301 0 6.66699 0.666992 10 2c9.33301 4 16.666 10.667 21.999 20c8 14.667 12 31 12 49v4c-9.33301 -4.66699 -18.166 -9.5 -26.499 -14.5s-16.833 -12.167 -25.5 -21.5c-6.66699 -6.66699 -10 -13.667 -10 -21
c0 -12 6 -18 18 -18z" />
    <glyph glyph-name="utt" unicode="utt" horiz-adv-x="613" 
d="M434 -60l-2.00684 0.00390625c-1.33301 0 -2.5 0.333008 -3.5 1s-1.5 1.66699 -1.5 3v1c5.33301 82 26.333 164.333 63 247l-45 -53c-47.333 -54.667 -96.333 -96.667 -147 -126c-17.333 -10 -31.666 -15 -42.999 -15c-4 0 -7.66699 0.333008 -11 1
c-21.333 5.33301 -32 22 -32 50c0 15.333 2.33301 32.333 7 51c10.667 46 27 90 49 132l29 58l-12 -16c-27.333 -38.667 -58 -74.334 -92 -107.001c-8.66699 -8.66699 -20 -17.667 -34 -27c-18.667 -12.667 -35 -19 -49 -19c-12 0 -22.333 5.33301 -31 16
c-8 12 -12 25.333 -12 40c0 10 1.66699 20.667 5 32l-18 -22c-26 -30.667 -46 -52.667 -60 -66l-5 -4c-10 -10 -18 -15 -24 -15c-2.66699 0 -5 0.333008 -7 1c-8.66699 4 -13 9.66699 -13 17c0 8 1.33301 15.667 4 23c22.667 53.333 52.667 98.333 90 135c2 2 4 3 6 3
c0.666992 0 2.83398 -0.5 6.50098 -1.5s5.5 -3.83301 5.5 -8.5c0 -3.33301 -8 -17.166 -24 -41.499s-31 -49.833 -45 -76.5l-10 -19c-0.666992 -0.666992 -1.33398 -1.83398 -2.00098 -3.50098s-1.66699 -3.16699 -3 -4.5c4.66699 1.33301 9.66699 5 15 11
c14.667 12.667 28.334 27 41.001 43l41 48l12 15c3.33301 8 7.66602 15 12.999 21v1h1c2.66699 2.66699 5.33398 4 8.00098 4c6.66699 0 10 -3.66699 10 -11c0 -6.66699 -2 -16.667 -6 -30c-7.33301 -24.667 -11 -42.334 -11 -53.001
c0 -4.66699 0.833008 -10.334 2.5 -17.001s7.83398 -10.667 18.501 -12c38.667 2.66699 97.334 58 176.001 166l16.5 20.5c5.66699 7 11 14 16 21s10.167 13.833 15.5 20.5c12.667 22 26 43.667 40 65c-58.667 -8 -116 -18.333 -172 -31
c-17.333 -3.33301 -38.333 -8.66602 -63 -15.999c-3.33301 0 -6.33301 0.333008 -9 1s-5.16699 1.66699 -7.5 3s-3.5 2.66602 -3.5 3.99902c0 2 0.666992 3.66699 2 5c4.66699 6 11.334 9.66699 20.001 11c4.66699 0 12 1 22 3c26 3.33301 52 7.66602 78 12.999
c78 12.667 125.333 20 142 22c2 2.66699 4.16699 6.16699 6.5 10.5s5.16602 8.83301 8.49902 13.5c20.667 31.333 35.334 52 44.001 62c12.667 16 27.667 29 45 39l4 1c3.33301 0 6 -1 8 -3s3 -3.66699 3 -5l-2 -5c-27.333 -35.333 -53.333 -71.666 -78 -108.999
c78.667 9.33301 157.667 14.666 237 15.999c2 2 3.83301 4.16699 5.5 6.5l5 7c1.66699 2.33301 3.83398 4.83301 6.50098 7.5c10.667 16 24 29 40 39l4 1c6 0 9 -3 9 -9v-2c-6.66699 -17.333 -17 -33.333 -31 -48c0 -0.666992 -0.333008 -1 -1 -1c94.667 0 189 -5 283 -15
c4 -1.33301 6 -3.33301 6 -6c0 -5.33301 -2 -8 -6 -8c-63.333 7.33301 -126.666 12.333 -189.999 15c-34 0.666992 -68.333 1 -103 1l-41 -55c-109.333 -148 -181.333 -302.333 -216 -463c-0.666992 -2 -2 -3.33301 -4 -4zM254.993 20.0039c8 0 18.001 3.33301 30.001 10
c36 19.333 68.667 43 98 71c50.667 48 97 99.667 139 155l41 73c23.333 36.667 48.333 72.667 75 108l19 24c-94.667 -2 -173.334 -7.66699 -236.001 -17c-25.333 -39.333 -49.333 -80 -72 -122c-21.333 -38 -41.333 -77 -60 -117l-4 -9c-18 -36 -32.333 -73 -43 -111l-1 -4
c-4 -12 -6 -23.667 -6 -35c0 -17.333 6.66699 -26 20 -26z" />
    <glyph glyph-name="yl" unicode="yl" horiz-adv-x="556" 
d="M-92 -227c-6 0 -12.3359 1.33594 -19.0029 4.00293c-14.667 10 -22 24.333 -22 43c0 0.666992 0.166992 6 0.5 16s3.83301 22.333 10.5 37c32 86 116 170.667 252 254c19.333 45.333 36.666 91 51.999 137c-11.333 -10 -18.333 -17 -21 -21l-41 -38
c-24.667 -23.333 -51.334 -44.333 -80.001 -63c-1.33301 -1.33301 -3 -2.33301 -5 -3c-5.33301 -4 -10.666 -7.33301 -15.999 -10s-10 -4 -14 -4c-10 0 -17 3.5 -21 10.5s-6 14.5 -6 22.5c0 12.667 2.66699 24.667 8 36c6 16.667 13.333 32.334 22 47.001
c16 29.333 35.667 55.666 59 78.999c3.33301 3.33301 6.33301 5 9 5c1.33301 0 3 -0.5 5 -1.5s3.5 -2.83301 4.5 -5.5s1.5 -4.66699 1.5 -6c0 -2.66699 -1 -5.33398 -3 -8.00098c-29.333 -36.667 -52.666 -76.667 -69.999 -120c-6 -12 -9.33301 -22 -10 -30v-1
c0 -2 0.166992 -3.33301 0.5 -4s1.5 -1 3.5 -1c3.33301 0 9 2 17 6c0.666992 0.666992 1.66699 1 3 1c34 18 68.667 44 104 78l32 30c6.66699 6.66699 12.667 13.667 18 21c10.667 13.333 17.334 20 20.001 20c4 0 7 -1.16699 9 -3.5s3 -4.83301 3 -7.5
s-0.666992 -5.33398 -2 -8.00098c-4.66699 -22 -10.5 -43.833 -17.5 -65.5s-14.5 -43.167 -22.5 -64.5l153 103c0.666992 2.66699 3 8 7 16c22 44.667 46.333 87.167 73 127.5s55 78.5 85 114.5s65.333 64.667 106 86c8 4 16.667 6.33301 26 7
c8.66699 0 15.667 -3.33301 21 -10c2.66699 -5.33301 4 -11 4 -17c0 -9.33301 -3.66699 -22.333 -11 -39l-3 -5c-20 -42 -47 -79.333 -81 -112c-53.333 -54.667 -116.666 -108.334 -189.999 -161.001c-24 -47.333 -42 -96.666 -54 -147.999
c-1.33301 -6.66699 -2 -14.334 -2 -23.001s2.33301 -15.167 7 -19.5s9.33398 -6.5 14.001 -6.5c6 0 12.333 1.33301 19 4c10.667 3.33301 21 7.33301 31 12c40.667 20 77.5 45.667 110.5 77s64.167 63.666 93.5 96.999c0.666992 0.666992 1.5 1.66699 2.5 3s2.5 2 4.5 2
l3 -1c2 -1.33301 3 -3.66602 3 -6.99902s-2.66699 -7 -8 -11c-12.667 -14.667 -25.667 -29 -39 -43c-51.333 -56.667 -104.333 -99.667 -159 -129l-6 -3c-22.667 -14 -42 -21 -58 -21c-22 2 -35.333 12.667 -40 32c-2 10 -3 19.667 -3 29s1 18.333 3 27
c6 32 15.667 63.333 29 94l-151 -101c-24.667 -61.333 -53.667 -121 -87 -179c-46 -86 -88 -140.333 -126 -163c-15.333 -9.33301 -29 -14 -41 -14zM378.997 298.003c2.66699 1.33301 4.66699 2.50098 6 3.50098s2.33301 1.83301 3 2.5c92 69.333 160.667 134 206 194
c14 18 24.667 38.333 32 61l1 2c2.66699 7.33301 4 13.666 4 18.999v7c0 3.33301 -3 5 -9 5c-5.33301 0 -11.666 -2.66699 -18.999 -8c-38.667 -25.333 -71.334 -56.333 -98.001 -93c-43.333 -56 -85.333 -120.333 -126 -193zM-94.0029 -204.996
c6 0 11.667 1.66406 17 4.99707c29.333 18.667 55.333 46.334 78 83.001c47.333 74.667 86.333 147 117 217c-52.667 -35.333 -98 -70.333 -136 -105c-32.667 -29.333 -59 -63.666 -79 -102.999c-9.33301 -18 -15.333 -37.333 -18 -58v-5c0 -21.333 7 -32.666 21 -33.999z
" />
    <glyph glyph-name="ys" unicode="ys" horiz-adv-x="492" 
d="M-89 -189c-19.333 0 -33 8.66895 -41 26.002c-2 6.66699 -3 13.667 -3 21c0 9.33301 2 19 6 29c10.667 30.667 32 65 64 103c56.667 63.333 121.334 117.666 194.001 162.999c2 4 3 6.66699 3 8c9.33301 20.667 18 41.667 26 63l11 29l-15 -15
c-24.667 -26 -52 -50.333 -82 -73l-29 -24c-12.667 -10 -23 -15 -31 -15l-9 1c-14.667 5.33301 -22 16.666 -22 33.999c0 15.333 6.33301 36.666 19 63.999l3 6c13.333 28 30.666 53.333 51.999 76c2.66699 2 5 3 7 3c0.666992 0 2 -0.333008 4 -1s3.66699 -2 5 -4
s2 -4 2 -6l-1 -5c-17.333 -28 -33 -57 -47 -87l-2 -5c-8.66699 -18.667 -13 -32.667 -13 -42c0 -2 0.666992 -4 2 -6s2.66602 -3 3.99902 -3l10 1c10 4 24.333 13 43 27c25.333 18 51 39.333 77 64c16.667 16.667 27.667 29 33 37c0.666992 2.66699 2 5.33398 4 8.00098v-1
c2 3.33301 4.33301 5 7 5c1.33301 0 3.33301 -0.333008 6 -1s4 -5.33398 4 -14.001c0 -11.333 -1.66699 -22.333 -5 -33c-0.666992 -0.666992 -1 -1.66699 -1 -3c-2.66699 -12 -8.66699 -30 -18 -54l-2 -5c8 4.66699 15.667 9.66699 23 15l62 39
c39.333 24.667 75.666 53.334 108.999 86.001c4 6 8.33301 9 13 9s8.33398 -2 11.001 -6c1.33301 -1.33301 2 -3 2 -5s-0.666992 -4.33301 -2 -7c-8 -13.333 -12.667 -27.333 -14 -42v-44l1 -14c2.66699 0 5.16699 0.333008 7.5 1s5.5 1.33398 9.5 2.00098
c21.333 4 42.666 9.16699 63.999 15.5s40.666 16.166 57.999 29.499l5 1c4 0 6.33301 -1.66699 7 -5c0 -2.66699 -1.33301 -5 -4 -7c-40 -23.333 -83.333 -39 -130 -47l-17 -3c0 -36.667 -12.667 -66 -38 -88c-17.333 -15.333 -37.666 -23 -60.999 -23
c-22.667 0 -38 7.66699 -46 23c-2.66699 6 -4 11.333 -4 16c0 14.667 8 28 24 40c28.667 19.333 60.334 32.333 95.001 39l-1 44c0 10.667 0.666992 21.334 2 32.001c-8 -6 -16.333 -11.667 -25 -17c-25.333 -18 -79 -53.667 -161 -107l-3 -8l-11 -26
c-20 -46 -41.667 -91 -65 -135c-20.667 -38.667 -45 -74.667 -73 -108c-37.333 -44.667 -71.666 -68.334 -102.999 -71.001zM274 108.002c10 0 20 2.99902 30 8.99902c16.667 10 29.667 23.667 39 41c5.33301 11.333 8 23 8 35
c-25.333 -5.33301 -49.666 -14.666 -72.999 -27.999c-5.33301 -2.66699 -11 -6.66699 -17 -12c-9.33301 -8.66699 -14 -17 -14 -25c0 -4.66699 2.66699 -9.16699 8 -13.5s11.666 -6.5 18.999 -6.5zM-91 -167.999c9.33301 0 20.332 5.66895 32.999 17.002
c50.667 44 97 109.333 139 196l36 76l3 6c-63.333 -40.667 -119.666 -89.334 -168.999 -146.001c-13.333 -16 -25.333 -32.667 -36 -50c-19.333 -26 -29 -51 -29 -75c0 -6.66699 2.33301 -12.334 7 -17.001s10 -7 16 -7z" />
    <glyph glyph-name=".notdef" horiz-adv-x="500" 
d="M450 0h-400v533h400v-533zM400 50v433h-300v-433h300z" />
    <glyph glyph-name="space" unicode=" " horiz-adv-x="230" 
 />
    <glyph glyph-name="space" horiz-adv-x="230" 
 />
    <glyph glyph-name="exclam" unicode="!" horiz-adv-x="156" 
d="M59 145h-3.00098c-4 0 -6 2.66699 -6 8c26 102 67.333 197.667 124 287c18 28.667 38 56 60 82c20.667 26.667 43.667 50.667 69 72c2 1.33301 4.33301 2 7 2s5 -0.333008 7 -1c5.33301 -3.33301 8 -7.66602 8 -12.999c0 -6 -8.66699 -17.667 -26 -35
c-12 -10.667 -29.333 -29.334 -52 -56.001c-87.333 -104 -148.666 -218 -183.999 -342c-0.666992 -2.66699 -2 -4 -4 -4zM25.999 59l-3.00293 -0.00195312c-3.33301 0 -6.16602 0.833008 -8.49902 2.5s-3.5 3.83398 -3.5 6.50098h-1c0 5.33301 0.666992 8.66602 2 9.99902v1
l1 1c0 0.666992 0.333008 1 1 1c1.33301 2.66699 5 4 11 4c2.66699 0 5.33398 -1 8.00098 -3c0 -0.666992 0.166992 -1.16699 0.5 -1.5s1 -1.16602 2 -2.49902s1.5 -3.66602 1.5 -6.99902c-0.666992 -3.33301 -2 -5.33301 -4 -6
c-1.33301 -2.66699 -3.66602 -4.66699 -6.99902 -6zM31.9961 61.998h-1h1zM29.9961 60.998l1 1zM29.9961 60.998z" />
    <glyph glyph-name="quotedbl" unicode="&#x22;" horiz-adv-x="242" 
d="M66 329l-3.00391 0.000976562c-1.33301 0 -2.83301 0.333008 -4.5 1s-3 2 -4 4s-1.5 3.66699 -1.5 5v3c4.66699 19.333 11.334 38 20.001 56c6 13.333 14 26 24 38l1 2c4.66699 7.33301 10.334 11 17.001 11c4.66699 0 8.33398 -1.33301 11.001 -4s4 -5.66699 4 -9
c0 -4.66699 -2.33301 -9.66699 -7 -15l-20 -30c-9.33301 -12.667 -19.666 -31.667 -30.999 -57c-1.33301 -2.66699 -3.33301 -4.33398 -6 -5.00098zM136.996 321.001c-1.33301 0 -3.5 0.333984 -6.5 1.00098s-5.16699 3.66699 -6.5 9c0 15.333 11 46.666 33 93.999
c3.33301 9.33301 9.33301 16.333 18 21c2.66699 1.33301 5.66699 2 9 2c4.66699 0 8.66699 -2.33301 12 -7l1 -8c0 -6 -2.33301 -10.333 -7 -13l-2 -1v-1h-1l-15 -34l-4 -8l-15 -39c-2.66699 -10.667 -8 -16 -16 -16z" />
    <glyph glyph-name="numbersign" unicode="#" horiz-adv-x="628" 
d="M292 76c-4 0 -6.66992 0.670898 -8.00293 2.00391s-2 4 -2 8c8.66699 29.333 18.667 58 30 86c6 18.667 16.333 45 31 79l-63 1c-30.667 -0.666992 -61 -2.66699 -91 -6c-21.333 -51.333 -38.333 -104 -51 -158c-1.33301 -4 -4 -6 -8 -6c-6.66699 0 -10 3.66699 -10 11
c6.66699 42 20.334 91.667 41.001 149c-16 -2.66699 -32 -6 -48 -10c-29.333 -7.33301 -48.333 -11.666 -57 -12.999c-7.33301 0 -11 3.33301 -11 10c0 11.333 18.667 18.333 56 21l66 7c11.333 29.333 24.333 58.333 39 87c-14.667 -2 -29.334 -4.33301 -44.001 -7
s-38.334 -8.33398 -71.001 -17.001c-18.667 -5.33301 -29.334 -8 -32.001 -8s-4.83398 1 -6.50098 3s-2.5 6 -2.5 12c0.666992 2 3 4 7 6c18.667 7.33301 38.334 12 59.001 14h1c36 5.33301 68.333 9.33301 97 12c14 25.333 29 50 45 74c24 35.333 42.667 58.666 56 69.999
c2.66699 1.33301 4.66699 2 6 2c4.66699 0 7.83398 -1.5 9.50098 -4.5s2.5 -5.83301 2.5 -8.5c0 -6.66699 -10 -22 -30 -46c-26 -37.333 -44.333 -65.333 -55 -84c42 3.33301 90.667 5 146 5l6 13c26.667 58 45.334 87 56.001 87c8.66699 0 13 -5.33301 13 -16
c-4.66699 -11.333 -10.334 -22.333 -17.001 -33l-8 -13c-9.33301 -18 -16.666 -31 -21.999 -39c59.333 -2 118 -7.66699 176 -17c2.66699 -0.666992 4.33398 -2 5.00098 -4c0 -5.33301 -2.66699 -8 -8 -8c-59.333 9.33301 -119 15 -179 17
c-14.667 -27.333 -28.667 -55 -42 -83l-4 -10c47.333 -2.66699 94.333 -8.33398 141 -17.001c2.66699 -0.666992 4.33398 -2 5.00098 -4c0 -2 -0.666992 -3.83301 -2 -5.5s-3.33301 -2.5 -6 -2.5c-47.333 9.33301 -95.333 15.333 -144 18
c-11.333 -24.667 -21.666 -49.334 -30.999 -74.001c-7.33301 -17.333 -14 -35 -20 -53c-10 -30.667 -17 -46.334 -21 -47.001zM194.997 259.004c36 3.33301 72.333 5.00098 109 5.00098l44 -1l6 16l35 76c-60 0 -106 -2 -138 -6l-11 -1
c-16.667 -28.667 -31.667 -58.334 -45 -89.001z" />
    <glyph glyph-name="dollar" unicode="$" horiz-adv-x="330" 
d="M106 -12l-3.00195 0.00292969c-4.66699 0 -7 2.33301 -7 7c3.33301 47.333 8.66602 94.333 15.999 141l3 13c-7.33301 1.33301 -14.666 3.66602 -21.999 6.99902c-20 10.667 -33.667 26.667 -41 48c-2 7.33301 -3 14.666 -3 21.999c0 13.333 4 26.666 12 39.999
c1.33301 1.33301 3 2 5 2c2.66699 0 4.5 -0.666992 5.5 -2s1.5 -2.33301 1.5 -3l-1 -3c-6.66699 -10 -10 -20.667 -10 -32c0 -2 0.333008 -6.83301 1 -14.5s6.16699 -16.667 16.5 -27s23.5 -15.5 39.5 -15.5c8.66699 47.333 19.334 94 32.001 140
c-14 14.667 -25 31.667 -33 51c-3.33301 10 -5 20 -5 30c0 14.667 4.33301 29 13 43c21.333 26 49.333 39.333 84 40l2 6c11.333 26 23.666 51.667 36.999 77c18.667 37.333 31.334 56 38.001 56c2.66699 0 4.83398 -1 6.50098 -3s2.5 -4.33301 2.5 -7v-2
c-5.33301 -15.333 -12.333 -30.333 -21 -45c-11.333 -20 -24.333 -47 -39 -81l-1 -1v-2c8.66699 -1.33301 17 -4 25 -8c20 -11.333 34.333 -28 43 -50c3.33301 -9.33301 5 -18.333 5 -27c0 -12.667 -3 -25 -9 -37c-2 -3.33301 -4.66699 -5 -8 -5
s-6.16602 1.16699 -8.49902 3.5s-3.5 4.5 -3.5 6.5l1 3c3.33301 10 5 19.667 5 29c0 14.667 -4.33301 28.667 -13 42c-12 14 -27 22.667 -45 26c-18.667 -44.667 -35.667 -90 -51 -136l2 -2c31.333 -26.667 47 -53.667 47 -81c0 -10.667 -2.33301 -21.334 -7 -32.001
c-18 -36.667 -46.667 -56 -86 -58c-10 -50 -17 -100.667 -21 -152c-0.666992 -3.33301 -2.33398 -5.66602 -5.00098 -6.99902zM158.998 338.003l14 45l29 74l-2 -1c-10.667 0 -23.667 -4.33301 -39 -13c-19.333 -12 -29 -28 -29 -48c0 -18.667 9 -37.667 27 -57z
M136.998 173.003c6 0.666992 12 2.66699 18 6c22 10.667 35.333 28 40 52l1 9c0 15.333 -9.33301 33 -28 53c-12 -40 -22.333 -80 -31 -120z" />
    <glyph glyph-name="percent" unicode="%" horiz-adv-x="425" 
d="M35 68l-3.00293 -0.00195312c-4 0 -7.33301 2 -10 6s-4 8.33301 -4 13c0 5.33301 2 12 6 20l1 2c23.333 58 55 111 95 159c74 90.667 155.333 173.667 244 249l7 5c-20.667 -6 -41.667 -10.333 -63 -13c-11.333 -2 -22.333 -3 -33 -3c-18 0 -35.333 2.66699 -52 8
c-3.33301 -33.333 -20.333 -60 -51 -80c-6.66699 -4 -13 -6 -19 -6c-4.66699 0 -9 1 -13 3c-7.33301 5.33301 -11 12 -11 20c0 12 4.33301 24.333 13 37c14.667 22.667 34.667 38.334 60 47.001h2c2 0 3.83301 -0.833008 5.5 -2.5s2.5 -3.83398 2.5 -6.50098
s-1.33301 -5 -4 -7c-16 -8.66699 -29.667 -20 -41 -34c-8 -8.66699 -13.333 -17.667 -16 -27l-1 -9c0 -3.33301 1.66699 -5 5 -5c2 0 6.66699 1.66699 14 5c10.667 4.66699 20 12 28 22c10.667 15.333 16 32 16 50c0 4 1.66699 6 5 6l3 -1c11.333 -6 24.333 -9 39 -9
s31 1.66699 49 5h4c32 4.66699 63 12.667 93 24h2c4 0 6 -2 6 -6c0 -2 -1.66699 -4.66699 -5 -8c-14.667 -18 -38.667 -41.667 -72 -71c-84 -82 -149 -150.667 -195 -206c-38.667 -46 -71 -95.667 -97 -149c-3.33301 -3.33301 -6 -9.66602 -8 -18.999l-1 -3l1 -1v1h1
c2.66699 0.666992 5 2 7 4c10.667 5.33301 22.334 12.333 35.001 21l59 39c43.333 30.667 83.333 55.334 120 74.001l15 8c16 7.33301 25 11 27 11c2.66699 0 4.66699 -0.833008 6 -2.5s2 -3.5 2 -5.5s-1 -4 -3 -6c-13.333 -16 -25.333 -33.333 -36 -52
c0 -0.666992 -0.666992 -2 -2 -4s-2.66602 -4.66699 -3.99902 -8s-2 -6 -2 -8c0 -4 1.66699 -6 5 -6c2.66699 0 6.66699 1.33301 12 4l8 4c16.667 10 27.667 24.333 33 43l1 10c0 15.333 -5.33301 26 -16 32c-2.66699 2 -4 4 -4 6c0 4.66699 1 7.83398 3 9.50098
s3.66699 2.5 5 2.5l5 -2c13.333 -10 20 -22.333 20 -37c0 -0.666992 -0.166992 -5.16699 -0.5 -13.5s-5.16602 -19.833 -14.499 -34.5s-20 -25.667 -32 -33c-8 -5.33301 -15.333 -8 -22 -8c-4 0 -8.5 1.16699 -13.5 3.5s-8.16699 5.83301 -9.5 10.5s-2 9 -2 13l1 7
c6 19.333 16.333 36 31 50c-16 -4.66699 -37.333 -15.334 -64 -32.001c-30 -17.333 -65.333 -41 -106 -71l-51 -37c-4.66699 -4 -10 -6.66699 -16 -8z" />
    <glyph glyph-name="ampersand" unicode="&#x26;" horiz-adv-x="301" 
d="M152 121l-2.00488 0.000976562c-8 0 -12.667 8.33301 -14 25l-1 6c-4 24.667 -6.33301 43 -7 55c-14 0 -26.667 4 -38 12c-24 21.333 -36 46.666 -36 75.999c0 30 12.333 56.333 37 79c9.33301 8 20 14 32 18l-6 2c-29.333 10 -44 25.333 -44 46
c0 3.33301 0.833008 8.66602 2.5 15.999s8.16699 14.833 19.5 22.5s23.333 11.5 36 11.5c6.66699 0 13.334 -1 20.001 -3l5 18c8.66699 35.333 20 53 34 53c4.66699 0 8.5 -1.5 11.5 -4.5s4.5 -5.83301 4.5 -8.5c0 -4.66699 -1.5 -8.16699 -4.5 -10.5
s-6.16699 -3.5 -9.5 -3.5l-1 -2c-2 -4 -3.33301 -8 -4 -12l-3 -8c-4.66699 -14 -7.16699 -22 -7.5 -24s-0.833008 -4 -1.5 -6l6 -3c30 -14 54.333 -34.667 73 -62c1.33301 -2 2 -3.66699 2 -5c0 -2 -0.833008 -4.5 -2.5 -7.5s-5.16699 -4.5 -10.5 -4.5
c-2.66699 0 -9 5 -19 15c-18 18.667 -36.333 33.334 -55 44.001c-6 -17.333 -10.333 -36.666 -13 -57.999l3 -1c4.66699 0 9.33398 -0.666992 14.001 -2v-1c2.66699 -0.666992 4.66699 -2.33398 6 -5.00098v-3c0 -6 -3 -9 -9 -9s-12 -0.333008 -18 -1
c-6 -38 -9 -75.333 -9 -112l1 -34c18.667 6 35.667 17.667 51 35c12 10.667 18.667 24.334 20 41.001c0 6 3 9 9 9s9.33301 -3 10 -9c0 -18 -6 -34.167 -18 -48.5s-25.333 -25.833 -40 -34.5c-9.33301 -6.66699 -19.333 -11.334 -30 -14.001l1 -25
c0 -0.666992 0.333008 -1 1 -1c0.666992 -8.66699 1.33398 -16.5 2.00098 -23.5s1.33398 -12.167 2.00098 -15.5s1.33398 -5.33301 2.00098 -6c5.33301 0 8 -3 8 -9c0 -2.66699 -1 -4.66699 -3 -6s-4.33301 -2 -7 -2zM134.995 404.001
c2.66699 21.333 6.66602 42.667 11.999 64c-7.33301 2.66699 -14.666 4.33398 -21.999 5.00098c-4 0 -8.33301 -0.666992 -13 -2c-11.333 -4 -19 -11.333 -23 -22c-1.33301 -2.66699 -2 -5.33398 -2 -8.00098c0 -16 14.333 -28 43 -36c1.33301 -0.666992 3 -1 5 -1z
M126.994 228.002c-1.33301 17.333 -1.99902 34.332 -1.99902 50.999c0 30.667 2 61.334 6 92.001c-14.667 -4 -27.5 -13 -38.5 -27s-16.5 -30.333 -16.5 -49c0 -12 2.66699 -23 8 -33c9.33301 -20 23.666 -31.333 42.999 -34z" />
    <glyph glyph-name="quotesingle" unicode="'" horiz-adv-x="156" 
d="M84 390c-2 0 -4.33301 1.33398 -7 4.00098s-5 7.66699 -7 15v1c-2 7.33301 -3 14.666 -3 21.999c0 23.333 5.33301 35 16 35l2 -1c5.33301 -1.33301 8 -5 8 -11l-2 -11l-1 -2v-5c0 -2 -0.333008 -3 -1 -3v-15l1 -5l1 -6c1.33301 -1.33301 2 -4.33301 2 -9
c-1.33301 -6 -4.33301 -9 -9 -9z" />
    <glyph glyph-name="parenleft" unicode="(" horiz-adv-x="130" 
d="M92 35c-2 0 -3.66699 1.33496 -5 4.00195c-8 20 -14 40.333 -18 61s-7.16699 41.5 -9.5 62.5s-3.5 42.167 -3.5 63.5c0 54.667 7.33301 108.334 22 161.001c10 37.333 24 73 42 107c20 41.333 43 69.666 69 84.999c2 1.33301 4 2 6 2c4.66699 -0.666992 8 -2.5 10 -5.5
s3 -5.16699 3 -6.5c0 -2.66699 -1.33301 -5.33398 -4 -8.00098c-30 -26.667 -53.333 -58.334 -70 -95.001c-40.667 -80.667 -61 -164 -61 -250c0 -52 6.66699 -101 20 -147c2.66699 -8 5 -16.333 7 -25c0 -2 -0.833008 -4 -2.5 -6s-3.5 -3 -5.5 -3z" />
    <glyph glyph-name="parenright" unicode=")" horiz-adv-x="176" 
d="M-41 23c-0.666992 0 -2.33398 0.501953 -5.00098 1.50195s-4 3.16699 -4 6.5l1 4c28 35.333 53.667 72.666 77 111.999c70.667 124.667 106 257.667 106 399l-1 28c0 10.667 0.666992 21 2 31c1.33301 5.33301 4.33301 8 9 8c2 0 4.33301 -0.666992 7 -2
c4.66699 -2.66699 7 -12.334 7 -29.001v-47c-2.66699 -103.333 -25 -203.666 -67 -300.999c-31.333 -76.667 -73.666 -146.334 -126.999 -209.001c-2 -1.33301 -3.66699 -2 -5 -2z" />
    <glyph glyph-name="asterisk" unicode="*" horiz-adv-x="268" 
d="M94 421c-0.666992 0 -1.82812 0.501953 -3.49512 1.50195s-2.5 2.5 -2.5 4.5c0 6 1.66699 12 5 18l27 56c-6 0 -11.833 -0.166992 -17.5 -0.5s-11.334 -0.833008 -17.001 -1.5s-11.834 -1.33398 -18.501 -2.00098c-2 0 -3 1.33301 -3 4v2.5c0 1 0.666992 1.83301 2 2.5
c15.333 4 27 6 35 6c9.33301 2 17.666 3 24.999 3l-10 15c-10.667 13.333 -18.334 25 -23.001 35l-1 4c0 1.33301 0.666992 3 2 5s3.33301 3 6 3c5.33301 0 13 -9 23 -27l12 -19c2 2.66699 3.83301 5.83398 5.5 9.50098s3.5 7.5 5.5 11.5c1.33301 1.33301 5.33301 8 12 20
c2 3.33301 4 6.16602 6 8.49902s5 3.5 9 3.5h1c2 0 4 -1 6 -3s3 -4.66699 3 -8l-6 -16l-23 -40l18 -1c15.333 0 26.666 -2 33.999 -6c2 -1.33301 3 -2.66602 3 -3.99902v-4c0 -3.33301 -5.33301 -5 -16 -5c-4 0 -8 0.333008 -12 1s-10 1 -18 1c-2 0.666992 -4.33301 1 -7 1
l3 -4c25.333 -38.667 38 -59.334 38 -62.001c0 -0.666992 -0.5 -1.66699 -1.5 -3s-2.5 -2.33301 -4.5 -3c-4 0 -19.333 19.333 -46 58l-5 7c-13.333 -22.667 -21.333 -37.334 -24 -44.001c-4.66699 -10.667 -11 -19.667 -19 -27c-0.666992 -0.666992 -1.66699 -1 -3 -1z" />
    <glyph glyph-name="plus" unicode="+" horiz-adv-x="357" 
d="M103 147c-2.66699 0 -4.49609 0.672852 -5.49609 2.00586s-1.5 3.66602 -1.5 6.99902c16 37.333 33.333 73.666 52 108.999l8 16c1.33301 1.33301 2.16602 2.66602 2.49902 3.99902s0.833008 2.33301 1.5 3c-34.667 -0.666992 -69.334 -3.33398 -104.001 -8.00098
c-6.66699 0 -10 3.33301 -10 10c0 7.33301 3.33301 11 10 11l111 1l21 42c6 9.33301 11.333 19.666 16 30.999l2 3c5.33301 10 11.333 15 18 15c2 0 3.66699 -1.33301 5 -4v1c1.33301 -2.66699 2 -5.33398 2 -8.00098c0 -2 -0.333008 -3.5 -1 -4.5
s-3.33398 -6.16699 -8.00098 -15.5l-30 -51l-4 -9h60l44 -1c11.333 0 17.666 -1.33301 18.999 -4v-3c-1.33301 -2.66699 -7 -4 -17 -4l-32 1l-17 -1l-65 -1c-4 -8 -7 -13.333 -9 -16l-33 -65l-30 -58c-1.33301 -2 -3 -3 -5 -3z" />
    <glyph glyph-name="comma" unicode="," horiz-adv-x="178" 
d="M58 108c-4.66699 0 -7 2.33301 -7 7c0 2 0.666992 4 2 6c19.333 20 29 41.667 29 65v8c0 7.33301 3.66699 11 11 11s11 -5 11 -15c0 -15.333 -3.66699 -30 -11 -44c-8 -18 -18.333 -30.333 -31 -37z" />
    <glyph glyph-name="hyphen" unicode="-" horiz-adv-x="280" 
d="M141 236c-35.333 0 -59.666 1.66797 -72.999 5.00098c-4 1.33301 -6 3.66602 -6 6.99902c0 5.33301 3 8.66602 9 9.99902c12 0 21.333 -0.333008 28 -1h8c16 -1.33301 28.167 -2.16602 36.5 -2.49902s17.166 -0.5 26.499 -0.5l44 -2c4.66699 -0.666992 7 -2.66699 7 -6
l-2 -4c-2 -4 -28 -6 -78 -6z" />
    <glyph glyph-name="period" unicode="." horiz-adv-x="130" 
d="M69 167h-0.99707c-0.666992 0 -1.83398 0.166992 -3.50098 0.5s-2.66699 0.5 -3 0.5s-0.5 0.333008 -0.5 1c-2 0.666992 -3.33301 2 -4 4l-2 4c-0.666992 1.33301 -1 4 -1 8c0.666992 1.33301 1.5 2.66602 2.5 3.99902s1.66699 2.33301 2 3
s0.666016 1.16699 0.999023 1.5s1.16602 0.833008 2.49902 1.5s3 1.33398 5 2.00098l2 1c2.66699 0 5 -0.666992 7 -2c4.66699 -1.33301 7 -6.33301 7 -15c0 -0.666992 -0.333008 -1 -1 -1l-2 -5l-2 -1c-0.666992 -2 -2.66699 -3.66699 -6 -5h-1v-1z" />
    <glyph glyph-name="slash" unicode="/" horiz-adv-x="226" 
d="M31 64c-4 0 -6.83496 1 -8.50195 3s-2.5 4 -2.5 6l1 4c63.333 131.333 127.333 254.333 192 369c51.333 85.333 89 146.333 113 183c8.66699 15.333 18.334 29.333 29.001 42c2.66699 2.66699 5.33398 4 8.00098 4c4 0 7 -1.66699 9 -5s3 -6 3 -8l-1 -5
c-10.667 -21.333 -24 -43 -40 -65l-39 -63c-92.667 -150 -178.667 -303.667 -258 -461c-1.33301 -2.66699 -3.33301 -4 -6 -4z" />
    <glyph glyph-name="zero" unicode="0" horiz-adv-x="252" 
d="M73 172l-5.00098 -0.000976562c-18 4 -27 17.667 -27 41l1 12c10 46 29.667 87.333 59 124c14 18 29.667 34 47 48l20 15c5.33301 4 10.666 6.66699 15.999 8l-1 5c0 5.33301 3 8 9 8c10.667 -4 17.334 -11 20.001 -21c1.33301 -7.33301 2 -14.666 2 -21.999v-8
c-8 -70.667 -37.667 -130 -89 -178c-21.333 -21.333 -38.666 -32 -51.999 -32zM75.999 187.999c5.33301 0 11.334 2.33008 18.001 6.99707c48 30 80.333 73 97 129c7.33301 22 11 42 11 60l-1 17h-5c-5.33301 0 -12.333 -4.33301 -21 -13l-4 -3
c-26 -21.333 -46.333 -42.666 -61 -63.999c-20.667 -29.333 -35.334 -61.666 -44.001 -96.999c-2 -7.33301 -3 -13.666 -3 -18.999c0 -11.333 4.33301 -17 13 -17z" />
    <glyph glyph-name="one" unicode="1" horiz-adv-x="222" 
d="M41 130h-3.99707l-5 1c-4.66699 2 -7 10 -7 24c0 20 6.66699 44 20 72v2c28.667 66 59 122 91 168c2.66699 2.66699 4.66699 5.33398 6 8.00098c-12 -8.66699 -24.333 -16.334 -37 -23.001c-6.66699 -4.66699 -12.667 -7 -18 -7c-3.33301 0 -5.83301 1 -7.5 3
s-2.5 3.66699 -2.5 5l1 4c2.66699 4 7.66699 7.33301 15 10c1.33301 0 14.166 7 38.499 21s45.5 32.333 63.5 55c1.33301 1.33301 2.66602 2 3.99902 2c3.33301 -1.33301 5 -3.33301 5 -6l-1 -5c-14.667 -19.333 -28.334 -40 -41.001 -62l-9 -16
c-15.333 -26 -30 -52.333 -44 -79c-30.667 -54 -52 -111 -64 -171c-0.666992 -3.33301 -2 -5.33301 -4 -6z" />
    <glyph glyph-name="two" unicode="2" horiz-adv-x="271" 
d="M211 124l-6 0.00390625c-19.333 0 -48.333 10 -87 30l-14 7l-16 -9c-17.333 -6.66699 -31 -10 -41 -10c-4 0 -9.33301 0.666992 -16 2s-11.667 6.66602 -15 15.999l-1 8c0 8 2.66699 15.333 8 22c8 8 17 12 27 12c13.333 0 28.666 -5.33301 45.999 -16
c2.66699 -0.666992 5 -1.66699 7 -3h1c35.333 24 64 54.333 86 91c26.667 40.667 43.334 84.667 50.001 132l1 12c0 9.33301 -2.33301 18.166 -7 26.499s-11 12.5 -19 12.5c-2.66699 0 -5.66699 -0.666992 -9 -2c-10 -4 -18.333 -10.667 -25 -20c-4 -5.33301 -6 -11 -6 -17
c0 -4.66699 1.33301 -9.33398 4 -14.001l1 -4c0 -1.33301 -0.666992 -3.5 -2 -6.5s-4 -4.5 -8 -4.5c-2 0 -3.66699 0.666992 -5 2c-10.667 7.33301 -16 16.666 -16 27.999c0 4 0.666992 8 2 12c6 14.667 16 26 30 34c9.33301 6 19 9 29 9c4.66699 0 9.33398 -1 14.001 -3
c19.333 -10 29 -28.667 29 -56c0 -16 -4 -35.667 -12 -59c-20.667 -71.333 -60.334 -132 -119.001 -182l39 -19c20.667 -12 37 -18 49 -18c8 0 15.333 2.33301 22 7c1.33301 1.33301 3 2 5 2l3 -1c2 -0.666992 3 -2 3 -4s-0.666992 -3.66699 -2 -5
c-8.66699 -8 -18.667 -12 -30 -12zM51 163.004c11.333 0.666992 22 3.66699 32 9c-13.333 6.66699 -25 10 -35 10c-6 0 -10.333 -3.33301 -13 -10v-2c0 -4.66699 3.33301 -7 10 -7h6z" />
    <glyph glyph-name="three" unicode="3" horiz-adv-x="217" 
d="M75 127c-6 0 -14.333 0.833008 -25 2.5s-20.334 8.83398 -29.001 21.501c-3.33301 5.33301 -5 10.666 -5 15.999c0 4.66699 1.33301 9.66699 4 15c4 9.33301 10.333 14 19 14c7.33301 0 11 -1.33301 11 -4c0 -4.66699 -1.66699 -7 -5 -7l-5 1
c-2.66699 0 -5.5 -1.33301 -8.5 -4s-4.5 -6.66699 -4.5 -12c0 -4.66699 2.33301 -9 7 -13s9.83398 -6.5 15.501 -7.5s10.5 -1.5 14.5 -1.5h6c30 3.33301 54 16.666 72 39.999c14 19.333 21 40.333 21 63s-7 41 -21 55c-7.33301 8 -16.666 12 -27.999 12l-12 -1
c-4 0 -7.33301 1.33301 -10 4s-4 6.33398 -4 11.001c0 4 2.33301 7.66699 7 11c22 16 42.333 34 61 54c12 14 18 26.667 18 38c-0.666992 6 -3 11 -7 15c-6.66699 6 -16.334 9 -29.001 9c-19.333 0 -36.666 -7 -51.999 -21c-8.66699 -7.33301 -15.5 -15.833 -20.5 -25.5
s-7.5 -16.834 -7.5 -21.501l-1 -1v-2c4 -1.33301 6.33301 -3.66602 7 -6.99902c0 -3.33301 -1 -6.66602 -3 -9.99902s-5.66699 -5 -11 -5c-12 0 -18 7 -18 21l1 7c4 13.333 10.667 25.333 20 36c16.667 18.667 37.334 31 62.001 37c7.33301 2 15.666 3 24.999 3
c14 0 26.333 -4.66699 37 -14c6.66699 -8 10 -16.333 10 -25c0 -14.667 -5.5 -29.834 -16.5 -45.501s-23.167 -30.167 -36.5 -43.5c23.333 -10 39.333 -27.333 48 -52c4.66699 -14 7 -27.667 7 -41c0 -19.333 -6.33301 -41.333 -19 -66s-35.667 -42 -69 -52
c-8.66699 -2.66699 -17.334 -4 -26.001 -4z" />
    <glyph glyph-name="four" unicode="4" horiz-adv-x="248" 
d="M105 93c-3.33301 0 -5.66992 0.500977 -7.00293 1.50098s-2 3.5 -2 7.5c10.667 47.333 25 94 43 140l9 24l-34 1c-27.333 0 -54.666 -2.33301 -81.999 -7h-2c-2.66699 0 -4 1 -4 3c0 4 1 6.33301 3 7c21.333 10 39 25 53 45c30 38 54 78 72 120l14 34
c4.66699 22 11.334 34 20.001 36c6 0 9 -3 9 -9c0 -11.333 -2.66699 -22 -8 -32c-11.333 -34.667 -29 -70.334 -53 -107.001s-47.333 -63.667 -70 -81c32 4 54.667 6 68 6l20 -1c5.33301 16 11.333 31.667 18 47l16 35c5.33301 12 12 23.667 20 35c0.666992 1.33301 2 2 4 2
h1c3.33301 0 5 -2.33301 5 -7c-2.66699 -12.667 -9 -31.667 -19 -57c-6 -13.333 -11.333 -27 -16 -41l-6 -14c13.333 -1.33301 20 -4.33301 20 -9c0.666992 -0.666992 1 -1.66699 1 -3c0 -0.666992 -0.5 -1.66699 -1.5 -3s-2.5 -2.33301 -4.5 -3
c-9.33301 0 -16.666 0.333008 -21.999 1l-7 -18c-8.66699 -22.667 -16.667 -45.667 -24 -69c-18 -56 -29.333 -84 -34 -84z" />
    <glyph glyph-name="five" unicode="5" horiz-adv-x="291" 
d="M91 165c-27.333 0 -46.0029 11.335 -56.0029 34.002c-2 6 -3 11.667 -3 17c0 22 9.66699 37 29 45l3 1c2 0 3.66699 -1 5 -3s2 -4.33301 2 -7c-0.666992 -3.33301 -3.16699 -6.16602 -7.5 -8.49902s-7.66602 -6 -9.99902 -11s-3.5 -10.5 -3.5 -16.5
c1.33301 -12.667 8 -21.667 20 -27c7.33301 -3.33301 14.333 -5 21 -5c18.667 0 36.334 10.167 53.001 30.5s25 42.166 25 65.499c0 27.333 -10.333 46.666 -31 57.999c-6.66699 3.33301 -13.334 5 -20.001 5c-7.33301 0 -14.666 -2 -21.999 -6
c-1.33301 -1.33301 -3 -2 -5 -2c-5.33301 0 -8 3.33301 -8 10v4c18 38 38.333 74.667 61 110c4.66699 6.66699 9.83398 10.334 15.501 11.001s10.834 1 15.501 1h7c13.333 0 23.666 0.333008 30.999 1c20 0 33.667 -0.333008 41 -1s11 -5.33398 11 -14.001
c0 -6.66699 -4 -10 -12 -10c-11.333 0 -22.666 1 -33.999 3c-22 2 -38.333 3 -49 3c-6.66699 0 -12.334 -4.33301 -17.001 -13l-43 -80h6c26 0 46.333 -11.667 61 -35c7.33301 -15.333 11 -31 11 -47c0 -16.667 -4.33301 -33.334 -13 -50.001
c-6.66699 -14.667 -16 -27.667 -28 -39c-17.333 -16 -36 -24 -56 -24z" />
    <glyph glyph-name="six" unicode="6" horiz-adv-x="227" 
d="M83 162c-11.333 0 -21.667 4.66895 -31 14.002l-4 5c-6 1.33301 -9 4.66602 -9 9.99902l1 5c-4 11.333 -6 22.666 -6 33.999c0 20 3.33301 43 10 69c16 61.333 49.333 116 100 164l4 3c4.66699 4.66699 10.167 9.33398 16.5 14.001s13.166 7 20.499 7
c4 0 7.66699 -2 11 -6c1.33301 -1.33301 2 -3 2 -5c0 -3.33301 -2 -5.33301 -6 -6s-7.66699 -2.33398 -11 -5.00098l-10 -8c-0.666992 -1.33301 -1.66699 -2.33301 -3 -3l-20 -19c-33.333 -33.333 -58.666 -74.333 -75.999 -123c-12 -29.333 -18 -59.333 -18 -90v-6
c10 13.333 23.667 21.666 41 24.999h3c8.66699 0 17 -2.66699 25 -8s12 -13.333 12 -24c-0.666992 -9.33301 -4 -17.666 -10 -24.999c-12 -14.667 -26 -22 -42 -22zM86.999 177.002c4.66699 0 10.333 1.66797 17 5.00098s12 8.66602 16 15.999c2 4.66699 3 8.66699 3 12
c0 10.667 -7 16.667 -21 18c-14.667 0 -28 -11.667 -40 -35c0 -0.666992 -0.333008 -1 -1 -1c6 -10 14.667 -15 26 -15z" />
    <glyph glyph-name="seven" unicode="7" horiz-adv-x="264" 
d="M54 139c-2.66699 0 -4.83105 0.832031 -6.49805 2.49902s-2.5 3.83398 -2.5 6.50098v2c8.66699 28.667 19 57 31 85l22 48l-60 -3c-5.33301 0 -8 2.66699 -8 8c0 4.66699 2.66699 7.66699 8 9c20 1.33301 42.667 2 68 2l17 33
c21.333 42.667 42.666 77.334 63.999 104.001h-8c-13.333 0 -30.333 2 -51 6c-16.667 4.66699 -33.667 7 -51 7c-9.33301 0 -17.833 -1.66699 -25.5 -5s-11.5 -10 -11.5 -20c0 -2 -0.666992 -3.5 -2 -4.5s-2.33301 -1.5 -3 -1.5l-3 1c-6 4 -9 9 -9 15
c0 10.667 5.16699 19.167 15.5 25.5s21.833 9.5 34.5 9.5l28 -2l33 -7c17.333 -5.33301 34.666 -8 51.999 -8c6.66699 0 13 0.333008 19 1c8.66699 5.33301 18 9 28 11c2.66699 0 4.83398 -0.833008 6.50098 -2.5s2.5 -3.5 2.5 -5.5c0 -4.66699 -5.66699 -8.66699 -17 -12
c-12.667 -9.33301 -24 -24 -34 -44c-5.33301 -7.33301 -22 -37 -50 -89l-6 -12c17.333 0 33.333 0.333008 48 1c6 0 11.667 -0.666992 17 -2c2.66699 -1.33301 4 -3.33301 4 -6c0 -0.666992 -0.166992 -1.83398 -0.5 -3.50098s-7.83301 -2.5 -22.5 -2.5h-9
c-18.667 0 -33.334 -0.333008 -44.001 -1l-29 -56l-38 -86c-2 -2.66699 -4.33301 -4 -7 -4z" />
    <glyph glyph-name="eight" unicode="8" horiz-adv-x="229" 
d="M64 171c-14.667 0 -25.667 6.33398 -33 19.001c-5.33301 9.33301 -8 19.333 -8 30v4c2.66699 25.333 13 47.333 31 66c6 6 13 11.333 21 16v1h-1c-4 9.33301 -6 18.666 -6 27.999c0 12.667 5.5 27.5 16.5 44.5s25.833 31.5 44.5 43.5c12 7.33301 25 11.666 39 12.999
c8 0 15.667 -2.33301 23 -7c8.66699 -7.33301 13 -17.333 13 -30c0 -8.66699 -1.66699 -16.667 -5 -24c-17.333 -33.333 -50 -60.666 -98 -81.999l5 -6c16.667 -15.333 25 -31.333 25 -48c0 -10.667 -3.5 -21 -10.5 -31s-15.5 -18.667 -25.5 -26s-20.333 -11 -31 -11z
M98 310.001c44 26 72.001 49.334 84.001 70.001c4.66699 8.66699 7 16 7 22s-2 11 -6 15s-9 6 -15 6c-18.667 -1.33301 -37.334 -12 -56.001 -32c-10 -9.33301 -18.333 -20.333 -25 -33c-4.66699 -8 -7 -16 -7 -24c0 -8.66699 2.33301 -16.334 7 -23.001h4
c2.66699 0 5 -0.333008 7 -1zM67.001 188.002c8 0 16.334 3.00098 25.001 9.00098c11.333 7.33301 19.666 16.666 24.999 27.999c2 4.66699 3 9.33398 3 14.001c0 15.333 -9.33301 30.666 -28 45.999l-2 3l-12 -5c-22.667 -18.667 -34 -41 -34 -67
c0 -7.33301 2.33301 -13.833 7 -19.5s10 -8.5 16 -8.5z" />
    <glyph glyph-name="nine" unicode="9" horiz-adv-x="251" 
d="M39 110c-4 0 -5.99902 2.00195 -5.99902 6.00195c12 66 34.333 128.667 67 188c16 28.667 33.667 57.167 53 85.5s30.666 44.166 33.999 47.499c-30.667 -22 -54 -37 -70 -45c-29.333 -17.333 -49.333 -26 -60 -26c-6 0 -12 1.33301 -18 4c-7.33301 6 -11 12.667 -11 20
c0 9.33301 3.66699 20.333 11 33c5.33301 9.33301 10.666 16.666 15.999 21.999c22.667 24 46.334 36 71.001 36c14.667 0 27 -5.33301 37 -16c6 -7.33301 9 -15 9 -23v-4c14.667 10 28.667 20.333 42 31c0.666992 0.666992 1.66699 1 3 1
c2.66699 0 4.33398 -0.5 5.00098 -1.5s1 -1.83301 1 -2.5v-2c-10 -22.667 -26.667 -50.667 -50 -84c-18 -28 -35 -56.333 -51 -85c-34.667 -57.333 -61.334 -118 -80.001 -182c-0.666992 -2 -1.66699 -3 -3 -3zM56.001 377.002c11.333 0 36.333 11.667 75 35
c2 0.666992 3.66699 1.66699 5 3l25 16c-2.66699 12 -9.66699 21 -21 27c-4 2 -8.66699 3 -14 3c-11.333 -0.666992 -21.333 -4 -30 -10c-17.333 -10 -31.333 -24.333 -42 -43c-2.66699 -2.66699 -5 -7 -7 -13c-1.33301 -2.66699 -2 -4.66699 -2 -6l1 -4
c2 -5.33301 5.33301 -8 10 -8z" />
    <glyph glyph-name="colon" unicode=":" horiz-adv-x="111" 
d="M58 293l-4.00098 -0.000976562c-1.33301 0 -2.5 0.5 -3.5 1.5l-2 2c-0.333008 0.333008 -0.5 0.666016 -0.5 0.999023s-0.333008 0.833008 -1 1.5s-1 3 -1 7v6c1.33301 1.33301 2.33301 2.5 3 3.5s1 1.66699 1 2s0.5 1.16602 1.5 2.49902s3.16699 2 6.5 2l2 1
c3.33301 0 5.66602 -0.666992 6.99902 -2l2 -2c2.66699 -2.66699 4 -5.66699 4 -9c0 -4 -1.33301 -7.33301 -4 -10v0l-1.5 -1.5c-0.333008 -0.333008 -0.5 -0.666016 -0.5 -0.999023s-0.333008 -0.666016 -1 -0.999023s-1.16699 -0.666016 -1.5 -0.999023
s-0.666016 -0.5 -0.999023 -0.5s-0.666016 -0.166992 -0.999023 -0.5l-1 -1c-0.333008 -0.333008 -1.5 -0.5 -3.5 -0.5zM62.999 213.999l-5 0.000976562c-2 0 -3.83301 0.166992 -5.5 0.5s-3.16699 1.16602 -4.5 2.49902l-4 8v3c0 2.66699 0.666992 5 2 7
c3.33301 4.66699 7.33301 7 12 7c9.33301 -0.666992 14 -5.66699 14 -15c0 -6 -3 -10.333 -9 -13z" />
    <glyph glyph-name="semicolon" unicode=";" horiz-adv-x="116" 
d="M64 277l-2.99902 0.00390625c-1.33301 0 -2.83301 0.166992 -4.5 0.5s-3.33398 1.66602 -5.00098 3.99902s-2.5 5.16602 -2.5 8.49902l-1 2c0.666992 0.666992 1 1.83398 1 3.50098s0.5 3 1.5 4s1.5 1.83301 1.5 2.5c2.66699 2.66699 6 4 10 4l3 -1
c5.33301 -1.33301 8.33301 -4.33301 9 -9c0.666992 -0.666992 1 -1.33398 1 -2.00098s-0.166992 -1.83398 -0.5 -3.50098s-0.833008 -3.16699 -1.5 -4.5v-1c-0.666992 -0.666992 -1.5 -1.83398 -2.5 -3.50098s-3.16699 -3.16699 -6.5 -4.5zM46.001 181.004h-3.00098
c-0.666992 0 -2 0.5 -4 1.5s-3 3.16699 -3 6.5c0 2 0.666992 3.5 2 4.5s2.33301 1.83301 3 2.5l3 4v1c0.666992 0.666992 1.33398 2 2.00098 4s1 5.66699 1 11c1.33301 18 8 27 20 27c5.33301 -2 8 -5.66699 8 -11c0 -6.66699 -1.33301 -12.667 -4 -18l-1 -2
c-5.33301 -16.667 -13.333 -27 -24 -31zM44 201.004z" />
    <glyph glyph-name="less" unicode="&#x3c;" horiz-adv-x="242" 
d="M192 151l-3.00098 1.00098c-34.667 15.333 -65 37.333 -91 66c-16 16 -33 30.667 -51 44c-2 1.33301 -3 3 -3 5s1 3.66699 3 5c19.333 12.667 57.333 40 114 82c8 8 21 16 39 24c0.666992 0.666992 1.66699 1 3 1c6 -1.33301 9 -5 9 -11c0 -2.66699 -1 -5 -3 -7
c-10 -8.66699 -21 -16.334 -33 -23.001l-24 -15c-44.667 -26.667 -73 -44 -85 -52c-1.33301 -1.33301 -3 -2.33301 -5 -3c24.667 -13.333 47.334 -29.5 68.001 -48.5s43 -35.167 67 -48.5c3.33301 -2 5 -4.66699 5 -8c0 -4 -1.16699 -7 -3.5 -9s-4.5 -3 -6.5 -3z" />
    <glyph glyph-name="equal" unicode="=" horiz-adv-x="304" 
d="M57 310c-8.66699 0 -13 4.33301 -13 13c0 8 4.33301 12 13 12c19.333 0 39 -0.666992 59 -2c40 -2 70.333 -3 91 -3l50 -2c3.33301 0 5.33301 -1.66699 6 -5c0 -0.666992 -0.5 -2 -1.5 -4s-20.5 -3 -58.5 -3zM69 222l-2.00195 -0.000976562
c-3.33301 0 -6.16602 1.33301 -8.49902 4s-3.5 6 -3.5 10c0 8 4.66699 12.667 14 14l42 1c51.333 0 92.333 -2.66699 123 -8c4 -0.666992 6 -3 6 -7c0 -5.33301 -2.66699 -8 -8 -8l-81 1c-27.333 -1.33301 -54.666 -3.66602 -81.999 -6.99902z" />
    <glyph glyph-name="greater" unicode="&#x3e;" horiz-adv-x="243" 
d="M60 122c-6.66699 0 -9.99902 2.66797 -9.99902 8.00098c0 2 0.666992 3.66699 2 5c17.333 25.333 41.333 53.333 72 84l1 2c22.667 25.333 41 45 55 59l14 12l-11 4c-52 16 -100 40 -144 72c-2 2 -3 4.33301 -3 7c0 6 3.66699 9 11 9l2 1
c3.33301 0 20.666 -9.33301 51.999 -28l40 -23c22 -12 44.333 -23 67 -33c2.66699 -0.666992 4.33398 -2 5.00098 -4c0 -2.66699 -0.666992 -5 -2 -7l-11 -14c-6.66699 -10.667 -26.334 -34.334 -59.001 -71.001l-18 -21c-17.333 -21.333 -36.333 -41.333 -57 -60
c-2 -1.33301 -4 -2 -6 -2z" />
    <glyph glyph-name="question" unicode="?" horiz-adv-x="350" 
d="M57 192c-0.666992 0 -2.16406 0.333984 -4.49707 1.00098s-3.5 8 -3.5 22c0 37.333 25 76.333 75 117l44 38c25.333 21.333 49.666 43.666 72.999 66.999c17.333 15.333 32.666 32.666 45.999 51.999c12 16.667 18 30.334 18 41.001c0 8.66699 -3.33301 16.667 -10 24
c-12.667 10 -27.334 15 -44.001 15c-4.66699 0 -14 -1.33301 -28 -4s-29.333 -9.83398 -46 -21.501s-30 -26.834 -40 -45.501c-8.66699 -16 -13 -33 -13 -51l1 -16c0 -6 -3 -9 -9 -9c-4.66699 0 -8 1.33301 -10 4c-5.33301 8.66699 -8 17.667 -8 27
c0 14.667 7 32.334 21 53.001s32.333 37.5 55 50.5s47.667 19.5 75 19.5c16 0 31 -3.66699 45 -11c16.667 -10 25 -23.667 25 -41v-8c-6.66699 -26 -19 -49 -37 -69c-29.333 -35.333 -61.666 -67.666 -96.999 -96.999c-8 -6.66699 -15.167 -13 -21.5 -19l-17.5 -16
c-16.667 -14 -32.667 -29 -48 -45c-20.667 -20 -32.334 -44 -35.001 -72c0 -4 -2 -6 -6 -6zM52.0029 110.001h-2.99902c-4.66699 0 -8.33398 2.66699 -11.001 8l-1 6l2 6c1.33301 2.66699 2.83301 4.33398 4.5 5.00098s3 1 4 1h2.5c3.33301 0 6.33301 -1 9 -3s4 -5 4 -9
c0 -2.66699 -0.5 -4.83398 -1.5 -6.50098s-1.83301 -2.5 -2.5 -2.5v-1h-1l-1.5 -1.5c-1 -1 -2.5 -1.83301 -4.5 -2.5z" />
    <glyph glyph-name="at" unicode="@" horiz-adv-x="530" 
d="M178 76c-8 0 -20.332 0.668945 -36.999 2.00195s-35.334 11 -56.001 29c-23.333 22 -35 50 -35 84c0 20 3.33301 39.333 10 58c20 49.333 49.333 92.333 88 129c36 36 78 61.333 126 76c16 4.66699 32.333 7 49 7c32.667 0 62.667 -9 90 -27
c18.667 -12.667 34 -29.334 46 -50.001c7.33301 -13.333 11 -27.333 11 -42c0 -8 -1 -16 -3 -24c-8 -22.667 -21.333 -41 -40 -55c-19.333 -16.667 -41.666 -27.334 -66.999 -32.001h-4c-10.667 0 -21.167 2.5 -31.5 7.5s-17.833 13.167 -22.5 24.5l-2 7l-49 -48l-4 -3
c-10.667 -10.667 -20 -16 -28 -16h-4c-10 3.33301 -15 11 -15 23c0 4 0.666992 8 2 12c14 39.333 40.667 73.333 80 102c14 10 29 15 45 15c12 0 22.333 -4 31 -12c5.33301 -6 8.33301 -12.667 9 -20c0 -3.33301 -0.833008 -6.5 -2.5 -9.5s-3.16699 -4.5 -4.5 -4.5
c-4.66699 0 -7 1.66699 -7 5v2c0 11.333 -5.33301 19 -16 23l-8 1c-9.33301 0 -18 -4 -26 -12c-34.667 -27.333 -60.334 -61 -77.001 -101l-1 -3l14 9c21.333 16 41.333 33.333 60 52c2.66699 14 10.667 24 24 30l4 1c6.66699 0 10.334 -3.33301 11.001 -10
c0 -4 -1.83301 -7.83301 -5.5 -11.5s-5.5 -7.5 -5.5 -11.5c0 -10.667 6.33301 -18 19 -22c4.66699 -1.33301 9.33398 -2 14.001 -2c6.66699 0 14.667 1.66699 24 5c34.667 13.333 57.667 34.333 69 63c1.33301 6 2 11.667 2 17c0 19.333 -7 37 -21 53
c-27.333 32 -62 48 -104 48h-7c-43.333 -4.66699 -82 -20.667 -116 -48c-50.667 -38.667 -89.334 -89 -116.001 -151c-6.66699 -18 -10 -36 -10 -54v-9c7.33301 -54 44 -81 110 -81c32 0 63.667 6.33301 95 19c40.667 16 78.667 37.333 114 64c36 25.333 62.667 58 80 98
c1.33301 2.66699 3.66602 4 6.99902 4c4 0 6 -2 6 -6v-2c-10 -26 -24.667 -48.667 -44 -68c-64 -64 -136.667 -107 -218 -129c-17.333 -4 -35 -6 -53 -6z" />
    <glyph glyph-name="A" unicode="A" 
d="M395 22l-2 -0.00292969c-2.66699 0 -4 2 -4 6c15.333 98 52 206.667 110 326c-22.667 2 -45.667 3.66699 -69 5l-16 2c-98 -90.667 -208.667 -179.667 -332 -267c-8.66699 -6 -17 -12.333 -25 -19c-28 -21.333 -44.333 -32 -49 -32c-4 0 -6.66699 3 -8 9
c-0 4 1.33301 7 4 9l40 25c13.333 8 26.333 16.333 39 25c104.667 71.333 210.334 155 317.001 251c-23.333 2 -46.666 3 -69.999 3c-56 0 -105 -7 -147 -21c-16 -5.33301 -31 -12.666 -45 -21.999c-10.667 -7.33301 -17.667 -15.166 -21 -23.499s-6.33301 -12.5 -9 -12.5
l-3 2c-2 0.666992 -3 4 -3 10c0 5.33301 2 11.333 6 18c14.667 18.667 36 32.334 64 41.001c39.333 13.333 79.333 20.333 120 21c46 0 86.333 -1.66699 121 -5c39.333 35.333 82.666 76.666 129.999 123.999c35.333 33.333 67.666 69 96.999 107c2 2 4 3 6 3
c4.66699 0 7 -2 7 -6l-1 -4c-15.333 -34 -36.666 -75 -63.999 -123l-59 -112c16.667 -1.33301 33 -2 49 -2c27.333 0 54.666 2 81.999 6c3.33301 0 5 -1.66699 5 -5c-0.666992 -1.33301 -1.66699 -2 -3 -2c-29.333 -4 -59 -6 -89 -6h-49
c-39.333 -78.667 -69.666 -149 -90.999 -211c-12 -37.333 -23 -74.666 -33 -111.999c-0.666992 -2 -1.33398 -3.83301 -2.00098 -5.5s-1.66699 -2.5 -3 -2.5zM504 363.997c22.667 48 56.667 110.332 102 186.999l-36 -37c-46 -49.333 -94 -96.666 -144 -141.999
c26 -3.33301 52 -6 78 -8z" />
    <glyph glyph-name="B" unicode="B" horiz-adv-x="539" 
d="M125 -43c-20.667 0 -40.6699 3.66797 -60.0029 11.001c-0.666992 -0.666992 -1.16699 -1.66699 -1.5 -3s-1 -3 -2 -5s-3.5 -3 -7.5 -3c-1.33301 0 -2.5 0.5 -3.5 1.5s-1.5 2.16699 -1.5 3.5c0 3.33301 0.5 5.83301 1.5 7.5s1.5 2.83398 1.5 3.50098
c-7.33301 4 -14 8.66699 -20 14c-21.333 20 -32 43.333 -32 70c0 4 1.16699 15 3.5 33s17.833 35.667 46.5 53l2 1c2.66699 0 4 -1.66699 4 -5c0 -1.33301 -0.666992 -2.33301 -2 -3c-30.667 -18.667 -46 -45.334 -46 -80.001v-6c5.33301 -30.667 21 -53.334 47 -68.001
c40 100.667 87.667 197.667 143 291c-1.33301 2 -2 4.33301 -2 7c0 2 0.666992 3.33301 2 4c-1.33301 1.33301 -2 3.66602 -2 6.99902c0 5.33301 2.33301 8 7 8h3.5c1.66699 0 3.16699 -1.66699 4.5 -5c38.667 64 81 124 127 180l2 3c14 18 28.667 35.667 44 53
s33.333 31.666 54 42.999l4 1c1.33301 0 2.83301 -0.666992 4.5 -2s2.5 -3.33301 2.5 -6c0 -2 -4.33301 -7.33301 -13 -16c-15.333 -13.333 -30 -27.666 -44 -42.999c-53.333 -60 -106.666 -131 -159.999 -213c8.66699 2 17.334 3.33301 26.001 4c42 9.33301 70 16 84 20
c90 21.333 167 57.333 231 108c42 33.333 69.333 64.666 82 93.999c2.66699 7.33301 4 14.666 4 21.999c0 11.333 -3.33301 22.333 -10 33c-11.333 14 -25.666 24 -42.999 30c-34 10.667 -69.333 16 -106 16c-91.333 0 -174.666 -21.333 -249.999 -64
c-36.667 -21.333 -69.167 -47 -97.5 -77s-46.5 -57 -54.5 -81l-2 -12l1 -3c5.33301 0 8 -3.33301 8 -10c0 -0.666992 -0.333008 -2 -1 -4s-2.33398 -3.5 -5.00098 -4.5s-5 -1.5 -7 -1.5c-2.66699 0 -5.66699 0.833008 -9 2.5s-6 4.83398 -8 9.50098s-3 9.33398 -3 14.001
c0 5.33301 1.66699 11 5 17c12 24.667 27.667 46.667 47 66c37.333 37.333 79.333 68.333 126 93c78 41.333 161.333 63 250 65l30 -1c39.333 0 76.333 -8.33301 111 -25c16.667 -10 28.667 -24.333 36 -43c2.66699 -8.66699 4 -17.334 4 -26.001
c0 -14 -3.66699 -27.667 -11 -41c-24.667 -41.333 -57 -75.666 -97 -102.999c-57.333 -42.667 -127 -75 -209 -97c28.667 -5.33301 52.667 -18.666 72 -39.999c14 -20 21 -41.333 21 -64c0 -9.33301 -1.33301 -19 -4 -29c-10 -34 -28 -63.333 -54 -88
c-50 -50 -109.333 -84.333 -178 -103c-33.333 -9.33301 -65.333 -14 -96 -14zM129.997 -32.999c10.667 0 21.334 0.667969 32.001 2.00098c31.333 4 61.666 11.667 90.999 23c59.333 22.667 109.333 58.667 150 108c22.667 26 34 55 34 87c0 30 -11.667 53.667 -35 71
c-25.333 14.667 -53 22 -83 22h-23c-17.333 -2.66699 -34.666 -4.33398 -51.999 -5.00098l-26 -2c-60 -98.667 -110 -197.667 -150 -297l4 -1c19.333 -5.33301 38.666 -8 57.999 -8z" />
    <glyph glyph-name="C" unicode="C" horiz-adv-x="449" 
d="M123 -4c-38.667 0 -70 13.9961 -94 41.9961c-19.333 28 -29 59.667 -29 95c-0 62 20.333 128.333 61 199c26.667 48.667 57.667 94.334 93 137.001c-8 4.66699 -15.333 9.66699 -22 15c-30.667 22.667 -46 45.334 -46 68.001c0 10.667 3.33301 16 10 16
c2 0 4.16699 -1 6.5 -3s3.5 -5 3.5 -9v-6c0 -5.33301 1.66699 -11 5 -17c9.33301 -16.667 27 -33.667 53 -51l4 4c4 5.33301 8.33301 10.333 13 15c42.667 52 93.667 93.667 153 125c20 10.667 41.667 16 65 16c8.66699 0 17.667 -1.66699 27 -5
c31.333 -15.333 47 -40.666 47 -75.999c0 -24.667 -8.66699 -48 -26 -70s-39.666 -38.667 -66.999 -50s-55.333 -17 -84 -17c-38.667 0 -78.334 10.333 -119.001 31c-52 -65.333 -92.333 -131.666 -121 -198.999c-12 -28 -21 -57.667 -27 -89
c-2 -11.333 -3 -22.666 -3 -33.999c0 -60.667 21.667 -98.334 65 -113.001c12.667 -3.33301 25 -5 37 -5c16 0 31.667 2.66699 47 8c30 11.333 58 26 84 44c52 33.333 111 84.333 177 153c26 27.333 40.333 41 43 41c4 0 6 -1.66699 6 -5l-1 -4
c-61.333 -68.667 -127 -130 -197 -184c-62 -48 -116.667 -72 -164 -72zM304 436.996c42.667 0 81.333 13.666 116 40.999c23.333 19.333 37 44.333 41 75v4c0 12.667 -3 24.667 -9 36s-15.333 20 -28 26c-7.33301 3.33301 -15.333 5 -24 5
c-22 -1.33301 -42.333 -7.66602 -61 -18.999c-50 -28 -100.667 -74 -152 -138c36.667 -20 75.667 -30 117 -30z" />
    <glyph glyph-name="D" unicode="D" horiz-adv-x="623" 
d="M124 3c-8 0 -18.8301 0.833008 -32.4971 2.5s-27.334 8.16699 -41.001 19.5s-21.5 25 -23.5 41c0 18 3 33.333 9 46c18.667 30 44.334 52.667 77.001 68c16.667 10 34 18.667 52 26c32 65.333 69 127.666 111 186.999c48.667 69.333 96.667 126.333 144 171
c8 7.33301 16.333 11 25 11c6 0 9 -2.66699 9 -8c0 -4.66699 -9.66699 -15 -29 -31l-71 -73c-66.667 -76 -123 -159 -169 -249l28 9c72.667 19.333 146.667 29.333 222 30c4.66699 0 7 -2 7 -6c0 -0.666992 -0.5 -1.83398 -1.5 -3.50098s-20.167 -3.16699 -57.5 -4.5
c-70 -2.66699 -137.667 -15.667 -203 -39l-2 -1c-24.667 -51.333 -46 -104 -64 -158c-1.33301 -2.66699 -4.33301 -4 -9 -4c-4 0 -6 2.66699 -6 8c14.667 44.667 31.667 88.334 51 131.001l7 15c-78 -34.667 -117 -72 -117 -112c0 -25.333 11.667 -41 35 -47
c13.333 -3.33301 26.333 -5 39 -5c38 0 78 9.33301 120 28c122.667 50.667 226.667 128.334 312 233.001c54.667 66 88 127 100 183c2 10.667 3 21.334 3 32.001c0 21.333 -4 42 -12 62c-25.333 56 -83 85 -173 87c-110.667 0 -212.667 -32.333 -306 -97
c-28.667 -19.333 -54.834 -41.5 -78.501 -66.5s-43.834 -52.833 -60.501 -83.5c-2 -3.33301 -4.33301 -5 -7 -5h-4c-2 0 -3.83301 1.16699 -5.5 3.5s-2.5 4.5 -2.5 6.5c0 1.33301 0.666992 3 2 5c8.66699 15.333 19 30 31 44c104 117.333 234.333 184.333 391 201
c11.333 0.666992 23 1 35 1c26 0 51.667 -2.33301 77 -7c35.333 -5.33301 66 -20.333 92 -45c28 -31.333 42 -69 42 -113c0 -28.667 -5.66699 -57 -17 -85c-24 -58.667 -65 -120.334 -123 -185.001c-74.667 -80 -161.334 -142 -260.001 -186
c-52 -24.667 -100.667 -37 -146 -37z" />
    <glyph glyph-name="E" unicode="E" horiz-adv-x="475" 
d="M96 36c-31.333 2 -48.0029 18.999 -50.0029 50.999c2.66699 34 12.667 65.833 30 95.5s36.333 58.5 57 86.5l7 9c-18 -6 -35.333 -13 -52 -21c-25.333 -12.667 -44 -25.667 -56 -39c-9.33301 -10.667 -16.666 -16 -21.999 -16c-6.66699 0 -10 3 -10 9
c0 8 4.66699 16.333 14 25c16 14 38.667 26.667 68 38c24 10 48.333 18.333 73 25c38 52 78 102.333 120 151c50.667 57.333 88.667 98.666 114 123.999l13 12c-42.667 -7.33301 -83.667 -18 -123 -32c-12.667 -5.33301 -29 -13.666 -49 -24.999l-5 -1
c-6.66699 0 -10 3.33301 -10 10c0 2 1 4 3 6c23.333 15.333 49.333 25.333 78 30c4 0.666992 7.66699 1.66699 11 3c36 8.66699 72.667 15.334 110 20.001c8.66699 6 15 9 19 9c3.33301 0 6 -1.66699 8 -5c36.667 3.33301 82 5 136 5c3.33301 -0.666992 7 -1 11 -1h7
c24 0 47.667 -3 71 -9c1.33301 0 2.16602 -0.5 2.49902 -1.5s0.5 -1.83301 0.5 -2.5c0 -2 -1.33301 -3 -4 -3c-6 0 -25.667 1.66699 -59 5c-23.333 2 -47 3 -71 3c-32 0 -63.667 -1.66699 -95 -5c-0.666992 -1.33301 -1.66699 -2.33301 -3 -3
c-28 -22.667 -54 -47.667 -78 -75c-1.33301 -2 -3 -3.66699 -5 -5c-68 -74.667 -125.333 -142.667 -172 -204c58.667 10.667 117.334 16 176.001 16c32 0 64 -1.66699 96 -5c2.66699 0 4.33398 -1.66699 5.00098 -5c0 -3.33301 -1.66699 -5 -5 -5
c-37.333 1.33301 -74.666 2 -111.999 2c-58 0 -115.333 -6.66699 -172 -20h-2l-10 -14c-28 -34 -52.333 -69.333 -73 -106c-17.333 -32.667 -26 -59 -26 -79c0 -19.333 5.66699 -31 17 -35c6 -2 12 -3 18 -3c10 0 22.667 2.66699 38 8c31.333 10 61.5 22.167 90.5 36.5
s58.167 27 87.5 38s59.666 17.5 90.999 19.5c5.33301 0 8 -2.66699 8 -8c0 -6 -2.66699 -9.33301 -8 -10c-30.667 -2 -60.167 -8.16699 -88.5 -18.5s-56.166 -21.833 -83.499 -34.5l-45 -20c-30.667 -15.333 -61 -24 -91 -26z" />
    <glyph glyph-name="F" unicode="F" horiz-adv-x="424" 
d="M65 -38c-2.66699 0 -4.66406 0.833984 -5.99707 2.50098s-2 3.16699 -2 4.5l1 4c36 80 81 165.667 135 257c-11.333 -1.33301 -22.333 -3 -33 -5l-49 -14c-14 -4.66699 -21 -11 -21 -19v-5c0 -4.66699 -2.33301 -7 -7 -7c-9.33301 2.66699 -14 8.66699 -14 18
c0 4.66699 1 8.66699 3 12c7.33301 10.667 20.666 18.667 39.999 24l1 1c30 8.66699 61 14 93 16c21.333 36.667 43.333 72.667 66 108c42.667 67.333 82.334 126.333 119.001 177c13.333 19.333 27.666 38 42.999 56l-35 1c-115.333 0 -210.333 -16.667 -285 -50
c-34.667 -16.667 -61.334 -33.667 -80.001 -51c-8.66699 -8.66699 -13 -16.667 -13 -24c0 -4 2.33301 -8.66699 7 -14c1.33301 -1.33301 2 -2.66602 2 -3.99902c0 -4.66699 -2 -7 -6 -7c-16 1.33301 -24 11 -24 29c0 20 15 37.667 45 53c0.666992 0.666992 1.66699 1 3 1
c58 34.667 123 57 195 67c49.333 6.66699 99 10 149 10c135.333 0 270.666 -5.66699 405.999 -17c5.33301 -1.33301 8 -4 8 -8c0 -6 -2.66699 -9 -8 -9l-205 16c-47.333 3.33301 -95 5.66602 -143 6.99902c2.66699 -2.66699 4 -5.66699 4 -9s-17 -27 -51 -71
c-62.667 -80.667 -121.667 -167 -177 -259c30.667 1.33301 61.667 2 93 2c8 0 15.667 0.333008 23 1c20.667 0 41 0.333008 61 1h36l7 1c10 0 15 -2.33301 15 -7c0 -1.33301 -0.666992 -2.33301 -2 -3c-5.33301 -2.66699 -11 -4 -17 -4h-17
c-30.667 -0.666992 -53 -1.66699 -67 -3c-65.333 -2.66699 -113.333 -5.33398 -144 -8.00098l-11 -19c-46.667 -81.333 -90.667 -164 -132 -248c-1.33301 -2.66699 -3.33301 -4 -6 -4z" />
    <glyph glyph-name="G" unicode="G" horiz-adv-x="721" 
d="M238 -131l-2.00098 -0.00488281c-10 0 -18.167 3.5 -24.5 10.5s-9.83301 14.833 -10.5 23.5c0 10 0.666992 18.333 2 25c12.667 42 35.334 78.667 68.001 110c62 62.667 134.667 110 218 142l11 4c25.333 42 52.666 82.667 81.999 122l-7 -3
c-164 -92 -290.667 -152.333 -380 -181c-32 -9.33301 -64.333 -14.333 -97 -15c-34.667 0 -60.667 9.33301 -78 28c-13.333 17.333 -20 36 -20 56c0 10 3.33301 25.5 10 46.5s18.667 43.833 36 68.5c67.333 103.333 153.333 188.333 258 255c26 18 54 34.333 84 49
c37.333 18.667 78.666 29.334 123.999 32.001c20 0 37.333 -4.66699 52 -14c14 -11.333 21 -26.666 21 -45.999c0 -9.33301 -1.66699 -18.666 -5 -27.999c-12 -27.333 -28.667 -51 -50 -71s-44.666 -37 -69.999 -51c-61.333 -35.333 -109.333 -53 -144 -53
c-23.333 0 -35.666 3.33301 -36.999 10c0 3.33301 0.666992 6 2 8s3 3 5 3l4 -1c8 -1.33301 15.667 -2 23 -2c8 0 16 0.666992 24 2c55.333 12 106 34 152 66c23.333 15.333 43 34 59 56c9.33301 12 16.333 25 21 39c2 6 3 11.667 3 17c0 8.66699 -2 17 -6 25
c-8 12.667 -19.667 19.334 -35 20.001l-15 1c-10 0 -19.333 -1 -28 -3c-29.333 -6 -57.333 -16 -84 -30c-159.333 -86 -278.333 -200 -357 -342c-12.667 -22 -19 -42.333 -19 -61c0 -23.333 8.66699 -39 26 -47c10.667 -6 22.334 -9.33301 35.001 -10h14
c56.667 0 111.667 11.333 165 34c60 24 118.333 50.667 175 80l87 46l42 24c8.66699 4.66699 16.667 10 24 16c10.667 9.33301 18 14 22 14c0.666992 0 2.66699 -0.666992 6 -2s5 -4.33301 5 -9c0 -2 -0.666992 -3.66699 -2 -5l-83 -129c33.333 10 67 18.333 101 25
c37.333 5.33301 72.333 16.666 105 33.999l3 1c1.33301 0 2.16602 -0.166992 2.49902 -0.5s1.16602 -2.16602 2.49902 -5.49902c0 -1.33301 -0.666992 -2.66602 -2 -3.99902c-35.333 -20 -73 -33 -113 -39l-24 -5c-29.333 -6.66699 -58.666 -15 -87.999 -25l-74 -113
c-25.333 -37.333 -53 -73 -83 -107c-29.333 -36.667 -65 -65 -107 -85c-9.33301 -4 -19 -6 -29 -6zM238.999 -112.005l10.001 3c20.667 7.33301 39.334 18.666 56.001 33.999c32 28.667 61 60.334 87 95.001c20.667 28 49.334 71 86.001 129l9 14v-1h-2
c-78.667 -31.333 -147.334 -77 -206.001 -137c-36.667 -38 -57.667 -74.333 -63 -109v-7c0 -2 0.166992 -4.83301 0.5 -8.5s2.16602 -6.66699 5.49902 -9s6.66602 -3.5 9.99902 -3.5h7z" />
    <glyph glyph-name="H" unicode="H" horiz-adv-x="572" 
d="M60 -37c-4.66699 0 -6.99805 1.66406 -6.99805 4.99707c0 1.33301 0.333008 2.33301 1 3c52.667 102.667 112 201.667 178 297l17 25c-26.667 -1.33301 -53.334 -3.33301 -80.001 -6c-31.333 -3.33301 -62 -9.33301 -92 -18c-27.333 -6 -50 -19 -68 -39
c-0.666992 -1.33301 -1.66699 -2 -3 -2h-2c-1.33301 0 -2.33301 0.5 -3 1.5s-1 1.83301 -1 2.5c0 1.33301 0.333008 2.33301 1 3c15.333 24 37.333 39.667 66 47c31.333 10 63.333 16.667 96 20s65.334 6 98.001 8c40 56.667 63.667 89.667 71 99
c25.333 34 49.666 69 72.999 105c30.667 48 49.667 91 57 129l1 8c0 30 -18 45 -54 45c-10.667 0 -21.667 -1.66699 -33 -5c-80.667 -24 -150 -67 -208 -129c-42.667 -45.333 -74 -97.333 -94 -156c-6.66699 -21.333 -10 -37.333 -10 -48c0 -5.33301 1.33301 -10 4 -14
c1.33301 -1.33301 2 -3 2 -5c0 -1.33301 -0.833008 -3.33301 -2.5 -6s-4.16699 -4.66699 -7.5 -6c-4 0 -7.33301 1.33301 -10 4c-6 8.66699 -9 17.334 -9 26.001c0 11.333 4.66699 26.333 14 45c28 67.333 68.667 127.333 122 180
c69.333 66.667 142.666 107.334 219.999 122.001c6.66699 1.33301 13.334 2 20.001 2c12 0 23 -2.33301 33 -7c19.333 -10.667 29.333 -27 30 -49c-2 -67.333 -48.333 -157.666 -139 -270.999l-48 -67c18.667 0.666992 37 2 55 4c85.333 7.33301 163.333 37 234 89
c51.333 64.667 101.333 119.667 150 165c18.667 16 28.5 24.5 29.5 25.5s2.16699 1.5 3.5 1.5c2.66699 0 4.66699 -1.66699 6 -5c0 -2.66699 -0.333008 -4.66699 -1 -6c-33.333 -42 -68.333 -82.667 -105 -122l-4 -4c-64.667 -74 -126 -150.667 -184 -230
s-110 -162.333 -156 -249c-0.666992 -1.33301 -2 -2 -4 -2c-2.66699 0 -4.33398 0.5 -5.00098 1.5s-1 3.16699 -1 6.5c76 140.667 157.667 268.667 245 384c-62 -39.333 -130 -62.333 -204 -69c-23.333 -2.66699 -47 -5 -71 -7c-86.667 -114 -159 -224 -217 -330
c-0.666992 -1.33301 -2 -2 -4 -2z" />
    <glyph glyph-name="I" unicode="I" horiz-adv-x="434" 
d="M181 -10c-3.33301 0 -5.50195 0.834961 -6.50195 2.50195s-1.5 3.16699 -1.5 4.5s7.33301 17 22 47v1c-62 -8.66699 -122.667 -23.334 -182 -44.001l-4 -1c-2.66699 0 -4.83398 1 -6.50098 3s-2.5 4.66699 -2.5 8c0 5.33301 2.33301 8.66602 7 9.99902
c63.333 18.667 128 30.667 194 36c62.667 122 121.334 230 176.001 324c19.333 33.333 55.333 92.333 108 177c5.33301 8.66699 12.333 18.667 21 30v1c0 0.666992 0.333008 1 1 1c-43.333 -1.33301 -86.666 -4.33301 -129.999 -9
c-80.667 -9.33301 -152.334 -22.333 -215.001 -39c-39.333 -10 -60.666 -15 -63.999 -15c-6.66699 0 -10 3.33301 -10 10c0 9.33301 26.333 18.333 79 27c2 0.666992 4.33301 1 7 1c112.667 23.333 226.667 36 342 38c6 9.33301 11.667 14 17 14
c7.33301 -1.33301 11 -5 11 -11v-2c102.667 0 192.334 -6.66699 269.001 -20c2.66699 -0.666992 4 -2.33398 4 -5.00098c0 -4 -1.66699 -6 -5 -6c-45.333 6 -98 11.333 -158 16c-38.667 1.33301 -77.334 2 -116.001 2l-12 -20c-1.33301 -1.33301 -19 -28 -53 -80l-11 -18
c-86.667 -135.333 -167.334 -273.666 -242.001 -414.999c23.333 2 47 3 71 3c30 0 60.333 -1.33301 91 -4c60.667 -5.33301 91 -10.333 91 -15l1 -1c0 -2 -1.33301 -3 -4 -3c-11.333 0.666992 -22.666 2 -33.999 4c-8 2 -15.667 3.33301 -23 4c-36 4 -72 6 -108 6
c-21.333 0 -43 -0.666992 -65 -2l-26 -3l-29 -54c-1.33301 -2 -2.66602 -3 -3.99902 -3z" />
    <glyph glyph-name="J" unicode="J" horiz-adv-x="487" 
d="M62 -41c-4 0 -11.002 0.666016 -21.002 1.99902s-20.333 7.66602 -31 18.999c-6.66699 8.66699 -10 18.334 -10 29.001c0 5.33301 1.83301 13.833 5.5 25.5s9.5 24.167 17.5 37.5c18.667 32 41.5 60.667 68.5 86s55.167 49 84.5 71c100 76 205.667 137 317 183
c47.333 80.667 71 130.667 71 150c0 13.333 -6 25 -18 35c-14 8.66699 -29 13 -45 13c-17.333 0 -35.666 -2 -54.999 -6c-74 -16.667 -143 -45.667 -207 -87c-30 -16.667 -58 -35.667 -84 -57c-13.333 -10.667 -25.333 -22.667 -36 -36c-6.66699 -8 -12 -15.667 -16 -23v-1
c6 -1.33301 9 -4.33301 9 -9c0 -2.66699 -1 -5 -3 -7c-5.33301 -5.33301 -11.333 -8 -18 -8c-2.66699 0 -5.66699 0.333008 -9 1s-5.66602 2 -6.99902 4s-2 4 -2 6l1 3c6 14 14.333 27 25 39c1.33301 0.666992 2.33301 1.66699 3 3c24 28 52.333 52 85 72
c122.667 74.667 226.334 112.667 311.001 114c21.333 0 39.333 -4 54 -12c17.333 -10 26 -26.667 26 -50c0 -20 -9 -47.333 -27 -82l-25 -48l53 20c35.333 12.667 53.666 19 54.999 19s2.5 -0.5 3.5 -1.5s1.5 -2.5 1.5 -4.5c-0.666992 -2.66699 -2 -4.33398 -4 -5.00098
c-46 -15.333 -75 -25.666 -87 -30.999l-30 -11c-27.333 -49.333 -57.666 -96.666 -90.999 -141.999c-70 -96.667 -148.667 -181 -236 -253c-28.667 -25.333 -61 -43.333 -97 -54c-10.667 -2.66699 -21.334 -4 -32.001 -4zM56.998 -23.001c26.667 0 54.667 9.99805 84 29.998
s56 42.333 80 67l2 1c26 24.667 51.333 50.334 76 77.001c69.333 74 131 156 185 246c-116 -50 -223.667 -114.333 -323 -193c-28 -21.333 -54.167 -44.5 -78.5 -69.5s-43.833 -53.5 -58.5 -85.5l-1 -1c-8 -16 -12 -29 -12 -39c0 -13.333 6.33301 -22.666 19 -27.999
c8 -3.33301 17 -5 27 -5z" />
    <glyph glyph-name="K" unicode="K" horiz-adv-x="396" 
d="M8 -84l-1.99902 -0.00292969c-4 0 -6 2.33301 -6 7l14 34c49.333 132 94 240.667 134 326c-33.333 12.667 -67.333 22.667 -102 30c-2.66699 0.666992 -4 2.66699 -4 6c0 1.33301 0.666992 2.83301 2 4.5s3.33301 2.5 6 2.5c14.667 -2 29 -3 43 -3
c26.667 0 53 3.33301 79 10c51.333 108 110 202.667 176 284l7 10c14.667 19.333 31 37 49 53c1.33301 0.666992 3 1 5 1s3.66699 -0.666992 5 -2s2 -2.66602 2 -3.99902l-1 -4c-10.667 -16.667 -23 -32.667 -37 -48c-7.33301 -8 -14.333 -16.667 -21 -26
c-58.667 -77.333 -112.667 -163 -162 -257c80 28 150.667 71 212 129c45.333 40.667 85.333 79.667 120 117c23.333 24.667 47.666 48.334 72.999 71.001c2 0.666992 4.66699 1 8 1c2.66699 -1.33301 4 -3.66602 4 -6.99902s-15.333 -20.333 -46 -51l-33 -33
c-12 -12.667 -24.333 -25 -37 -37c-60 -64.667 -128 -119.667 -204 -165c-33.333 -18.667 -68.666 -33 -105.999 -43l-17 -32c29.333 -13.333 60 -36 92 -68l11 -12c52 -74 123.667 -111 215 -111c12.667 0 19.5 -0.5 20.5 -1.5s1.5 -2.16699 1.5 -3.5
c0 -3.33301 -14.667 -5 -44 -5c-42.667 0 -78.834 8.83301 -108.501 26.5s-57.167 41.5 -82.5 71.5c-28.667 34 -65.667 64 -111 90c-56.667 -116.667 -106.667 -236 -150 -358c-1.33301 -2 -3 -3 -5 -3zM154.001 294.997l10 22c-17.333 -4 -35 -6.33301 -53 -7
c14.667 -4.66699 29 -9.66699 43 -15z" />
    <glyph glyph-name="L" unicode="L" horiz-adv-x="238" 
d="M43 11h-7.99609c-23.333 5.33301 -35 23 -35 53l1 13c5.33301 38 17.666 73.667 36.999 107c18 34.667 37.667 68.334 59 101.001c41.333 64.667 86.666 126.667 135.999 186c56 68.667 109 124 159 166c1.33301 1.33301 3 2 5 2c6 0 9 -2.33301 9 -7
c0 -4 -14.333 -19.667 -43 -47l-46 -48c-78.667 -84 -148.334 -174 -209.001 -270c-20.667 -30.667 -39.667 -62.334 -57 -95.001c-18.667 -32 -30.334 -66.667 -35.001 -104c0 -6 0.666992 -12.5 2 -19.5s4.5 -12.333 9.5 -16s10.5 -5.5 16.5 -5.5c8 0 18 2.33301 30 7
c35.333 12 70 25.667 104 41c26 10.667 53.333 17 82 19c17.333 1.33301 35 2 53 2l35 -1h39c4.66699 0 7 -2 7 -6c0 -0.666992 -0.5 -2.16699 -1.5 -4.5s-21.833 -3.5 -62.5 -3.5h-11c-26.667 0 -54.5 -2 -83.5 -6s-60.833 -15.333 -95.5 -34
c-14 -7.33301 -28.667 -13 -44 -17l-9 -3c-14 -6.66699 -28.667 -10 -44 -10z" />
    <glyph glyph-name="M" unicode="M" horiz-adv-x="870" 
d="M87 48c-5.33301 0 -8 1.99805 -8 5.99805l1 3c84.667 110.667 165 237.334 241 380.001c22 40 39.333 82 52 126c2.66699 11.333 4 23 4 35c0 6.66699 -1 16.334 -3 29.001s-12.667 22.334 -32 29.001c-8 2 -16 3 -24 3c-12.667 0 -25.334 -2.33301 -38.001 -7
c-20.667 -6 -40.334 -14.333 -59.001 -25c-76.667 -41.333 -134.667 -100.666 -174 -177.999c-20 -40 -30 -83 -30 -129c0 -34 13 -62 39 -84c1.33301 -1.33301 2 -3.33301 2 -6s-1.66699 -4 -5 -4c-10 0 -18.667 3.33301 -26 10s-13 14.667 -17 24
c-6.66699 18 -10 36.333 -10 55c0 52 14.667 102.333 44 151c47.333 79.333 112.666 139 195.999 179c26 13.333 54.333 21.666 85 24.999c11.333 0 22.333 -2 33 -6c26 -13.333 39 -38.666 39 -75.999c0 -8 -0.666992 -16 -2 -24c-10 -48 -27.333 -93.333 -52 -136
c-13.333 -26.667 -21 -41.334 -23 -44.001c42.667 53.333 90.334 101.333 143.001 144c26.667 22.667 55.667 41.667 87 57c14.667 6.66699 28 10 40 10c4.66699 0 10.167 -0.833008 16.5 -2.5s11.166 -7.5 14.499 -17.5l1 -10c0 -10 -3.66699 -22.333 -11 -37l-1 -3
c-18.667 -40.667 -47.334 -89.334 -86.001 -146.001l-17 -24c60.667 68 125.334 131.667 194.001 191c21.333 18.667 43.666 35.667 66.999 51c16.667 12 29.667 18 39 18c4 0 8 -1 12 -3c7.33301 -5.33301 11 -13 11 -23s-1.66699 -21 -5 -33
c-0.666992 -0.666992 -1 -1.66699 -1 -3c-7.33301 -25.333 -17.666 -49.333 -30.999 -72l-60 -105c-8 -14.667 -16.333 -29 -25 -43l-82 -139c-13.333 -23.333 -22.666 -47.666 -27.999 -72.999l-1 -12c0 -2 0.166992 -5.16699 0.5 -9.5s3.16602 -8.66602 8.49902 -12.999
s12.333 -6.5 21 -6.5l12 1c24.667 6.66699 47.667 17 69 31c35.333 20.667 100.333 71 195 151c0.666992 0.666992 1.66699 1 3 1c2.66699 0 4.33398 -1 5.00098 -3c0 -1.33301 -1.16699 -3 -3.5 -5l-8.5 -7c-89.333 -75.333 -157.333 -126.333 -204 -153
c-22 -12.667 -45.333 -20.667 -70 -24h-2c-26 0 -39 16 -39 48c0 16 2.66699 32 8 48c14.667 46.667 37.334 93 68.001 139l70 122c12 18.667 20 32 24 40c24 40 40.333 72 49 96c4 8 6.16699 12.833 6.5 14.5s0.5 3.16699 0.5 4.5c2 4 3 8 3 12
c-1.33301 5.33301 -4.33301 8 -9 8c-0.666992 0 -3.33398 -0.166992 -8.00098 -0.5s-17.667 -7.5 -39 -21.5c-16 -10 -41 -30.333 -75 -61c-88.667 -79.333 -173.667 -172.333 -255 -279c-34.667 -50.667 -52.334 -76 -53.001 -76c-2.66699 0 -4.66699 1 -6 3l-1 2
c0 1.33301 9.33301 15.666 28 42.999l41 70c20 38 41.333 75.333 64 112c18 29.333 38 60.333 60 93c12.667 19.333 22.834 36.166 30.501 50.499s11.5 24.5 11.5 30.5c0 4 -2.16699 7.5 -6.5 10.5s-9.16602 4.5 -14.499 4.5l-12 -2c-18 -4 -38.333 -14.667 -61 -32
c-27.333 -18 -53 -38.333 -77 -61c-47.333 -44 -90.333 -91.667 -129 -143c-2.66699 -3.33301 -5 -6.5 -7 -9.5s-4 -5.5 -6 -7.5l-21 -36c-53.333 -86 -112.666 -167.667 -177.999 -245c-0.666992 -0.666992 -1.66699 -1 -3 -1z" />
    <glyph glyph-name="N" unicode="N" horiz-adv-x="576" 
d="M23 -11l-2.00293 -0.00488281c-0.666992 0 -1.66699 0.666992 -3 2v5l1 3l-2 2v4c6 10 12.667 20 20 30c44 87.333 94.667 170.666 152 249.999c8 11.333 38 51.666 90 120.999c49.333 64 79.333 103.667 90 119c14.667 20.667 27.334 42 38.001 64l1 4
c5.33301 9.33301 9.33301 20 12 32l1 8c0 8 -3 15.333 -9 22c-9.33301 6.66699 -19.333 10 -30 10c-12 0 -26 -3.33301 -42 -10c-20 -7.33301 -39.333 -16 -58 -26c-74 -40 -135.333 -94.333 -184 -163c-35.333 -50.667 -60.333 -107 -75 -169l-1 -4
c-2 -8.66699 -3 -18.667 -3 -30c0 -8.66699 3 -16 9 -22c2 -2 3 -4 3 -6c0 -0.666992 -0.333008 -2 -1 -4s-2 -3.66699 -4 -5s-3.33301 -2 -4 -2c-2 0 -4 0.666992 -6 2c-10.667 8.66699 -16 19.667 -16 33c0 20 9.33301 52.667 28 98
c58.667 135.333 150.334 233 275.001 293c2 0.666992 3.66699 1.66699 5 3c11.333 5.33301 24.166 10.833 38.499 16.5s28.166 8.5 41.499 8.5c16.667 0 30.334 -5.66699 41.001 -17c7.33301 -9.33301 11 -19.333 11 -30c0 -10 -3 -22.333 -9 -37
c-17.333 -46 -56 -106.667 -116 -182l-112 -148c-30 -39.333 -59 -79.333 -87 -120c112.667 145.333 242.667 274.333 390 387l4 3c20.667 16.667 42.334 32.334 65.001 47.001c15.333 10 28.333 17 39 21s18.334 6 23.001 6c2.66699 0 5.66699 -0.666992 9 -2
c8.66699 -5.33301 13 -12.666 13 -21.999s-3.66699 -21.333 -11 -36c-4.66699 -14.667 -15.667 -37.667 -33 -69c-2 -5.33301 -4.33301 -10.333 -7 -15c-42 -83.333 -70 -141 -84 -173c-20 -45.333 -35 -92.333 -45 -141v-2c-3.33301 -13.333 -6 -29.666 -8 -48.999l-1 -15
c0 -14 2.16699 -27.667 6.5 -41s15.833 -20.666 34.5 -21.999c14.667 0.666992 28.667 4.33398 42 11.001c37.333 16 70.666 40 99.999 72c1.33301 0.666992 3.33301 1 6 1c0.666992 0 1.33398 -1 2.00098 -3c0 -2.66699 -0.333008 -4.33398 -1 -5.00098
c-27.333 -32 -58.666 -56.667 -93.999 -74c-21.333 -12 -40 -18 -56 -18c-6 0 -12.333 1 -19 3c-21.333 10 -33.666 27.333 -36.999 52c-1.33301 12.667 -2 24.667 -2 36s0.666992 22.333 2 33c0.666992 0.666992 1 1.66699 1 3
c5.33301 56.667 18.666 111.334 39.999 164.001s45.333 103.667 72 153c19.333 34.667 34.333 62.334 45 83.001c16 30 24.333 46 25 48s1 5 1 9c-0.666992 1.33301 -3.33398 2 -8.00098 2c-12.667 0 -26 -4.66699 -40 -14h-1c-12.667 -7.33301 -25 -15.333 -37 -24
c-112.667 -80 -218.667 -174.667 -318 -284c-65.333 -71.333 -125.333 -146.666 -180 -225.999c-10 -16.667 -19.333 -34 -28 -52c-0.666992 -1.33301 -1.66699 -2 -3 -2z" />
    <glyph glyph-name="O" unicode="O" horiz-adv-x="496" 
d="M92 -5c-38 2 -65 20.3359 -81 55.0029c-7.33301 18 -11 36.667 -11 56c0 18 3 40 9 66c8.66699 37.333 21 73.333 37 108c30.667 68.667 73 130 127 184c58 59.333 116.333 97.666 175 114.999c18 17.333 37.333 33.333 58 48c31.333 23.333 66 37.666 104 42.999l12 1
c31.333 0 54.333 -14.333 69 -43c4.66699 -12.667 7 -25.334 7 -38.001c0 -20.667 -4.66699 -44 -14 -70c-15.333 -40 -34 -78 -56 -114c-42 -72 -90.333 -139.333 -145 -202c-52.667 -63.333 -112.667 -118.333 -180 -165c-44.667 -27.333 -81.667 -42 -111 -44z
M90 11.0029c18.667 0 41.666 6.66797 68.999 20.001c33.333 17.333 64.333 38.333 93 63c58.667 50.667 112.167 106.5 160.5 167.5s91.166 126.167 128.499 195.5c20 34.667 34 71.667 42 111l1 17c0 11.333 -2.33301 23.833 -7 37.5s-16 23.167 -34 28.5
c-6.66699 1.33301 -13 2 -19 2c-45.333 -3.33301 -92.666 -27 -141.999 -71c1.33301 -1.33301 2 -3.33301 2 -6c0 -3.33301 -2 -6 -6 -8l-20 -8l-1.5 -1.5c-0.333008 -0.333008 -0.833008 -0.5 -1.5 -0.5c-109.333 -108 -194.666 -232.333 -255.999 -373
c-2 -3.33301 -4.66699 -5 -8 -5s-6 1 -8 3s-3 4 -3 6c0 4.66699 8.33301 24 25 58c52 109.333 117.667 204.666 197 285.999c-54.667 -32 -102.334 -72.333 -143.001 -121c-46 -53.333 -81.333 -113 -106 -179c-13.333 -34 -23.333 -69 -30 -105
c-1.33301 -8 -2 -16.333 -2 -25c0 -10 1.33301 -22 4 -36s10.667 -27.667 24 -41c12.667 -10 26.334 -15 41.001 -15z" />
    <glyph glyph-name="P" unicode="P" horiz-adv-x="439" 
d="M45 -35c-2.66699 0 -4.66699 0.673828 -6 2.00684s-2 3 -2 5v2c20 52 43 102 69 150c38.667 74 81.334 145.333 128.001 214c-12 12 -18 25.667 -18 41c0 1.33301 0.166992 4.66602 0.5 9.99902s3.83301 11.666 10.5 18.999c0.666992 0.666992 1.66699 1 3 1
c2.66699 0 4.33398 -1 5.00098 -3l-1 -4c-5.33301 -6.66699 -8 -13.334 -8 -20.001c0 -11.333 5.66699 -21.333 17 -30l16 22c28.667 40.667 58.667 79.667 90 117c15.333 19.333 31.166 38.166 47.499 56.499s25.833 28.166 28.5 29.499
c7.33301 8.66699 15.666 15.334 24.999 20.001l4 1c4.66699 0 7 -2 7 -6l-1 -3c-4.66699 -10.667 -11.334 -20.334 -20.001 -29.001l-14 -16l-68 -80c-32.667 -40 -63.667 -81 -93 -123c14.667 -3.33301 29 -5 43 -5c9.33301 0 18.666 0.666992 27.999 2
c51.333 5.33301 100.333 19.666 147 42.999c40.667 20.667 77 47.667 109 81c40.667 39.333 61 80 61 122c0 26 -8 47.667 -24 65c-33.333 32 -84.666 48 -153.999 48c-22 0 -44.333 -2.33301 -67 -7c-89.333 -16.667 -169.333 -53.667 -240 -111
c-56 -44 -99.667 -97.667 -131 -161c-10 -20 -15 -41 -15 -63v-8c0 -6.66699 -3.33301 -10 -10 -10c-1.33301 0 -3.66602 0.5 -6.99902 1.5s-5 6.16699 -5 15.5c0 27.333 7.66699 53.666 23 78.999c46 74 104 134.333 174 181c86.667 58.667 182 90 286 94h5
c64 0 114 -14 150 -42c25.333 -22.667 38 -52 38 -88c0 -17.333 -3.33301 -34.666 -10 -51.999c-22 -49.333 -55 -90.333 -99 -123c-40.667 -32.667 -86 -56.334 -136 -71.001c-34.667 -10.667 -70 -16 -106 -16c-30.667 0 -54 3.33301 -70 10
c-58.667 -86 -105 -161.667 -139 -227l-66 -131c-1.33301 -2 -3 -3 -5 -3z" />
    <glyph glyph-name="Q" unicode="Q" horiz-adv-x="413" 
d="M321 -3c-6.66699 0 -14.8291 1.83301 -24.4961 5.5s-18.834 9.16699 -27.501 16.5c-18.667 16.667 -34.334 36 -47.001 58l-13 19c-59.333 -54 -105 -81 -137 -81c-7.33301 0 -14.666 1 -21.999 3c-26 10.667 -41.333 29.334 -46 56.001c-2.66699 14 -4 27.667 -4 41
c0 12 1 23.667 3 35c13.333 84 44.666 161.667 93.999 233v3c0 5.33301 6 21 18 47c41.333 88 100.666 160 177.999 216c36 27.333 71.667 42.333 107 45c16.667 0 31.5 -5 44.5 -15s21.833 -22.667 26.5 -38s7.33398 -31 8.00098 -47
c0 -35.333 -6.33301 -69.666 -19 -102.999c-49.333 -148.667 -127.333 -275.334 -234 -380.001l5 -10c9.33301 -18.667 19.666 -36.334 30.999 -53.001c19.333 -28 43.666 -42 72.999 -42c1.33301 0 2.33301 -0.5 3 -1.5s1 -2.16699 1 -3.5
c-1.33301 -2.66699 -7.33301 -4 -18 -4zM73.0049 32c9.33301 0 18.666 1.99805 27.999 5.99805c31.333 14 64 36.333 98 67c0.666992 1.33301 1.66699 2.33301 3 3l-34 54c-6 12 -15 27 -27 45c-1.33301 2.66699 -3 5.33398 -5 8.00098s-3 5.33398 -3 8.00098h-1v1
c-3.33301 0 -5.66602 0.5 -6.99902 1.5s-2 3.16699 -2 6.5c2 6.66699 6 10 12 10c3.33301 0 6.66602 -1 9.99902 -3c8 -7.33301 14.333 -16 19 -26c4 -5.33301 22 -34.666 54 -87.999l1 -2l3 4l19 18c80 86 141.667 183.667 185 293l1 2c26.667 60 40 108.667 40 146
c0 32.667 -7.66699 57.667 -23 75c-9.33301 10 -22.333 15 -39 15c-26.667 -2.66699 -51 -12 -73 -28c-73.333 -50 -131.666 -114.667 -174.999 -194c16 17.333 27 26 33 26c0.666992 0 2.33398 -0.5 5.00098 -1.5s4 -3.5 4 -7.5c0 -2.66699 -6 -10 -18 -22l-15 -17
c-60.667 -68 -102.667 -143.667 -126 -227c-8.66699 -26.667 -15 -53.667 -19 -81c-1.33301 -6.66699 -2 -13.334 -2 -20.001c0 -16.667 3.66699 -33 11 -49c9.33301 -15.333 23.666 -23 42.999 -23z" />
    <glyph glyph-name="R" unicode="R" horiz-adv-x="448" 
d="M9 -2c-6 0 -9.00391 2.00098 -9.00391 6.00098l1 4c43.333 76 94 156.667 152 242l-6 7c-5.33301 6 -11.166 11.667 -17.499 17s-13.166 8.33301 -20.499 9c-4 0.666992 -6.66699 2.66699 -8 6c0 4 0.833008 7.33301 2.5 10s4.5 4 8.5 4l31 -1c16 0 31.667 0.666992 47 2
c64 91.333 128.333 178.333 193 261c20.667 26 37.334 45 50.001 57c2.66699 1.33301 5.33398 2 8.00098 2c5.33301 0 8.66602 -2 9.99902 -6c1.33301 -1.33301 2 -2.66602 2 -3.99902c0 -2 -0.666992 -4 -2 -6c-12.667 -18 -26 -35 -40 -51l-12 -13
c-71.333 -84.667 -133.666 -164 -186.999 -238c42.667 5.33301 84 15.666 124 30.999c63.333 23.333 119.666 58.333 168.999 105c28 24 50.333 52 67 84c5.33301 12 8 23.667 8 35c0 21.333 -9.33301 40.333 -28 57c-19.333 15.333 -44 23 -74 23c-11.333 0 -23 -1 -35 -3
c-35.333 -5.33301 -69.166 -15.333 -101.499 -30s-62.333 -32.834 -90 -54.501s-52.834 -45.834 -75.501 -72.501c-2 -2 -4 -3 -6 -3c-7.33301 0 -11 3.66699 -11 11c0 2 0.333008 3.66699 1 5c26.667 33.333 57.667 61.833 93 85.5s72.333 42.5 111 56.5s78 21 118 21
c38.667 0 71 -14.667 97 -44c12 -18 18 -36 18 -54c0 -16 -7.16699 -36.5 -21.5 -61.5s-34.833 -49.5 -61.5 -73.5c-89.333 -84.667 -195.666 -132 -318.999 -142c-2.66699 -4 -5.5 -8 -8.5 -12s-5.83301 -8.33301 -8.5 -13l37 -38c24 -26 49.333 -50.833 76 -74.5
s56 -43.167 88 -58.5c28 -12.667 58.667 -19 92 -19c1.33301 0 11.5 0.333008 30.5 1s37.5 16.334 55.5 47.001c1.33301 1.33301 3.33301 2 6 2c0.666992 0 1.5 -0.5 2.5 -1.5s1.5 -1.83301 1.5 -2.5l-1 -4c-18 -30 -45 -47.333 -81 -52c-10 -1.33301 -19.667 -2 -29 -2
c-82.667 0 -169.334 49.667 -260.001 149l-32 34c-52 -77.333 -102.333 -156.333 -151 -237c-1.33301 -2 -2.66602 -3 -3.99902 -3zM165.996 269.001l9 13h-23z" />
    <glyph glyph-name="S" unicode="S" horiz-adv-x="502" 
d="M205 48c-35.333 0 -70.668 5.33105 -106.001 15.998c-35.333 8.66699 -64 27.334 -86 56.001c-8.66699 13.333 -13 27.666 -13 42.999s5.33301 29 16 41c1.33301 1.33301 2.66602 2 3.99902 2c3.33301 0 5.33301 -0.833008 6 -2.5s1 -2.83398 1 -3.50098l-1 -4
c-6.66699 -9.33301 -10 -19.333 -10 -30c0 -5.33301 0.666992 -10.666 2 -15.999c10.667 -32 38.667 -53 84 -63c34 -10 68.333 -15 103 -15c47.333 0 92.333 9.33301 135 28c17.333 7.33301 32.333 18 45 32s19 30.667 19 50c-1.33301 19.333 -9.66602 34.833 -24.999 46.5
s-31 20.834 -47 27.501c-23.333 9.33301 -47.333 17.333 -72 24l-32 10c-34.667 10 -66.334 25.333 -95.001 46c-16 11.333 -26.333 26.333 -31 45l-1 11c0 14.667 4.33301 28.667 13 42c21.333 32 47.666 59.333 78.999 82c28 22 57.333 42.333 88 61
c-0.666992 0.666992 -1.33398 1.16699 -2.00098 1.5s-1 0.833008 -1 1.5c-28 22 -42 47.333 -42 76c0 8.66699 0.833008 13.167 2.5 13.5s2.83398 0.5 3.50098 0.5c2 0 3 -1.66699 3 -5v-3c0 -28.667 15 -55.334 45 -80.001c64 36.667 132 62.667 204 78
c34.667 8.66699 67.667 13 99 13l7 -1c34.667 0 59 -10.333 73 -31c5.33301 -8 8 -16.333 8 -25c0 -19.333 -10.333 -37 -31 -53c-48.667 -36.667 -106.667 -55 -174 -55c-62 0 -118.333 16.667 -169 50c-46.667 -26.667 -89.667 -58 -129 -94l-4 -3
c-32 -27.333 -48 -50.666 -48 -69.999c0 -6 1.5 -12.333 4.5 -19s8.16699 -13.167 15.5 -19.5s14.666 -11.5 21.999 -15.5c14.667 -9.33301 30.334 -17.166 47.001 -23.499s33.334 -12.166 50.001 -17.499s33.334 -11 50.001 -17c32.667 -10 61.334 -27 86.001 -51
c13.333 -16.667 20 -34.334 20 -53.001c0 -12 -3 -24.667 -9 -38c-18 -32 -45 -54 -81 -66c-42 -15.333 -84 -23 -126 -23zM479.998 518.998c54.667 0 106 15 154 45c7.33301 4.66699 14.333 10.667 21 18c8.66699 9.33301 13 19.333 13 30c0 12.667 -6 23 -18 31
c-13.333 6.66699 -27.666 10 -42.999 10c-15.333 -0.666992 -30 -2.33398 -44 -5.00098c-72 -11.333 -140.667 -32.666 -206 -63.999c-14 -6 -27.333 -12.667 -40 -20c49.333 -30 103.666 -45 162.999 -45z" />
    <glyph glyph-name="T" unicode="T" horiz-adv-x="258" 
d="M58 32h-1.99902c-9.33301 4 -14 11.667 -14 23c0 10.667 12 42.334 36 95.001c67.333 149.333 155 288.333 263 417c-77.333 -17.333 -149 -26 -215 -26c-44 0 -79.333 10.333 -106 31c-13.333 9.33301 -20 20.666 -20 33.999c0 12 5.33301 19.667 16 23l5 1
c7.33301 0 11 -3.33301 11 -10c-1.33301 -2 -2.16602 -3.16699 -2.49902 -3.5s-0.833008 -0.666016 -1.5 -0.999023s-1.33398 -0.833008 -2.00098 -1.5c-2.66699 -2 -4 -4.33301 -4 -7c0 -6.66699 4.66699 -13.334 14 -20.001c6 -4.66699 12 -8 18 -10
c26 -10.667 53.333 -16 82 -16h26c64 0 127.333 6.33301 190 19l2 2c12.667 16 26.667 30.667 42 44c2 1.33301 4.66699 2 8 2c4.66699 -0.666992 7 -3.33398 7 -8.00098c0 -3.33301 -8 -14.333 -24 -33l96 20c56.667 12.667 113.667 21.667 171 27
c3.33301 0.666992 7 1 11 1c15.333 2 30.666 3.33301 45.999 4l19 -1c22.667 -1.33301 41 -10.666 55 -27.999l2 -5c0 -1.33301 -1 -3.33301 -3 -6s-5.33301 -4 -10 -4c-2.66699 0 -5 1.66699 -7 5c-12 18 -33.667 27 -65 27c-38.667 0 -76.667 -3 -114 -9
c-56 -9.33301 -111.333 -20.333 -166 -33l-46 -10l-16 -19c-120 -145.333 -216.333 -299 -289 -461c-4 -8 -7.66699 -15.667 -11 -23s-5 -13.666 -5 -18.999c0 -4.66699 1.5 -7.83398 4.5 -9.50098s4.5 -3.5 4.5 -5.5c-1.33301 -4 -3.33301 -6 -6 -6z" />
    <glyph glyph-name="U" unicode="U" horiz-adv-x="568" 
d="M351 -112l-2.00293 0.00390625c-0.666992 0 -2 0.166992 -4 0.5s-3 12.833 -3 37.5c0 41.333 11.333 92.333 34 153c38.667 106.667 88.667 207.667 150 303c42 67.333 86.667 132.666 134 195.999c-46 -48.667 -89.333 -99 -130 -151l-66 -85l-86 -109
c-50 -63.333 -104 -123.333 -162 -180c-40.667 -36.667 -73.334 -56 -98.001 -58c-17.333 0 -29.666 6.66699 -36.999 20c-5.33301 10.667 -8 22 -8 34v8c4.66699 35.333 14.334 69 29.001 101c32 78 88.333 166 169 264l9 12c46.667 58 90.667 117.667 132 179l2 3
c10 12.667 16.667 26.667 20 42c0 10 -2 16.5 -6 19.5s-8.66699 4.83301 -14 5.5c-6 0 -11.333 -0.333008 -16 -1c-42.667 -4.66699 -82 -18.667 -118 -42c-68 -39.333 -127 -89 -177 -149c-24 -29.333 -44 -61.333 -60 -96c-14 -32 -21 -60.667 -21 -86
c0 -12.667 1.66699 -25.334 5 -38.001v-2c0 -3.33301 -1 -6 -3 -8s-4.66699 -3 -8 -3c-0.666992 0 -2.16699 0.166992 -4.5 0.5s-4.16602 2.83301 -5.49902 7.5c-4 13.333 -6 27 -6 41l1 19c8 40 23.667 77 47 111c19.333 32 42 61.333 68 88c54.667 56.667 117 103 187 139
c34.667 18.667 71.334 29 110.001 31c18.667 0 31 -7.66699 37 -23c1.33301 -5.33301 2 -10.666 2 -15.999c0 -10 -2.33301 -19.667 -7 -29c-14 -29.333 -30.667 -57.333 -50 -84l-7 -9c-21.333 -31.333 -43.666 -62 -66.999 -92c-47.333 -58 -91.333 -118 -132 -180
c-42 -60.667 -72.667 -126.334 -92 -197.001c-2.66699 -9.33301 -4 -18 -4 -26c0 -6 1.33301 -11.667 4 -17c5.33301 -8.66699 12.333 -13 21 -13c9.33301 0 19.666 3.66699 30.999 11c36 20 67.667 45.333 95 76c57.333 59.333 111.333 121.666 162 186.999l52 67l101 126
c52 62 106.333 122.333 163 181c3.33301 3.33301 6 5 8 5c3.33301 0 5.83301 -1 7.5 -3s2.5 -3.66699 2.5 -5l-2 -4c-25.333 -41.333 -52 -82 -80 -122l-24 -35c-110 -156.667 -191.333 -301 -244 -433l-1 -2c-10.667 -26.667 -20 -53.667 -28 -81
c-6.66699 -22.667 -10 -45.334 -10 -68.001l1 -18c0 -1.33301 -0.333008 -2.33301 -1 -3z" />
    <glyph glyph-name="V" unicode="V" horiz-adv-x="437" 
d="M105 -52c-3.33301 0 -5.99902 0.99707 -7.99902 2.99707s-3 4 -3 6l1 4l124 322l58 144c36.667 84.667 58 153.334 64 206.001c1.33301 9.33301 2 19 2 29c-0.666992 10 -3.66699 19.333 -9 28c-11.333 15.333 -26 23 -44 23c-22 0 -44 -6.66699 -66 -20
c-37.333 -24 -68.666 -54.667 -93.999 -92c-24.667 -33.333 -45.667 -69.833 -63 -109.5s-29.333 -80.834 -36 -123.501c-4.66699 -32 -7 -64.333 -7 -97l1 -32c0 -8 -4 -12 -12 -12s-12 3.5 -12 10.5v19.5c0 45.333 6.33301 90 19 134c24.667 95.333 68.667 178 132 248
c28 34.667 62.667 60.334 104 77.001c12 4 25.667 6 41 6c24 0 43 -10.333 57 -31c8 -15.333 12 -31.666 12 -48.999c0 -58 -20 -133.667 -60 -227c-2.66699 -5.33301 -24 -57.333 -64 -156l-1 -2l-82 -195c81.333 122 178 236 290 342
c84.667 78.667 155 135.334 211 170.001c25.333 15.333 52.666 25.666 81.999 30.999h2c5.33301 0 8 -3 8 -9c0 -4.66699 -2.66699 -7.33398 -8 -8.00098c-32.667 -3.33301 -62.834 -14.166 -90.501 -32.499s-53.5 -38.166 -77.5 -59.499l-7 -5
c-90.667 -76 -174.5 -159 -251.5 -249s-145.167 -186.333 -204.5 -289c-2 -3.33301 -4.66699 -5 -8 -5z" />
    <glyph glyph-name="W" unicode="W" horiz-adv-x="736" 
d="M105 12c-8.66699 0 -15.3291 2.49414 -19.9961 7.49414s-7 10.833 -7 17.5c0 10 1 18.667 3 26c18.667 64.667 46 126 82 184c40.667 64.667 84.5 127.5 131.5 188.5s86.5 116.5 118.5 166.5l16 25c9.33301 13.333 17.666 27 24.999 41c3.33301 7.33301 5 17 5 29
c-0.666992 4.66699 -6 8.33398 -16 11.001c-5.33301 1.33301 -10.666 2 -15.999 2c-8 0 -16.333 -1.66699 -25 -5c-62 -20 -118.333 -50 -169 -90s-94 -86 -130 -138c-32.667 -45.333 -59 -102.666 -79 -171.999c-2 -5.33301 -6 -8 -12 -8
c-3.33301 0 -6.16602 0.833008 -8.49902 2.5s-3.5 4.16699 -3.5 7.5l1 4c4 14.667 9 29.334 15 44.001c26 57.333 59.167 110.5 99.5 159.5s86.833 91.167 139.5 126.5c34 23.333 76 45.333 126 66l4 1c18 8 34.333 12 49 12c26.667 0 41.334 -12.333 44.001 -37
c-0.666992 -16 -5.33398 -30.667 -14.001 -44c-0.666992 -2 -1.66699 -3.66699 -3 -5c-7.33301 -15.333 -15.333 -30.333 -24 -45c-39.333 -61.333 -81.333 -121 -126 -179c-38.667 -51.333 -76 -104 -112 -158c-38 -56.667 -69 -116.667 -93 -180l-2 -5
c-5.33301 -12.667 -8 -22.667 -8 -30c0 -4.66699 2 -7.66699 6 -9c8 0 15 2 21 6l107 109l90 92l267 277c1.33301 1.33301 2.66602 2 3.99902 2c3.33301 0 5.5 -0.666992 6.5 -2s1.5 -3.66602 1.5 -6.99902l-6 -17c-6.66699 -19.333 -14.334 -38.333 -23.001 -57l-43 -93
l-55.5 -124c-17.667 -41.333 -31.167 -83.666 -40.5 -126.999l-1 -2l-3 -17v-6c0 -11.333 4 -18.666 12 -21.999c9.33301 0 17.666 2.66699 24.999 8c12 10 19 16.667 21 20c54 56.667 101.667 118.334 143 185.001l25 37c33.333 52 68.333 103 105 153
c25.333 32.667 53 64 83 94c10.667 12.667 23.334 23.667 38.001 33c6.66699 4.66699 13.667 7 21 7s14.666 -2.66699 21.999 -8c2.66699 -2.66699 4 -5 4 -7c0 -5.33301 -3 -9 -9 -11l-4 -1c-2.66699 0 -5.33398 1.16699 -8.00098 3.5s-5.66699 3.5 -9 3.5
c-10 0 -24.333 -9.33301 -43 -28c-16 -15.333 -31.667 -31.666 -47 -48.999c-42.667 -48 -89.334 -113 -140.001 -195l-72 -109c-22.667 -32 -46.667 -62.667 -72 -92c-27.333 -32.667 -48 -52.334 -62 -59.001c-5.33301 -3.33301 -11.333 -5 -18 -5l-8 1
c-13.333 3.33301 -22 10.666 -26 21.999c-2.66699 8.66699 -4 18 -4 28l1 17c1.33301 18 3 29 5 33c9.33301 44 24 86.333 44 127v2c28.667 64 60 130 94 198l5 10c-44.667 -43.333 -88 -88 -130 -134l-270 -282c-9.33301 -11.333 -20.666 -20.333 -33.999 -27
c-4.66699 -2 -9.33398 -3 -14.001 -3z" />
    <glyph glyph-name="X" unicode="X" horiz-adv-x="509" 
d="M47 -62c-24.667 0 -40.333 10.6699 -47 32.0029v2c-0 2 0.833008 3.5 2.5 4.5s3.5 1.5 5.5 1.5c2 -0.666992 3.33301 -2.33398 4 -5.00098c2.66699 -8.66699 7.33398 -14.5 14.001 -17.5s13 -4.5 19 -4.5h6c18.667 3.33301 36 10 52 20c30.667 17.333 59 38 85 62
c47.333 42.667 91.333 88.667 132 138l2 2c5.33301 83.333 34.666 178.666 87.999 285.999l78 150l5 9c10.667 19.333 16 34 16 44c0 7.33301 -2.66699 14.666 -8 21.999c-8.66699 8.66699 -21 13 -37 13c-8 0 -15.667 -0.666992 -23 -2
c-46.667 -12 -89.667 -31.333 -129 -58c-40.667 -25.333 -76.834 -56.166 -108.501 -92.499s-56.834 -76.166 -75.501 -119.499s-33.667 -87.666 -45 -132.999l-1 -2c-2 -5.33301 -6 -8 -12 -8c-6.66699 0 -10 3.66699 -10 11c0.666992 12 2.66699 24 6 36
c12 46.667 31 90 57 130c52.667 84 120 149.333 202 196c20 12 40.667 22.5 62 31.5s43 15.5 65 19.5l22 1c12.667 0 24.334 -3 35.001 -9c12.667 -9.33301 19 -22 19 -38c0 -8.66699 -1.66699 -17.334 -5 -26.001c-6.66699 -20.667 -15.334 -40.667 -26.001 -60l-29 -58
c-63.333 -120.667 -101.666 -223 -114.999 -307l97 113c42 49.333 87 95.666 135 138.999c54.667 49.333 106.334 76.333 155.001 81c5.33301 0 8 -2.33301 8 -7s-2 -7.33398 -6 -8.00098c-34 -11.333 -66 -26.666 -96 -45.999s-58 -41.333 -84 -66
c-66.667 -63.333 -129.334 -130.333 -188.001 -201c-8 -10 -16.333 -19.667 -25 -29c-2 -14.667 -3 -31 -3 -49c0 -16 2.5 -34.167 7.5 -54.5s17.167 -36.833 36.5 -49.5c16 -8.66699 32 -13 48 -13c12 0 28 4.16699 48 12.5s41.333 21.166 64 38.499l2 1
c2.66699 0 4 -1.66699 4 -5c0 -1.33301 -0.666992 -2.66602 -2 -3.99902c-23.333 -18 -49 -33.333 -77 -46c-15.333 -6.66699 -30.666 -10 -45.999 -10c-14 0 -28 2.66699 -42 8c-24 11.333 -41.333 29.166 -52 53.499s-16 52.5 -16 84.5
c-60.667 -71.333 -119.667 -128.333 -177 -171c-25.333 -19.333 -53.333 -33.333 -84 -42c-4 -0.666992 -8.33301 -1 -13 -1z" />
    <glyph glyph-name="Y" unicode="Y" horiz-adv-x="617" 
d="M102 -130c-14.667 0 -28.6689 4.00195 -42.002 12.002c-15.333 12.667 -23 27.667 -23 45c0 6.66699 2.5 18.5 7.5 35.5s14.5 35.167 28.5 54.5c31.333 43.333 69.666 79.666 114.999 108.999c73.333 50.667 159 87.667 257 111c0 0.666992 0.333008 1 1 1
c38.667 63.333 73.667 132.666 105 207.999l21 48l-56 -61c-84 -93.333 -167.333 -165 -250 -215l-1 -1c-29.333 -19.333 -53.333 -29 -72 -29c-20 0 -30 5 -30 15c0 22 5 42.333 15 61c20.667 37.333 59.667 84.666 117 141.999
c62.667 64.667 103.334 120.334 122.001 167.001c4 10 6 20 6 30l-1 13c-6 17.333 -18.333 27 -37 29l-19 1c-34.667 0 -67.667 -9.33301 -99 -28c-65.333 -36 -120.666 -84 -165.999 -144c-40 -52 -64.667 -100 -74 -144c-2 -8 -3 -15.667 -3 -23
c0 -10.667 2 -21.334 6 -32.001l1 -4c0 -6.66699 -4 -10 -12 -10c-4 0 -7 1.66699 -9 5c-6.66699 12.667 -10 25.667 -10 39c0 23.333 11 52.333 33 87c20.667 37.333 45.334 72 74.001 104c58 65.333 119.667 112.333 185 141c26 12 54.333 18.667 85 20
c43.333 0 65 -21 65 -63l-1 -16c-8 -36 -23.333 -69 -46 -99c-28 -38.667 -59.667 -75.667 -95 -111c-19.333 -20 -38 -40.667 -56 -62c-32.667 -34.667 -52.334 -67 -59.001 -97c6 -2 12.333 -3 19 -3c19.333 0 44.666 11 75.999 33l8 5c57.333 38 110.333 81.667 159 131
s95.334 100.333 140.001 153c2 2 3 4 3 6c2 2.66699 4 4 6 4c2.66699 0 4.66699 -0.833008 6 -2.5s2 -3.5 2 -5.5v-2c-2.66699 -14.667 -6.33398 -29 -11.001 -43c-24.667 -76 -61.667 -156 -111 -240c56.667 11.333 113.667 19 171 23c4 0 6 -2 6 -6
c0 -2.66699 -1.66699 -4.66699 -5 -6c-60.667 -4 -120.667 -12.333 -180 -25c-85.333 -142 -174.666 -246.333 -267.999 -313c-20 -15.333 -43.333 -28.666 -70 -39.999c-11.333 -5.33301 -22.666 -8 -33.999 -8zM97.998 -108.998c5.33301 0 10.666 0.667969 15.999 2.00098
c24.667 8.66699 47.334 21.334 68.001 38.001c0.666992 1.33301 1.66699 2.33301 3 3c21.333 15.333 41.333 32 60 50c74 71.333 137.667 151 191 239c-98.667 -24 -184.667 -63.333 -258 -118c-44 -30 -79.333 -67.667 -106 -113c-14 -24.667 -21 -44.334 -21 -59.001
c0 -6.66699 1 -13.334 3 -20.001c8 -14.667 22.667 -22 44 -22z" />
    <glyph glyph-name="Z" unicode="Z" horiz-adv-x="478" 
d="M6 -64c-0.666992 0 -1.83203 0.668945 -3.49902 2.00195s-2.5 3.33301 -2.5 6c0 1.33301 0.666992 2.66602 2 3.99902c17.333 20.667 38 37.667 62 51c40 36 78 73.667 114 113c100.667 108.667 205.334 213.667 314.001 315l14 12
c93.333 88 164.666 144.333 213.999 169c-10.667 1.33301 -26 2.66602 -46 3.99902c-24.667 2 -49.667 3 -75 3c-28.667 0 -64 -1.83301 -106 -5.5s-87.667 -16.834 -137 -39.501c-42.667 -19.333 -79.667 -46 -111 -80c-22.667 -24 -41 -52.333 -55 -85
c-2 -6 -3 -10.667 -3 -14v-3h-1l2 -1c6 -0.666992 9 -4.66699 9 -12c0 -6.66699 -3.66699 -10 -11 -10c-11.333 0 -18.666 6.33301 -21.999 19l-1 10c0 8 2 16 6 24c12 24.667 27 47.334 45 68.001c66.667 75.333 156 121 268 137c36 4.66699 72 7 108 7
c43.333 0 81.666 -2.33301 114.999 -7l39 -4c26.667 11.333 54.667 17.333 84 18c3.33301 0 5 -2 5 -6c0 -1.33301 -0.666992 -2.33301 -2 -3c-20.667 -12.667 -42.667 -19.667 -66 -21c-12.667 -4.66699 -25 -10.667 -37 -18c-31.333 -18.667 -60.666 -40 -87.999 -64
c-134.667 -115.333 -268.334 -241 -401.001 -377c-42.667 -44.667 -86.334 -87.667 -131.001 -129c29.333 12 66.666 18.333 111.999 19h27c27.333 0 54.666 -0.833008 81.999 -2.5s53.333 -2.5 78 -2.5l58 2c38.667 0.666992 74.334 5 107.001 13s61.667 26.667 87 56
c1.33301 1.33301 3.33301 2 6 2h5c2.66699 0 4 -2 4 -6c0 -2.66699 -5 -8 -15 -16c-16 -16 -29.333 -26.667 -40 -32c-34 -18 -82 -28.333 -144 -31c-31.333 -0.666992 -63 -1 -95 -1l-124 1c-31.333 0 -62.5 -1.83301 -93.5 -5.5s-60.5 -12.5 -88.5 -26.5
c-20.667 -18 -42 -35 -64 -51c-1.33301 -1.33301 -2.66602 -2 -3.99902 -2z" />
    <glyph glyph-name="bracketleft" unicode="[" horiz-adv-x="382" 
d="M52 21c-8.66699 0 -12.998 3.00098 -12.998 9.00098l55 152l97 258c15.333 42.667 36 71 62 85c12 6.66699 25 10 39 10c18.667 0 33.667 -7.33301 45 -22c1.33301 -1.33301 2 -3 2 -5c0 -0.666992 -0.666992 -2.5 -2 -5.5s-4.33301 -4.5 -9 -4.5l-4 1
c-10.667 8 -21.667 12 -33 12c-4 0 -10.5 -1 -19.5 -3s-19.167 -9.66699 -30.5 -23c-16.667 -23.333 -29 -49.333 -37 -78l-30 -82c-8 -19.333 -15.667 -39 -23 -59l-86 -223c5.33301 1.33301 32.666 5 81.999 11c6 0 9 -3.33301 9 -10c0 -4.66699 -2 -7.33398 -6 -8.00098
c-32.667 -6 -65.334 -11 -98.001 -15z" />
    <glyph glyph-name="backslash" unicode="\" horiz-adv-x="441" 
d="M390 25h-2.00098c-1.33301 0 -2.66602 1 -3.99902 3l-71 134c-64 118 -131 233.333 -201 346c-48 77.333 -72 118 -72 122s2.66699 6 8 6c6 0 34.333 -42.667 85 -128l2 -3c94 -152.667 181 -309 261 -469l1 -4c0 -1.33301 -0.666992 -2.83301 -2 -4.5s-3 -2.5 -5 -2.5z
" />
    <glyph glyph-name="bracketright" unicode="]" horiz-adv-x="302" 
d="M49 27c-6.66699 0 -10.001 3 -10.001 9c0 2 0.666992 4.66699 2 8s24.333 5 69 5l6 1c6 0.666992 9.66699 5.33398 11 14.001v1c3.33301 15.333 6 25.666 8 30.999l75 302l29 115l-113 -15c-6.66699 0 -10 3 -10 9c0 2 0.666992 4.66699 2 8s24.333 6.33301 69 9l63 5
c2 0 3.5 -0.833008 4.5 -2.5s1.5 -3.16699 1.5 -4.5l-20 -83c-16.667 -70.667 -34.334 -141 -53.001 -211c-10.667 -44 -19 -76.5 -25 -97.5s-9.33301 -35.5 -10 -43.5c-2.66699 -13.333 -6 -25.666 -10 -36.999c-3.33301 -6.66699 -7.66602 -11.334 -12.999 -14.001
c-13.333 -6 -38.666 -9 -75.999 -9z" />
    <glyph glyph-name="asciicircum" unicode="^" horiz-adv-x="294" 
d="M227 391l-1.99805 -0.00195312c-2 0 -4 1.33301 -6 4c-12 24.667 -21.333 45 -28 61l-14 32c-2.66699 6.66699 -5.33398 10 -8.00098 10c-0.666992 0 -1.5 -0.166992 -2.5 -0.5s-3.16699 -2.16602 -6.5 -5.49902c-10.667 -11.333 -21 -23 -31 -35
c-18.667 -21.333 -38 -42.333 -58 -63c-2 -0.666992 -4.66699 -1 -8 -1c-1.33301 0.666992 -2.66602 2.33398 -3.99902 5.00098c0 2.66699 0.666992 4.66699 2 6c15.333 18 31.333 35 48 51l32 33l5 6c8.66699 10.667 17 16 25 16
c6.66699 -0.666992 12.167 -4.16699 16.5 -10.5s8.16602 -12.833 11.499 -19.5l2 -6c23.333 -45.333 35 -70 35 -74c0 -2 -0.833008 -4 -2.5 -6s-3.83398 -3 -6.50098 -3z" />
    <glyph glyph-name="underscore" unicode="_" horiz-adv-x="450" 
d="M63 139c-6 0 -9.00098 3 -9.00098 9c0 1.33301 0.666992 3.33301 2 6c2 5.33301 40.667 8 116 8h107c30.667 0 61.334 -1 92.001 -3c5.33301 0 8 -2.66699 8 -8c0 -4.66699 -2.66699 -7 -8 -7c-20 0 -39.667 0.333008 -59 1h-95l-71 -3c-27.333 -2 -55 -3 -83 -3z" />
    <glyph glyph-name="grave" unicode="`" horiz-adv-x="164" 
d="M97 344c-2.66699 0 -5.00195 1.00195 -7.00195 3.00195c-14 13.333 -24.333 28.333 -31 45c-1.33301 2.66699 -1.66602 5.66699 -0.999023 9v4l2 2c0 2 1.66699 3.66699 5 5c3.33301 0 5.83301 -0.833008 7.5 -2.5s2.5 -3.5 2.5 -5.5
c0 -1.33301 -0.333008 -2.33301 -1 -3l4 -7c0 -0.666992 0.333008 -1 1 -1c4 -8 7 -13 9 -15l2 -2l1 -2c0.666992 -0.666992 1.16699 -1.33398 1.5 -2.00098s0.833008 -1 1.5 -1c3.33301 -4 6.33301 -7.33301 9 -10s4 -5.33398 4 -8.00098
c-1.33301 -6 -4.66602 -9 -9.99902 -9z" />
    <glyph glyph-name="a" unicode="a" horiz-adv-x="273" 
d="M133 159c-16 0.666992 -27.666 8 -34.999 22c-2 6 -3 12 -3 18c0 16 8 35 24 57l-6 -4c-55.333 -46.667 -92.666 -70 -111.999 -70h-5c-10 2.66699 -15 8 -15 16s3.33301 17.667 10 29c19.333 33.333 47.666 57.666 84.999 72.999c12 4.66699 24.667 7 38 7
c12.667 0 24 -4.33301 34 -13l17 15l4 1c4.66699 0 7 -1.66699 7 -5l-1 -4c-18 -24.667 -34 -50.667 -48 -78c-4 -8 -6 -16.333 -6 -25c0 -16 10 -24 30 -24c51.333 6.66699 103 36.667 155 90c1.33301 1.33301 2.66602 2 3.99902 2c2.66699 0 4 -2 4 -6
c0 -1.33301 -0.333008 -2.33301 -1 -3c-24 -25.333 -51 -46.666 -81 -63.999c-30 -20 -63 -31.333 -99 -34zM6.00098 197c7.33301 1.33301 16.667 5 28 11c23.333 12.667 56.666 37.334 99.999 74.001c-6 1.33301 -12 2 -18 2c-18.667 -0.666992 -36 -6 -52 -16
c-25.333 -16 -45.666 -37.333 -60.999 -64l-3 -4c0 -0.666992 0.5 -1.33398 1.5 -2.00098s2.5 -1 4.5 -1z" />
    <glyph glyph-name="b" unicode="b" horiz-adv-x="331" 
d="M-11 135c-2.66699 0 -4.83301 0.833984 -6.5 2.50098s-2.5 3.5 -2.5 5.5v2c36.667 113.333 94 224 172 332l72 96c22 31.333 49 57.333 81 78l5 1c2 0 3.83301 -1 5.5 -3s2.5 -4 2.5 -6c-0.666992 -2.66699 -2 -4.66699 -4 -6c-32.667 -25.333 -60.667 -55 -84 -89l-3 -4
c-94.667 -120.667 -165 -236.667 -211 -348c18 24.667 37 47.667 57 69c29.333 32 63.333 58.333 102 79c11.333 7.33301 22 11 32 11c6.66699 0 12 -2.83301 16 -8.5s6 -11.834 6 -18.501c0 -10 -3 -22 -9 -36l-1 -1c-14.667 -38 -38.334 -69.667 -71.001 -95
c-8.66699 -6.66699 -17.334 -12.334 -26.001 -17.001c18 -2 36 -3 54 -3c73.333 0 133 26.667 179 80c1.33301 1.33301 2.66602 2 3.99902 2c3.33301 0 5 -2 5 -6l-1 -4c-50.667 -56.667 -115.667 -85 -195 -85c-10.667 0 -22.167 0.5 -34.5 1.5s-25.833 1.5 -40.5 1.5
c-18 -6.66699 -36.667 -10.667 -56 -12c-4.66699 0 -7 2.33301 -7 7c0 1.33301 0.333008 3.33301 1 6s10.334 5.66699 29.001 9c65.333 22 112.333 63.667 141 125c6.66699 13.333 10 24 10 32c0 2 -1 3.83301 -3 5.5s-4 2.5 -6 2.5c-2.66699 0 -5 -0.333008 -7 -1
c-18 -5.33301 -34.333 -13.666 -49 -24.999c-31.333 -22.667 -58.666 -48.834 -81.999 -78.501s-45 -60.5 -65 -92.5c-1.33301 -1.33301 -2.66602 -3.16602 -3.99902 -5.49902s-3.33301 -3.5 -6 -3.5z" />
    <glyph glyph-name="c" unicode="c" horiz-adv-x="279" 
d="M50 122c-23.333 0 -41.333 11.333 -54 34c-4 9.33301 -6 19 -6 29c0 15.333 5.33301 33.666 16 54.999c28.667 58 64.667 98.333 108 121c14 7.33301 29 11.666 45 12.999c10 0 18.833 -3.16699 26.5 -9.5s11.5 -14.5 11.5 -24.5c0 -13.333 -3 -25.666 -9 -36.999
c-12.667 -24 -32 -40.667 -58 -50l-3 -1c-4.66699 0 -7 3.33301 -7 10c0 2.66699 1.33301 4.66699 4 6c23.333 11.333 41.666 28 54.999 50c3.33301 6 5 12.333 5 19c0 5.33301 -1.83301 9.5 -5.5 12.5s-7.5 4.5 -11.5 4.5c-6.66699 0 -14.667 -2.33301 -24 -7
c-39.333 -21.333 -70.333 -51.666 -93 -90.999v-1c-14 -19.333 -23.667 -40 -29 -62l-1 -8c0 -28 14 -42 42 -42c9.33301 0 25 3.33301 47 10l6 1c72.667 22.667 136 57.667 190 105l4 1c0.666992 0 1.83398 -0.333008 3.50098 -1s2.5 -2 2.5 -4
c0 -1.33301 -0.333008 -2.33301 -1 -3c-49.333 -45.333 -105 -80 -167 -104c-27.333 -12 -55.333 -20.333 -84 -25z" />
    <glyph glyph-name="d" unicode="d" horiz-adv-x="381" 
d="M214 122l-17.998 1.00195c-31.333 9.33301 -47 32.666 -47 69.999c0 15.333 3.83301 33.166 11.5 53.499s18.167 40.5 31.5 60.5l-18 -16c-1.33301 -3.33301 -3.66602 -5.66602 -6.99902 -6.99902l-5 -5c-41.333 -38 -79.333 -66.333 -114 -85l-5 -4
c-14.667 -10 -27.667 -15 -39 -15c-13.333 0 -20 6 -20 18c0 5.33301 2.66699 13.666 8 24.999l1 2c14 25.333 31.5 47.333 52.5 66s44.833 31 71.5 37l14 1c6 0 13.167 -1 21.5 -3s14.833 -8.33301 19.5 -19c24.667 23.333 37.5 35.5 38.5 36.5s1.83301 2.16699 2.5 3.5
c41.333 60.667 93.333 127 156 199l37 41c8 10 17.333 19 28 27l4 1c4.66699 0 7 -2.66699 7 -8l-1 -4c-6.66699 -10.667 -14.334 -20.667 -23.001 -30l-8 -9c-0.666992 0 -1.16699 -0.166992 -1.5 -0.5s-0.833008 -1 -1.5 -2l-2 -3c-0.666992 -1 -1.66699 -2.16699 -3 -3.5
c-29.333 -41.333 -64 -84 -104 -128l-9 -10c-83.333 -103.333 -125 -177.333 -125 -222c0 -6 0.333008 -11.667 1 -17c6.66699 -24.667 23 -37 49 -37c26 3.33301 50 12.333 72 27c47.333 26.667 88.666 60.334 123.999 101.001c1.33301 1.33301 2.66602 2 3.99902 2
c0.666992 0 1.83398 -0.333008 3.50098 -1s2.5 -2.33398 2.5 -5.00098l-1 -4c-42.667 -50 -93.334 -89.667 -152.001 -119c-18 -10 -36.667 -15 -56 -15zM7.00195 187.002c11.333 2 22.335 6.66699 33.002 14l6 3c34.667 19.333 72 47.333 112 84
c-6.66699 6 -14.667 9 -24 9c-11.333 -0.666992 -22 -3.33398 -32 -8.00098c-24.667 -11.333 -46.667 -26.333 -66 -45c-13.333 -13.333 -22.333 -24.666 -27 -33.999l-6 -9c-0.666992 0 -1.33398 -0.5 -2.00098 -1.5s-1.33398 -2.33301 -2.00098 -4s-1 -3.16699 -1 -4.5
c0 -2.66699 1.33301 -4 4 -4h5z" />
    <glyph glyph-name="e" unicode="e" horiz-adv-x="296" 
d="M101 146h-10.002c-21.333 0 -40.666 5.33301 -57.999 16c-18 14 -27 30.333 -27 49c0 29.333 13 57 39 83c22.667 22.667 44.667 35 66 37c12 0 20.667 -4.33301 26 -13c2.66699 -4 4 -8.66699 4 -14c0 -4.66699 -1 -9.33398 -3 -14.001
c-8.66699 -20 -22.167 -36.833 -40.5 -50.5s-37.833 -20.5 -58.5 -20.5h-6c-1.33301 -4 -2 -8 -2 -12c0 -17.333 9.66699 -30 29 -38c12 -5.33301 26 -8 42 -8c36.667 0 71.667 7.66699 105 23c42 18 79.667 42 113 72c0.666992 0.666992 1.66699 1 3 1
c0.666992 0 1.66699 -0.333008 3 -1s2 -2 2 -4c0 -1.33301 -0.333008 -2.33301 -1 -3c-46 -41.333 -98 -71.333 -156 -90c-21.333 -7.33301 -44.666 -11.666 -69.999 -12.999zM34.998 228c21.333 2 40.999 9.33301 58.999 22c9.33301 6.66699 17.333 15 24 25
s10 18.333 10 25c0 8 -2.66699 12 -8 12c-9.33301 0 -19.666 -4.66699 -30.999 -14l-12 -10c-20 -16.667 -34 -36.667 -42 -60z" />
    <glyph glyph-name="f" unicode="f" horiz-adv-x="233" 
d="M-93 -141c-3.33301 0 -7.16797 1.3291 -11.501 3.99609s-7.16602 8 -8.49902 16s-2 16.333 -2 25c0 12.667 1.33301 25.334 4 38.001c8.66699 43.333 21.667 85 39 125c44.667 114.667 105 221.334 181 320.001c49.333 66.667 106 126.334 170 179.001
c1.33301 1.33301 3 2 5 2c4 0 7 -1.66699 9 -5l1 -3c0 -2 -1 -4 -3 -6c-102.667 -99.333 -185.334 -200.333 -248.001 -303c26.667 -22 57 -33 91 -33h6c44.667 4 86.334 18.667 125.001 44l2 1c3.33301 0 5 -1.66699 5 -5c0 -2 -0.666992 -3.66699 -2 -5
c-40.667 -27.333 -85 -43.666 -133 -48.999h-9c-34 0 -64.667 11 -92 33c-2 -94.667 -21.333 -186.334 -58 -275.001c-16 -35.333 -26.333 -56.666 -31 -63.999c-12 -26 -25.333 -39 -40 -39zM-90.002 -130.004c1.33301 0 3.33203 1 5.99902 3
c7.33301 6 12.666 13 15.999 21c20.667 37.333 37.667 76 51 116c22.667 66.667 35.667 135 39 205c-21.333 -36 -45.666 -85 -72.999 -147c-32.667 -78.667 -49.667 -137.667 -51 -177l1 -10c0.666992 -7.33301 3.33398 -11 8.00098 -11h3z" />
    <glyph glyph-name="g" unicode="g" horiz-adv-x="270" 
d="M-151 -179c-7.33301 0 -14.335 2.33008 -21.002 6.99707c-8 7.33301 -12 17.333 -12 30l1 10c4 18 10.667 35.333 20 52s20 33 32 49c28.667 36 61.167 67 97.5 93s74.5 50 114.5 72c16.667 43.333 30.334 87.333 41.001 132c-43.333 -38 -80.666 -67 -111.999 -87
c-0.666992 -1.33301 -2 -2.33301 -4 -3c-6.66699 -6.66699 -12.667 -10 -18 -10c-2 0.666992 -4 1.83398 -6 3.50098s-3.66699 3.83398 -5 6.50098s-2 5.66699 -2 9c0 5.33301 2.66699 13.666 8 24.999c29.333 47.333 65 80.666 107 99.999c8.66699 4 17.334 6 26.001 6
c7.33301 0 14 -2 20 -6c10.667 -6.66699 16 -15 16 -25c0 -9.33301 -2.33301 -14.666 -7 -15.999c-6.66699 -39.333 -16.334 -78.333 -29.001 -117l10 5c62.667 32 122 68.333 178 109c1.33301 1.33301 2.66602 2 3.99902 2c0.666992 0 2 -0.5 4 -1.5s3 -2.5 3 -4.5
c0 -1.33301 -0.666992 -2.66602 -2 -3.99902c-58 -43.333 -126 -84.666 -204 -123.999c-31.333 -86 -73.666 -159.333 -126.999 -220c-27.333 -34 -60 -61.333 -98 -82c-15.333 -7.33301 -27 -11 -35 -11zM-8.00195 183.997c52.667 31.333 97 67.334 133 108.001l-9 3
c-8 -0.666992 -15.333 -3 -22 -7c-32 -16.667 -59 -39.667 -81 -69c-13.333 -16.667 -20.333 -28.334 -21 -35.001zM-149.002 -161.002c20 5.33301 41.334 17.667 64.001 37c71.333 66.667 124.333 146 159 238l-4 -3c-72.667 -36.667 -135 -85.667 -187 -147
c-28.667 -36.667 -45.667 -69.667 -51 -99v-5v-7.5c0 -3 1.16699 -6 3.5 -9s5.16602 -4.5 8.49902 -4.5h7z" />
    <glyph glyph-name="h" unicode="h" horiz-adv-x="358" 
d="M-38 89c-4 0 -6.66504 0.832031 -7.99805 2.49902s-2 4.5 -2 8.5c17.333 44 36.666 87.333 57.999 130c82.667 164 181.667 299.333 297 406c2.66699 2 5 3 7 3c4.66699 0 8 -2 10 -6c1.33301 -1.33301 2 -3 2 -5s-1.33301 -4.33301 -4 -7c-28 -28 -60 -62 -96 -102
c-96.667 -112 -175 -235.667 -235 -371c56 68.667 108 116.667 156 144c7.33301 6 15.666 9.33301 24.999 10c8.66699 -0.666992 13.667 -3.16699 15 -7.5s2 -8.5 2 -12.5c0 -2.66699 -0.666992 -6.33398 -2 -11.001c-1.33301 -9.33301 -5.66602 -20.5 -12.999 -33.5
s-11.333 -27.167 -12 -42.5c0 -9.33301 2.66699 -16.333 8 -21s13.333 -7 24 -7h8c24 2.66699 47 8.66699 69 18c45.333 20 86 47 122 81c0.666992 0.666992 2.66699 1 6 1l1 -4c0 -1.33301 -0.333008 -2.33301 -1 -3c-53.333 -49.333 -110.666 -85.666 -171.999 -108.999
c-14 -4.66699 -28 -7 -42 -7h-15c-8.66699 0.666992 -17.334 7.66699 -26.001 21c-5.33301 10.667 -8 21.334 -8 32.001c0 18.667 8.33301 40.334 25 65.001l5 8l6 11l1 5h-1c-2.66699 0 -11.334 -4.33301 -26.001 -13l-29 -21
c-46.667 -36.667 -96.667 -90.334 -150 -161.001c-1.33301 -1.33301 -3 -2 -5 -2z" />
    <glyph glyph-name="i" unicode="i" horiz-adv-x="178" 
d="M111 350l-2.99902 0.000976562c-1.33301 0 -3 1 -5 3v1c-0.666992 0 -1 0.166992 -1 0.5s-0.333008 0.833008 -1 1.5l-1 6l1 4c0.666992 2.66699 1.66699 4.66699 3 6h1c1.33301 2 3 3.33301 5 4h5c2.66699 0 5 -1.33301 7 -4s3.33301 -5.33398 4 -8.00098
c0 -0.666992 -0.333008 -1.5 -1 -2.5s-1 -1.66699 -1 -2s-0.333008 -0.833008 -1 -1.5s-1.33398 -1.66699 -2.00098 -3l-2 -1v-1l-4 -1zM36.001 134.001c-12.667 0 -23.334 4.66504 -32.001 13.998c-5.33301 8.66699 -8 17.667 -8 27l1 12c8.66699 44.667 29 84 61 118l3 4
c4 4 8.33301 8 13 12s10 6.33301 16 7c5.33301 -1.33301 8 -4.33301 8 -9c0 -4 -2.16699 -6.66699 -6.5 -8s-9.16602 -5.16602 -14.499 -11.499s-10.666 -13.5 -15.999 -21.5c-20 -24.667 -34.667 -53 -44 -85c-2 -8 -3 -16.333 -3 -25c0 -12 8 -18 24 -18c10 0 21 3 33 9
c44 23.333 89.333 57 136 101c1.33301 1.33301 3.66602 2 6.99902 2l2 -4v-1c0 -1.33301 -0.666992 -2.66602 -2 -3.99902c-29.333 -29.333 -61 -56.333 -95 -81l-4 -3c-30 -21.333 -56.333 -33 -79 -35z" />
    <glyph glyph-name="j" unicode="j" horiz-adv-x="194" 
d="M91 412l-5 0.000976562c0 0.666992 -0.166992 1 -0.5 1s-0.666016 0.166992 -0.999023 0.5s-1 0.666016 -2 0.999023s-1.83301 1.16602 -2.5 2.49902v1l-1 1v1v1v0l-1 4c0 2 0.333008 3.66699 1 5l1 2v0l1 1c0.666992 2.66699 2.33398 4.5 5.00098 5.5s5 1.5 7 1.5
c1.33301 0 3.33301 -0.5 6 -1.5s4.5 -2.66699 5.5 -5s1.5 -4.16602 1.5 -5.49902v-4.5c0 -1.66699 -0.833008 -3.5 -2.5 -5.5s-2.83398 -3.16699 -3.50098 -3.5s-1.33398 -0.5 -2.00098 -0.5v0l-1 -1v0h-2c-0.666992 -0.666992 -2 -1 -4 -1zM-271 -189.999
l-1.99902 -0.00195312c-12 0 -21.333 6.33301 -28 19c-3.33301 6.66699 -5 14.334 -5 23.001c0 7.33301 2 17.666 6 30.999c7.33301 21.333 17 41.333 29 60c25.333 38.667 56 73.334 92 104.001c44 38 97.667 77.333 161 118c32.667 68.667 60.334 139 83.001 211
c2 5.33301 5.66699 8 11 8c7.33301 -1.33301 11 -5 11 -11v-3c-18.667 -62.667 -41.334 -123.334 -68.001 -182.001c36 19.333 77 34.333 123 45c31.333 8 58.666 17 81.999 27c3.33301 1.33301 6 2 8 2c2.66699 -0.666992 4 -1.66699 4 -3s-1 -2.66602 -3 -3.99902
c-26 -13.333 -58.333 -24.666 -97 -33.999c-34 -8.66699 -61.667 -18 -83 -28c-10.667 -6 -20.667 -12.333 -30 -19l-16 -10c-14 -30.667 -29.333 -60.667 -46 -90c-57.333 -102.667 -112.333 -179 -165 -229c-24 -22 -46.333 -33.667 -67 -35zM-272.999 -173.001
c10 0 19.333 3 28 9l24 19c16 14.667 31 30.334 45 47.001c50.667 65.333 97.667 140.666 141 225.999l5 12l-10 -7c-50 -31.333 -95.667 -66 -137 -104c-46.667 -41.333 -80.667 -85 -102 -131c-8.66699 -19.333 -13 -36 -13 -50c0 -12 6.33301 -19 19 -21z" />
    <glyph glyph-name="k" unicode="k" horiz-adv-x="329" 
d="M-24 144c-6.66699 0 -10.002 2.33594 -10.002 7.00293l1 4c46 93.333 107.333 192.333 184 297c42.667 60.667 89.334 118.334 140.001 173.001c3.33301 2.66699 6.66602 4 9.99902 4c5.33301 -0.666992 9 -3.33398 11 -8.00098c1.33301 -2 2 -4 2 -6
c0 -2.66699 -1.33301 -5.66699 -4 -9l-81 -95c-73.333 -90.667 -140.333 -185.667 -201 -285c21.333 10 42 21.667 62 35c8 6 25.667 17.333 53 34l11 7c11.333 8.66699 23.333 15 36 19c3.33301 0 5.83301 -0.5 7.5 -1.5s2.5 -2.83301 2.5 -5.5v-1
c0 -2 -0.666992 -3.66699 -2 -5c-9.33301 -10 -20.666 -18.333 -33.999 -25l-12 -7l-47 -29c-21.333 -12.667 -43.333 -23.334 -66 -32.001c10.667 -4.66699 20.667 -10.334 30 -17.001l20 -11c30 -16.667 62 -25 96 -25c35.333 2.66699 67.5 13.667 96.5 33
s55.5 41.666 79.5 66.999c0.666992 0.666992 2.33398 1 5.00098 1l2 -4l-1 -4c-56 -56 -112.667 -90.333 -170 -103c-11.333 -2 -22.666 -3 -33.999 -3c-38 0 -73.667 11.667 -107 35c-2.66699 2.66699 -10.334 8 -23.001 16c-6 3.33301 -12 5 -18 5l-34 -58
c-1.33301 -2 -3 -3 -5 -3z" />
    <glyph glyph-name="l" unicode="l" horiz-adv-x="261" 
d="M55 89c-18.667 0 -32.834 6.33301 -42.501 19s-14.5 28 -14.5 46c0 50 21.333 108 64 174c75.333 116.667 167.666 218.334 276.999 305.001c2 2 4.33301 3 7 3c4 -0.666992 7.33301 -2.66699 10 -6l1 -4c0 -2.66699 -1.33301 -5 -4 -7
c-109.333 -90.667 -199.666 -191 -270.999 -301c-42 -62 -63 -118.667 -63 -170c0 -12.667 4.33301 -23.667 13 -33c8 -5.33301 16.667 -8 26 -8l12 1c28 7.33301 54 19.333 78 36l3 2c53.333 32 100.333 71.667 141 119c1.33301 1.33301 3 2 5 2l3 -1
c2 -0.666992 3 -2.33398 3 -5.00098c0 -2 -0.666992 -3.66699 -2 -5c-50 -56.667 -107.333 -103.667 -172 -141c-12.667 -7.33301 -26 -14 -40 -20c-11.333 -4 -22.666 -6 -33.999 -6z" />
    <glyph glyph-name="m" unicode="m" horiz-adv-x="411" 
d="M251 117c-8 0 -15.334 2.32812 -22.001 6.99512c-8 8 -12 18 -12 30c0 11.333 1.66699 22 5 32c10.667 31.333 26.334 60 47.001 86c21.333 30.667 35 53 41 67l3 10c0 2.66699 -0.666992 4.5 -2 5.5s-2.66602 1.5 -3.99902 1.5s-3.16602 -0.333008 -5.49902 -1
s-4.33301 -1.16699 -6 -1.5s-2.83398 -0.833008 -3.50098 -1.5c-27.333 -10 -51.666 -25.333 -72.999 -46c-30.667 -25.333 -59.667 -53 -87 -83c-8.66699 -15.333 -18.667 -29.333 -30 -42c-2.66699 -2.66699 -5 -4 -7 -4c-1.33301 0 -3 0.333008 -5 1
s-3.66699 2.33398 -5 5.00098s-2 4.66699 -2 6l1 6l14 21c4.66699 6.66699 8.66699 13.334 12 20.001c8 13.333 15 26.666 21 39.999c1.33301 1.33301 2.33301 2.83301 3 4.5l2 5c0.666992 1.66699 1.33398 2.83398 2.00098 3.50098h-5l-3 -1
c-12.667 -5.33301 -28.667 -15.333 -48 -30c-30.667 -24 -56 -47.333 -76 -70l-36 -40l-8 -13c-6.66699 -10 -10.667 -15 -12 -15c-6 0 -9 2 -9 6c0 2.66699 24 42 72 118l4 7c31.333 50 58.333 89 81 117c2.66699 2 5 3 7 3c4 0 7 -1.16699 9 -3.5s3 -4.5 3 -6.5
c0 -5.33301 -17.667 -31 -53 -77c-11.333 -14 -22 -28.333 -32 -43c-12.667 -17.333 -20.334 -28.666 -23.001 -33.999c22 23.333 49.667 48 83 74l6 5c18 15.333 33 23 45 23c6 0 11 -2.66699 15 -8c2 -3.33301 3 -6.66602 3 -9.99902c0 -6 -2.33301 -14.333 -7 -25
c-2.66699 -4.66699 -5 -9.66699 -7 -15c57.333 60.667 105.666 98 144.999 112c4.66699 1.33301 9.66699 2.33301 15 3c14.667 0 22 -9.66699 22 -29c-6.66699 -33.333 -21 -64.333 -43 -93l-19 -30c-12.667 -19.333 -20.667 -39.666 -24 -60.999v-3
c0 -8.66699 4.33301 -13 13 -13c15.333 0 30.333 4.66699 45 14c40.667 24.667 78.667 53.667 114 87c6.66699 6.66699 13.667 13 21 19c1.33301 1.33301 3.66602 2 6.99902 2c1.33301 -0.666992 2.33301 -2 3 -4c0 -2.66699 -0.333008 -4.66699 -1 -6
c-54 -52.667 -103.667 -91.667 -149 -117c-9.33301 -6 -20.333 -10.333 -33 -13c-4 -1.33301 -8 -2 -12 -2z" />
    <glyph glyph-name="n" unicode="n" horiz-adv-x="291" 
d="M-51 110c-2.66699 0 -4.33398 0.829102 -5.00098 2.49609s-1 2.83398 -1 3.50098l1 3c23.333 46.667 49.333 91.667 78 135c18.667 32 40 62.333 64 91c2 2 4.33301 3 7 3c4 -0.666992 7 -2.16699 9 -4.5s3 -4.5 3 -6.5c0 -4 -13.333 -22.667 -40 -56
c-25.333 -30.667 -51 -67.667 -77 -111l52 58c29.333 29.333 60.333 57.333 93 84c10 8 18 12 24 12c4 0 7.33301 -3 10 -9l1 -8c0 -10 -1 -18.333 -3 -25l-3 -22c-2.66699 -11.333 -4 -22.666 -4 -33.999c0 -9.33301 3.33301 -17.666 10 -24.999s15.667 -11 27 -11
c10.667 0 20.667 1.66699 30 5c38.667 12.667 70.667 35.334 96 68.001c2 2 4.33301 3 7 3c3.33301 -0.666992 5 -2.66699 5 -6l-1 -3c-26 -34.667 -59.333 -60 -100 -76c-12.667 -5.33301 -25.667 -8 -39 -8c-7.33301 0 -14.666 0.666992 -21.999 2
c-27.333 8 -41 28 -41 60c0 10.667 1.66699 21.667 5 33c5.33301 21.333 8.66602 33.666 9.99902 36.999c-2 -1.33301 -4.16699 -2.66602 -6.5 -3.99902s-4.16602 -2.66602 -5.49902 -3.99902c-58 -44.667 -118 -106.334 -180 -185.001c-0.666992 -1.33301 -2 -2 -4 -2z" />
    <glyph glyph-name="o" unicode="o" horiz-adv-x="220" 
d="M3 148l-3 -0.00292969c-11.333 3.33301 -17 11 -17 23c0 16.667 8 39.334 24 68.001c20 31.333 42 56.333 66 75c4.66699 4.66699 9.33398 7.66699 14.001 9c6 0 10.167 -1.16699 12.5 -3.5s3.5 -5.16602 3.5 -8.49902c0 -2 -1 -4 -3 -6c2 -6 3 -11.667 3 -17l-1 -9
c19.333 -21.333 46.666 -32 81.999 -32c24 0 47.333 5.66699 70 17l2 1c2.66699 0 4 -1.66699 4 -5c0 -1.33301 -0.666992 -2.33301 -2 -3c-30.667 -14.667 -60.667 -22 -90 -22c-25.333 0 -48.333 9 -69 27c-14.667 -45.333 -37.667 -79.666 -69 -102.999
c-10.667 -7.33301 -19.667 -11 -27 -11zM9 163.997c2 0.666992 5.33105 2.33398 9.99805 5.00098s9 5.66699 13 9s7 5.66602 9 6.99902c24.667 23.333 41.334 51.666 50.001 84.999c-4.66699 5.33301 -8.66699 11.333 -12 18c-19.333 -17.333 -39 -41.333 -59 -72
c-13.333 -19.333 -20 -34.666 -20 -45.999c0.666992 -4 2.33398 -6 5.00098 -6h4z" />
    <glyph glyph-name="p" unicode="p" horiz-adv-x="377" 
d="M-205 -214c-3.33301 0 -6.16602 1.1709 -8.49902 3.50391s-3.5 5.16602 -3.5 8.49902v2c14 41.333 32.667 80.666 56 117.999c0.666992 2 1.33398 3.5 2.00098 4.5s1.16699 1.83301 1.5 2.5s0.833008 1.33398 1.5 2.00098c45.333 94.667 84.666 171.334 117.999 230.001
c36 66.667 74.667 131.667 116 195c2.66699 3.33301 5.66699 5 9 5c7.33301 -1.33301 11 -4.66602 11 -9.99902c0 -4.66699 -15.667 -33.334 -47 -86.001l-23 -40l-50 -89c50.667 68.667 99.334 123.667 146.001 165c26 20.667 41.333 32.334 46 35.001
c12 10 25.667 17.333 41 22l9 1c4 0 9 -1 15 -3c13.333 -4 20 -16.667 20 -38c0 -5.33301 -0.666992 -11 -2 -17c-12.667 -41.333 -36.334 -76.666 -71.001 -105.999c14 -1.33301 27.667 -2 41 -2c69.333 0 129 22.333 179 67c1.33301 1.33301 3 2 5 2l3 -1
c2 -1.33301 3 -3.33301 3 -6c0 -1.33301 -0.666992 -2.33301 -2 -3c-54.667 -46.667 -119.334 -70 -194.001 -70c-14 0 -28.333 0.666992 -43 2h-4c-14 -11.333 -29.333 -21 -46 -29c-23.333 -13.333 -45 -20 -65 -20c-12 0 -23.667 2.66699 -35 8
c-2 1.33301 -3 3.33301 -3 6v2c3.33301 13.333 11.666 23.166 24.999 29.499s26.833 10.666 40.5 12.999s27.834 3.5 42.501 3.5h9c34 25.333 62.333 58.666 85 99.999c5.33301 10 8 20 8 30v4c-2 9.33301 -6.66699 14 -14 14c-2 0 -6.16699 -0.666992 -12.5 -2
s-15.333 -5.83301 -27 -13.5s-20.167 -13.834 -25.5 -18.501h-2c-52 -42 -97 -90.333 -135 -145c-33.333 -44.667 -65 -90.334 -95 -137.001c-40.667 -76.667 -79.667 -154.334 -117 -233.001c-2 -4 -4.66699 -6 -8 -6zM42 150.004c15.333 0 30 4 44 12
c12 6 23.667 12.333 35 19c-24 0 -46.667 -4.66699 -68 -14c-8 -4 -13.667 -9.66699 -17 -17h6z" />
    <glyph glyph-name="q" unicode="q" horiz-adv-x="286" 
d="M-80 -219c-14.667 0 -22 13.001 -22 39.001v12c7.33301 65.333 45.333 148.666 114 249.999c-2.66699 10.667 -7 20.667 -13 30l-1 3c0 1.33301 0.5 2.66602 1.5 3.99902s2.5 2 4.5 2c13.333 1.33301 26.666 3.33301 39.999 6l4 5c24.667 35.333 51 69.666 79 102.999
c2 1.33301 11 11.666 27 30.999l-79 -55c-26 -19.333 -52.667 -33.666 -80 -42.999c-6.66699 -2.66699 -12.334 -4 -17.001 -4l-6 1c-8.66699 4 -13 9.66699 -13 17c0 2.66699 1.5 7.5 4.5 14.5s9.5 16.5 19.5 28.5c30 36.667 68.333 63.334 115 80.001
c12 4.66699 24.333 7.33398 37 8.00098c16 0 29.333 -6.66699 40 -20l20 13c2.66699 1.33301 4.33398 2.33301 5.00098 3s1.66699 1 3 1c2.66699 0 5 -2 7 -6c0 -2.66699 -0.333008 -4.66699 -1 -6c-13.333 -20 -28.333 -39.333 -45 -58c-28.667 -34 -56 -69 -82 -105
c74.667 23.333 154 66.666 238 129.999l3 1c2 0 3.66699 -1.66699 5 -5c0 -2 -1 -3.66699 -3 -5c-38.667 -28 -79 -54.167 -121 -78.5s-86.333 -42.833 -133 -55.5l-41 -60c1.33301 -10.667 2 -21.667 2 -33c0 -43.333 -8.66699 -85.666 -26 -126.999
c-12 -40.667 -30.333 -74.667 -55 -102c-11.333 -12.667 -21.666 -19 -30.999 -19zM-16 182.001c2.66699 0 5.33398 0.667969 8.00098 2.00098h1c7.33301 2 14.666 4.66699 21.999 8c28 12 54.333 27 79 45l63 42c-4.66699 4 -10 6.66699 -16 8c-17.333 0 -34 -4 -50 -12h-1
c-41.333 -18.667 -75.333 -46.334 -102 -83.001c-0.666992 0 -1 -0.333008 -1 -1c-3.33301 -3.33301 -5 -6 -5 -8zM21 94.002l13 19l-20 -3zM-75 -201.998c2.66699 1.33301 4.66797 2.5 6.00098 3.5s2 1.83301 2 2.5c15.333 13.333 28 29.333 38 48
c14 25.333 25 52.333 33 81c10.667 32 16 64.667 16 98v16c-14.667 -22 -28.334 -44.333 -41.001 -67c-38 -66 -58 -124 -60 -174c0 -5.33301 2 -8 6 -8z" />
    <glyph glyph-name="r" unicode="r" horiz-adv-x="245" 
d="M47 115h-5.99902c-11.333 0 -20.833 4.66699 -28.5 14s-11.5 19 -11.5 29c0 16 4.83301 32 14.5 48s20.834 29.667 33.501 41c-17.333 0 -31.666 6 -42.999 18c-9.33301 12 -14 24.667 -14 38c0 10 2.33301 19.5 7 28.5s11.167 16.5 19.5 22.5s17.166 9 26.499 9
c4.66699 0 9 -1 13 -3c14 -6 21 -17.333 21 -34c0 -8.66699 -2.16699 -17.667 -6.5 -27s-9.83301 -18.333 -16.5 -27c-0.666992 -0.666992 -1.33398 -1.16699 -2.00098 -1.5s-1 -0.833008 -1 -1.5l2 -1l14 -1l19 1c1.33301 0 2.83301 -0.666992 4.5 -2s2.5 -3.33301 2.5 -6
l-1 -4c0 -2.66699 -1 -5 -3 -7l-6 -6c-24.667 -21.333 -42.667 -44.333 -54 -69c-6.66699 -11.333 -10 -20.333 -10 -27c0 -4.66699 1.33301 -8.66699 4 -12c5.33301 -6 12 -9 20 -9c12 0 23 2 33 6c34 13.333 65.667 31.333 95 54l61 43c27.333 20 41.666 30 42.999 30
c2 0 3 -1 3 -3l-1 -2l-102 -73l-1 -1c-52.667 -40 -95.667 -61.667 -129 -65zM43.001 272l5.99902 7c13.333 16 20 31.333 20 46c0 15.333 -5.33301 23.333 -16 24l-6 -1c-14.667 -3.33301 -23.667 -15 -27 -35v-16c0.666992 -0.666992 1 -1.66699 1 -3l5 -9v1
c0 -0.666992 0.333008 -1 1 -1s1.33398 -0.666992 2.00098 -2l2 -3c2 -2 3.33301 -3 4 -3z" />
    <glyph glyph-name="s" unicode="s" horiz-adv-x="208" 
d="M-41 77l-2.00195 -0.00195312c-8.66699 0 -15 4.33301 -19 13l-1 7c0 7.33301 3.66699 14.666 11 21.999c18.667 20 44 35 76 45l1 23c0 8 -0.5 16 -1.5 24s-1.5 16.333 -1.5 25c0 15.333 2 30.333 6 45c8 24.667 21.333 39.334 40 44.001l4 1
c10.667 0 19.667 -3.33301 27 -10c5.33301 -4 8 -9.33301 8 -16c0 -10.667 -4.33301 -16 -13 -16c-2.66699 0 -5.16699 1.5 -7.5 4.5s-4.5 5 -6.5 6s-3.66699 1.5 -5 1.5c-2 0 -4.33301 -1 -7 -3c-16 -16 -24 -46.333 -24 -91c0 -11.333 -0.666992 -21.666 -2 -30.999l67 21
c46.667 17.333 90.334 41 131.001 71l3 1c3.33301 0 5 -2.33301 5 -7c0 -1.33301 -0.666992 -2.66602 -2 -3.99902c-43.333 -30.667 -89.666 -56 -138.999 -76l-68 -26c-6 -31.333 -23.667 -54.333 -53 -69c-8 -3.33301 -17 -5 -27 -5zM-41.002 92.998l11 1.99805
c5.33301 0.666992 10.333 2.33398 15 5.00098c18.667 9.33301 30.667 24 36 44c-16 -6 -31 -13.667 -45 -23c-1.33301 -1.33301 -4 -3.66602 -8 -6.99902s-7.16699 -6.5 -9.5 -9.5s-3.5 -5.5 -3.5 -7.5c0 -2.66699 1.33301 -4 4 -4z" />
    <glyph glyph-name="t" unicode="t" horiz-adv-x="248" 
d="M28 80c-6 0 -13.8359 1.16895 -23.5029 3.50195s-17.5 9.83301 -23.5 22.5c-2.66699 7.33301 -4 15.333 -4 24c0 5.33301 0.666992 10.666 2 15.999c7.33301 41.333 24.333 84.333 51 129c28.667 50.667 61 98.667 97 144c-7.33301 -1.33301 -16 -2 -26 -2
c-39.333 -4 -78.666 -9 -117.999 -15l-51 -8c-21.333 -4.66699 -42.666 -8.33398 -63.999 -11.001c-3.33301 0 -5.66602 1.16699 -6.99902 3.5s-2 4.5 -2 6.5c0 4 2 6.66699 6 8c33.333 6 67 10.667 101 14l31 3c46.667 5.33301 93.334 9.66602 140.001 12.999
c29.333 34 59.666 66 90.999 96c8 8 16 12.667 24 14c3.33301 0 6.5 -1.16699 9.5 -3.5s4.5 -6.16602 4.5 -11.499c0 -6 -2.66699 -9 -8 -9l-4 1c0 -0.666992 -0.333008 -1 -1 -1l-11 -11c-6 -5.33301 -11.667 -11 -17 -17c-24.667 -24.667 -42 -43 -52 -55
c76 5.33301 152 8 228 8l69 -1c4 0 6 -2 6 -6c0 -3.33301 -2 -5 -6 -5l-67 1c-80.667 -0.666992 -160.667 -3.66699 -240 -9c-47.333 -56.667 -87.333 -113 -120 -169c-14.667 -24 -27 -49 -37 -75c-7.33301 -20.667 -11 -37.667 -11 -51c0 -3.33301 0.333008 -7.5 1 -12.5
s4.16699 -9.5 10.5 -13.5s13.166 -6 20.499 -6c4.66699 0 11 1 19 3c5.33301 2 16.333 7 33 15c59.333 30 125 79 197 147l4 1c4 0 6 -1.66699 6 -5c0 -2 -1.16699 -4 -3.5 -6s-5.16602 -4.66699 -8.49902 -8c-46 -44.667 -95.667 -85 -149 -121
c-24.667 -16.667 -50.667 -29.667 -78 -39c-6 -1.33301 -12.333 -2 -19 -2z" />
    <glyph glyph-name="u" unicode="u" horiz-adv-x="270" 
d="M140 137c-16 1.33301 -27.668 8 -35.001 20c-6 9.33301 -9 19.666 -9 30.999c0.666992 12.667 3.66699 25.334 9 38.001c-56 -56 -94 -84 -114 -84h-4c-10 2.66699 -15 9 -15 19c0 10.667 3 23 9 37c19.333 44.667 47 79.667 83 105l6 1c6 -0.666992 9 -4 9 -10
c0 -3.33301 -6.83301 -12 -20.5 -26s-26.5 -29.667 -38.5 -47c-15.333 -21.333 -25.333 -40.333 -30 -57l-1 -6c0 -2 1.66699 -3 5 -3l8 1c16 6.66699 28.667 14.667 38 24c16.667 13.333 40.334 34.333 71.001 63c1.33301 2 3 3.66699 5 5c8 15.333 18.333 28 31 38v-1l5 2
c4.66699 0 7 -2.66699 7 -8v-2c-2.66699 -10.667 -7 -20.667 -13 -30c-15.333 -26 -23.333 -49.333 -24 -70c0 -4.66699 0.666992 -9 2 -13c4.66699 -9.33301 12.667 -14 24 -14l10 1c33.333 8 79.333 43.333 138 106c0.666992 0.666992 1.66699 1 3 1
c2.66699 0 4 -0.666992 4 -2v-2c0 -1.33301 -0.333008 -2.33301 -1 -3c-24.667 -26 -50.667 -50 -78 -72c-8 -8 -21.333 -17.667 -40 -29c-14 -8.66699 -28.667 -13 -44 -13z" />
    <glyph glyph-name="v" unicode="v" horiz-adv-x="294" 
d="M-6 102h-7.50098c-3.66699 0 -7.16699 3.66699 -10.5 11c-2 4.66699 -3 10 -3 16c0 4.66699 1.66699 12.667 5 24l1 4c16.667 59.333 40.334 108.666 71.001 147.999c6.66699 13.333 18.667 27.666 36 42.999c2.66699 1.33301 5 2 7 2c8 0 12 -3 12 -9l-2 -6l-32 -44
c-31.333 -45.333 -54.333 -88.666 -69 -129.999c-6 -16 -9 -24.167 -9 -24.5s-0.333008 -0.833008 -1 -1.5c-2 -8 -3 -13.333 -3 -16c1.33301 -2.66699 3 -4 5 -4c4 0 9 2 15 6c10 6 17 11 21 15c24 23.333 46.333 48 67 74c20 23.333 39 47.333 57 72
c0.666992 4.66699 2.66699 9 6 13c1.33301 1.33301 3 2 5 2c2.66699 0 4.66699 -1 6 -3s2 -3.66699 2 -5v-7c0 -12 4.33301 -21.667 13 -29c12 -10 28 -15 48 -15c15.333 0 30 1.83301 44 5.5s25 7.5 33 11.5c5.33301 2.66699 10.666 4.66699 15.999 6c2.66699 0 4 -1 4 -3
c0 -4 -8 -9 -24 -15l-4 -2c-32 -12.667 -60 -19 -84 -19c-22.667 0 -41 8.33301 -55 25c-3.33301 4.66699 -6 10.334 -8 17.001c-21.333 -28.667 -44 -56.334 -68 -83.001c-12.667 -15.333 -25.167 -29.666 -37.5 -42.999s-26.166 -24.333 -41.499 -33
c-4.66699 -2 -9.66699 -3 -15 -3z" />
    <glyph glyph-name="w" unicode="w" horiz-adv-x="399" 
d="M-2 118c-4 0 -7.66797 0.666016 -11.001 1.99902c-10.667 4.66699 -16 14.334 -16 29.001c0 14 8 37 24 69c24.667 48.667 60.334 93 107.001 133c12 12 28 22 48 30h2c6 0 9 -3 9 -9c0 -2.66699 -0.666992 -4.66699 -2 -6c-8 -9.33301 -17 -17.333 -27 -24
c-5.33301 -4 -10.333 -8.33301 -15 -13c-38 -32.667 -70 -72.334 -96 -119.001c-4 -6.66699 -12 -22 -24 -46c-4 -8.66699 -6 -15 -6 -19c0 -6.66699 3 -10 9 -10c4 0 8.33301 1 13 3c30 14.667 57 34 81 58c14.667 12 36.334 31.667 65.001 59l13 16
c0.666992 0 1 0.333008 1 1c10.667 10.667 19.667 16 27 16c1.33301 0 2.66602 -0.666992 3.99902 -2s2 -2.66602 2 -3.99902c-0.666992 -5.33301 -2.66699 -9.66602 -6 -12.999c0 -0.666992 -0.666992 -1.83398 -2 -3.50098s-2.83301 -3.83398 -4.5 -6.50098
s-3.5 -5 -5.5 -7c-6.66699 -9.33301 -12.667 -19.666 -18 -30.999c-8 -19.333 -12 -32.333 -12 -39c0 -2 0.333008 -4.33301 1 -7s4 -4 10 -4s12 1.33301 18 4c23.333 10.667 52.333 36 87 76l4 5c-0.666992 2 -1 4.33301 -1 7c0 7.33301 2.66699 11 8 11
c2.66699 0 4.33398 -1.66699 5.00098 -5c2.66699 0 4 -1 4 -3l-1 -2c1.33301 -6 4.66602 -11 9.99902 -15c12 -11.333 28.667 -17 50 -17c12.667 0 25.334 2.33301 38.001 7s22.334 9.66699 29.001 15s11 8 13 8s3 -1 3 -3c0 -4 -6.66699 -9.66699 -20 -17l-2 -1
c-7.33301 -4 -15.333 -7.66699 -24 -11c-16 -6 -33.667 -9 -53 -9c-16 0 -31 4.66699 -45 14c-4.66699 4 -8.33398 8.33301 -11.001 13c-5.33301 -6.66699 -10 -12 -14 -16c-20 -21.333 -30.667 -32.333 -32 -33c-14.667 -16.667 -31.667 -29.667 -51 -39
c-6.66699 -2.66699 -13 -4 -19 -4l-12 1c-12 5.33301 -18 16.333 -18 33c0 12 2.66699 24 8 36c-47.333 -45.333 -83 -76 -107 -92c-16.667 -10.667 -29.334 -16 -38.001 -16z" />
    <glyph glyph-name="x" unicode="x" horiz-adv-x="263" 
d="M-43 100c-3.33301 0 -4.99902 1.32812 -4.99902 3.99512c0 4.66699 7 11.334 21 20.001l10 7c24 18 48 37.667 72 59c-20.667 18.667 -31 42.334 -31 71.001v10c2 18.667 6.33301 31.334 13 38.001c2 2 4.33301 3 7 3c6 0 9 -3.33301 9 -10
c0 -4.66699 -1 -9.33398 -3 -14.001c-2 -8.66699 -3 -16.667 -3 -24c0 -26 7.33301 -46.333 22 -61l4 3c19.333 18 37.666 36.667 54.999 56c10 12.667 20.333 24.334 31 35.001c6 8 13 15.333 21 22c1.33301 1.33301 3 2 5 2c5.33301 -1.33301 8 -4 8 -8l-1 -3
c-6.66699 -10 -14.334 -19.333 -23.001 -28c-2 -4 -12 -14.333 -30 -31c-38.667 -37.333 -58.5 -56.166 -59.5 -56.499s-1.83301 -0.5 -2.5 -0.5c14.667 -13.333 31.667 -20.666 51 -21.999c33.333 0 64 9.33301 92 28c26.667 16 50.334 35.667 71.001 59
c1.33301 1.33301 2.33301 2 3 2c3.33301 0 5 -2 5 -6l-1 -3c-42 -48.667 -90.333 -78.667 -145 -90c-6.66699 -1.33301 -13.667 -2 -21 -2c-23.333 0 -46 7.33301 -68 22c-14.667 -13.333 -29.667 -26 -45 -38l-38 -28c-7.33301 -6.66699 -15.333 -12 -24 -16z" />
    <glyph glyph-name="y" unicode="y" horiz-adv-x="349" 
d="M-113 -234c-14.667 0 -25.998 6.99902 -33.998 20.999c-6 13.333 -9 27 -9 41c0 6.66699 0.666992 13.667 2 21c10.667 42.667 30 81 58 115c50 62.667 121.667 121.334 215 176.001l10 5l59 125l-12 -12c-6.66699 -8 -20 -22 -40 -42
c-23.333 -24 -48.666 -45 -75.999 -63c-9.33301 -6 -19 -9 -29 -9l-12 1c-14 6 -21 16.333 -21 31v2c2.66699 31.333 12 60.333 28 87c14.667 27.333 33.667 51.333 57 72c2 1.33301 4 2 6 2c4.66699 0 7.66699 -1.16699 9 -3.5s2 -4.16602 2 -5.49902
c0 -2 -1 -4.33301 -3 -7c-38 -38 -63 -81 -75 -129l-1 -4c-2 -5.33301 -3 -10.333 -3 -15c0 -10 6 -15 18 -15c6 0 14.333 3.33301 25 10c31.333 19.333 67.666 50.666 108.999 93.999l4 5c12 12 23 25 33 39c2 2 4 3 6 3c4 0 6 -2 6 -6v-2
c-12.667 -46.667 -29.667 -92 -51 -136c63.333 33.333 128.333 64.333 195 93c16 8 25.333 12 28 12s4 -2.33301 4 -7c0 -2 -1.33301 -3.66699 -4 -5c-78.667 -31.333 -155.334 -67.333 -230.001 -108l-5 -11c-50.667 -106 -103.667 -198.667 -159 -278
c-21.333 -31.333 -44.333 -57.333 -69 -78c-14.667 -12.667 -28.334 -19 -41.001 -19zM-117.998 -217.001c9.33301 0 17.999 3.66699 25.999 11c13.333 11.333 21.333 19.666 24 24.999c29.333 34 55.333 70.667 78 110c43.333 70 80.333 136.667 111 200l-10 -6
c-38 -22.667 -74.667 -47.667 -110 -75c-84.667 -66.667 -132.667 -137 -144 -211v-6c0 -4 0.333008 -9.66699 1 -17s2.83398 -14.166 6.50098 -20.499s9.5 -9.83301 17.5 -10.5z" />
    <glyph glyph-name="z" unicode="z" horiz-adv-x="385" 
d="M-84 -234l-8 0.00488281c-9.33301 0 -18.333 1.66699 -27 5c-20.667 11.333 -31 30 -31 56c0 21.333 5.66699 41.666 17 60.999c27.333 55.333 72.333 106.333 135 153c38.667 28.667 90 60.667 154 96l5 2c-3.33301 12.667 -10.666 23 -21.999 31
c-8.66699 6 -18.334 9 -29.001 9c-8 0 -15.667 -2.66699 -23 -8l-6 -1c-0.666992 0 -2 0.333008 -4 1s-3.83301 2 -5.5 4s-2.5 4 -2.5 6l1 4c10 22.667 24 43.667 42 63l10 11l1 2c17.333 18.667 32 39 44 61l1 2c2.66699 4.66699 4.66699 9.66699 6 15
c0 6 -3.33301 9 -10 9c-17.333 0 -34 -6 -50 -18c-23.333 -14.667 -43 -33.334 -59 -56.001c-8 -11.333 -14.333 -23.666 -19 -36.999c-3.33301 -7.33301 -5 -15 -5 -23c0 -5.33301 1 -11 3 -17v-3c0 -3.33301 -1.16699 -6 -3.5 -8s-5.16602 -3 -8.49902 -3
c-0.666992 0 -2.16699 0.166992 -4.5 0.5s-4.33301 3.16602 -6 8.49902s-2.5 10.666 -2.5 15.999c0 22.667 13.333 49.667 40 81c20.667 26 45.667 46.333 75 61c13.333 6.66699 26.666 10 39.999 10c17.333 0 26 -8.33301 26 -25c-2 -14.667 -7 -28.667 -15 -42
s-17 -26.333 -27 -39c-4.66699 -6.66699 -9.5 -13.167 -14.5 -19.5l-15 -19c-5 -6.33301 -9.5 -12.833 -13.5 -19.5c13.333 0 26 -2.66699 38 -8c17.333 -8.66699 30 -21.334 38 -38.001c58 30.667 108 55 150 73l58 29c18.667 9.33301 28.667 14 30 14
c2 0 3.83301 -0.833008 5.5 -2.5s2.5 -3.83398 2.5 -6.50098c0 -3.33301 -2 -5.66602 -6 -6.99902c-18 -6 -47 -19 -87 -39c-52 -22.667 -101.667 -46.667 -149 -72c0.666992 -1.33301 1 -3 1 -5c2.66699 -12.667 4 -25.334 4 -38.001c0 -14 -1.66699 -28 -5 -42
c-6.66699 -28.667 -16.667 -55.667 -30 -81c-22.667 -44 -51.334 -83.667 -86.001 -119c-33.333 -36 -72.666 -62.667 -117.999 -80c-11.333 -4 -23 -6.66699 -35 -8zM-93 -214.995c15.333 0 33 5.33398 53 16.001c38.667 20 72 46.667 100 80
c29.333 32.667 54 68.667 74 108c20.667 37.333 31 77 31 119c0 9.33301 -0.333008 15.666 -1 18.999l-45 -25c-74.667 -40 -140 -91.333 -196 -154c-35.333 -44.667 -55 -83.667 -59 -117c0.666992 -10 3.66699 -19.333 9 -28c6.66699 -12 18 -18 34 -18z" />
    <glyph glyph-name="braceleft" unicode="{" horiz-adv-x="307" 
d="M99 -4c-2.66699 0 -7.66797 0.494141 -15.001 1.49414s-15 5.5 -23 13.5c-13.333 16 -20 34 -20 54c0 20.667 8 49.334 24 86.001l13 32c8.66699 18.667 13 33.334 13 44.001c0 4.66699 -1.16699 8.83398 -3.5 12.501s-6.33301 5.5 -12 5.5s-8.5 3 -8.5 9
s3.33301 9.66699 10 11c16 2 29.167 9.33301 39.5 22s17.5 26.334 21.5 41.001c4.66699 22.667 7 45 7 67v15c0 10 0.333008 19.667 1 29v7c0 33.333 9.33301 63.333 28 90c8 9.33301 17.833 17.5 29.5 24.5s23.834 10.5 36.501 10.5c6 0 11.5 -1.16699 16.5 -3.5
s7.5 -5.83301 7.5 -10.5c0 -7.33301 -3.33301 -11 -10 -11h-4c-13.333 0 -26.333 -4 -39 -12s-22.334 -19 -29.001 -33c-11.333 -28.667 -17 -58.667 -17 -90v-23c0 -32 -6.66699 -62.667 -20 -92c-10 -18 -24 -32 -42 -42c7.33301 -9.33301 11 -19.666 11 -30.999
c0 -9.33301 -4 -22.666 -12 -39.999c-1.33301 -2.66699 -2.33301 -5.66699 -3 -9l-22 -53c-10 -24.667 -15 -44 -15 -58c0 -19.333 6.66699 -33.333 20 -42c4.66699 -3.33301 9.66699 -5 15 -5s11 1.66699 17 5c2 1.33301 4 2 6 2c4.66699 0 7.33398 -3 8.00098 -9
c0 -4 -1.66699 -7 -5 -9c-7.33301 -6 -15.333 -9 -24 -9z" />
    <glyph glyph-name="bar" unicode="|" horiz-adv-x="164" 
d="M63 -22l-2.00195 -0.00195312c-7.33301 0 -11 3 -11 9c0 16.667 1 33.667 3 51c0 13.333 2 43.333 6 90l5 82c8 111.333 12.667 185.666 14 222.999c5.33301 135.333 14 203 26 203c6 0 9 -3.33301 9 -10c-1.33301 -38 -4 -76 -8 -114l-2 -27
c-7.33301 -85.333 -16.333 -210.666 -27 -375.999c-1.33301 -14.667 -2.16602 -29.167 -2.49902 -43.5s-1.16602 -26.166 -2.49902 -35.499c0 -33.333 -2.66699 -50.666 -8 -51.999z" />
    <glyph glyph-name="braceright" unicode="}" horiz-adv-x="289" 
d="M87 5c-15.333 0 -30.001 5.00391 -44.001 15.0039c-2 1.33301 -3 3 -3 5c0 3.33301 1.16699 5.66602 3.5 6.99902s4.16602 2 5.49902 2l3 -1c10 -5.33301 19.667 -8 29 -8c10 0 21.667 4 35 12c27.333 16.667 41 50.667 41 102l-1 32c0 10.667 0.333008 21 1 31
c0.666992 19.333 7.33398 36.333 20.001 51l9 7l-2 6c-6 9.33301 -9 22 -9 38c0 33.333 7.33301 65.666 22 96.999l14 39.5c4.66699 13.667 7 27.5 7 41.5c0 23.333 -6.33301 39.666 -19 48.999c-5.33301 4 -11.333 6 -18 6l-11 -1
c-3.33301 0 -6.16602 1.16699 -8.49902 3.5s-3.5 5.83301 -3.5 10.5c0 2.66699 1.66699 5 5 7c6.66699 2.66699 13 4 19 4c20.667 -0.666992 36.667 -10 48 -28c8.66699 -16 13 -33 13 -51c0 -20.667 -7.66699 -49.334 -23 -86.001c-14 -28 -21 -56.333 -21 -85
c0 -6 0.5 -12 1.5 -18s2.83301 -12 5.5 -18c0 -1.33301 0.333008 -2.33301 1 -3c2 -4 3 -8 3 -12c0 -8 -3.66699 -14.667 -11 -20c-2 -1.33301 -4 -3.33301 -6 -6c-6.66699 -8 -10.667 -17.333 -12 -28v-32l1 -29c0 -14.667 -1 -31.667 -3 -51s-11 -39 -27 -59
c-19.333 -20 -41 -30 -65 -30z" />
    <glyph glyph-name="asciitilde" unicode="~" horiz-adv-x="289" 
d="M162 340c-12.667 0 -25.666 4.00098 -38.999 12.001c-5.33301 2.66699 -10.5 5 -15.5 7s-11.833 3 -20.5 3c-4 -0.666992 -7.33301 -4 -10 -10c-1.33301 -2.66699 -3.33301 -4 -6 -4c-8.66699 0 -13 4 -13 12c3.33301 14 14.333 22 33 24
c15.333 0 29.333 -4.33301 42 -13l2 -1c11.333 -6.66699 23.333 -10 36 -10c17.333 0 31.666 7.33301 42.999 22c2 3.33301 4.33301 5 7 5c6.66699 -1.33301 10 -4 10 -8c0 -2.66699 -1 -5.33398 -3 -8.00098c-17.333 -20.667 -39.333 -31 -66 -31z" />
    <glyph glyph-name="exclamdown" unicode="&#xa1;" horiz-adv-x="359" 
d="M304 587l-2.00195 0.000976562c-4 0 -6.66699 0.333008 -8 1s-2.66602 2.66699 -3.99902 6l-1 6c0 2 0.333008 3.33301 1 4l2 6c0.666992 1.33301 1.33398 2.16602 2.00098 2.49902l3 1.5l3 2h7c6 -1.33301 9.33301 -5.33301 10 -12l-1 -4
c-1.33301 -4 -2.5 -6.16699 -3.5 -6.5s-2.16699 -0.5 -3.5 -0.5v-1l-3 -1v-2zM46.998 84.001c-0.666992 0 -2 0.50293 -4 1.50293s-3 2.83301 -3 5.5c0 5.33301 4.33301 14.666 13 27.999l6 12c5.33301 8 34.333 61.667 87 161c29.333 57.333 60 114.333 92 171l29 53
c2.66699 6 6 11.333 10 16c6 8 11.667 12 17 12c6 -1.33301 9.66699 -4.33301 11 -9l1 -4l-5 -11c-2 -2 -7.66699 -11.667 -17 -29l-27 -50l-102 -179l-52 -89c-4 -8 -8.33301 -15.667 -13 -23c-6 -10.667 -11.833 -21.834 -17.5 -33.501s-12.5 -21.834 -20.5 -30.501
c-1.33301 -1.33301 -3 -2 -5 -2z" />
    <glyph glyph-name="cent" unicode="&#xa2;" horiz-adv-x="263" 
d="M69 209l-3 -0.000976562c-8 0 -12 4.66699 -12 14l11 22l6.5 9c2.33301 3.33301 5.16602 6.33301 8.49902 9c-16 14.667 -24 32.334 -24 53.001c0 5.33301 0.666992 11 2 17c8 33.333 24.333 62.333 49 87c11.333 12 24.333 22.333 39 31c8 5.33301 17 8 27 8v1
c0.666992 1.33301 1.16699 2.66602 1.5 3.99902s1.16602 2.66602 2.49902 3.99902l5 8c8.66699 12.667 16 19 22 19c2 0 4.16699 -0.833008 6.5 -2.5s3.5 -4.5 3.5 -8.5s-4.66699 -10.667 -14 -20l-5 -7l1 2l-5 -7c6 -6 9 -17.333 9 -34
c0 -17.333 -3.66699 -33.666 -11 -48.999c-2 -3.33301 -4.66699 -5 -8 -5h-4c-2 0 -3.83301 1.33301 -5.5 4s-2.5 5 -2.5 7l1 5c8.66699 13.333 13 28 13 44c0 2 -0.166992 4.5 -0.5 7.5s-1.33301 5.5 -3 7.5s-3.16699 3 -4.5 3l-5 -1
c-6 -2.66699 -12.333 -7.33398 -19 -14.001c-23.333 -20 -41.666 -43.333 -54.999 -70c-7.33301 -14 -11 -29.667 -11 -47c0 -13.333 5 -24.666 15 -33.999c7.33301 -5.33301 15.333 -8 24 -8c11.333 0 27.333 5 48 15c8 4 15.667 7.33301 23 10
c2.66699 0 4.66699 -1.33301 6 -4c0 -1.33301 -0.666992 -2.66602 -2 -3.99902c-15.333 -12 -32.666 -21.333 -51.999 -28c-10 -4.66699 -20 -7 -30 -7c-7.33301 0 -15 1.33301 -23 4h-1c0 -2 -0.333008 -3.33301 -1 -4c0 -2 -0.666992 -3.66699 -2 -5v-2l-15 -29
c-1.33301 -2 -3.33301 -3.66699 -6 -5z" />
    <glyph glyph-name="sterling" unicode="&#xa3;" horiz-adv-x="407" 
d="M61 179c-4 0 -7.99805 1.83008 -11.998 5.49707s-6 7.83398 -6 12.501c0 2.66699 1.16699 6.5 3.5 11.5s7.16602 10.833 14.499 17.5s13.5 11.334 18.5 14.001s10.167 5 15.5 7c30 48.667 57.667 99 83 151l-39 2c-10.667 0 -21.667 -0.166992 -33 -0.5
s-20.333 -1.83301 -27 -4.5c0.666992 -1.33301 1 -3.66602 1 -6.99902c-0.666992 -1.33301 -2 -2.33301 -4 -3c-10.667 0 -16 3.66699 -16 11c0 6 2.83301 10.833 8.5 14.5s20.167 5.5 43.5 5.5c21.333 0 37.333 -1.33301 48 -4l24 -2c26 52.667 55.333 103 88 151
c9.33301 13.333 19 25.666 29 36.999c10.667 14 21.667 21 33 21c19.333 -2 29 -15 29 -39c0 -14 -3.33301 -21 -10 -21c-5.33301 0 -8 2.66699 -8 8c0 19.333 -3 29 -9 29c-4.66699 0 -10.667 -4.66699 -18 -14c-4 -4 -10.333 -12 -19 -24
c-31.333 -43.333 -61 -93.333 -89 -150h29c26.667 1.33301 47.334 5.66602 62.001 12.999l10 4c2 0 3.5 -0.5 4.5 -1.5s1.83301 -2.16699 2.5 -3.5c0 -1.33301 -0.666992 -2.66602 -2 -3.99902c-6.66699 -6 -15 -10 -25 -12c-22.667 -6 -44.667 -9 -66 -9l-21 1
c-24.667 -49.333 -50.667 -96.666 -78 -141.999l17 1c9.33301 0 28.666 -2.66699 57.999 -8c22 -5.33301 44.333 -8 67 -8h7c24.667 0 45 10 61 30c1.33301 2 3 3 5 3c3.33301 -1.33301 5 -3 5 -5l-1 -2c-18 -23.333 -41.667 -36.666 -71 -39.999l-25 -1
c-18.667 0 -37.334 2 -56.001 6c-10 1.33301 -19.333 2.66602 -28 3.99902s-16.667 2 -24 2c-10 0 -19.667 -1 -29 -3c-1.33301 -2.66699 -3 -5 -5 -7c-1.33301 -4.66699 -7.33301 -13.667 -18 -27s-20 -20 -28 -20z" />
    <glyph glyph-name="currency" unicode="&#xa4;" horiz-adv-x="241" 
d="M53 232c-2.66699 0 -5.16797 0.666016 -7.50098 1.99902s-3.5 3.66602 -3.5 6.99902c0 8.66699 4.66699 17 14 25v1c5.33301 5.33301 11.333 9.66602 18 12.999c-5.33301 12.667 -8.33301 26 -9 40c0 10.667 1 21.334 3 32.001h-2c-8 0 -12 3.33301 -12 10
c0 6 6 16.333 18 31c-12.667 2 -22.667 8.33301 -30 19l-1 4c0 8.66699 3 13 9 13c4.66699 0 8 -1 10 -3l14 -17c4 -4 6 -6.66699 6 -8c14 14 29.667 21 47 21c15.333 0 28.333 -4.33301 39 -13c1.33301 1.33301 2.33301 3 3 5c5.33301 10 9 15.333 11 16
c4.66699 7.33301 10 12.333 16 15c4 0 6.66699 -0.833008 8 -2.5s2 -3.5 2 -5.5c0 -4 -1.66699 -7.5 -5 -10.5s-6.33301 -5.5 -9 -7.5c-4.66699 -4.66699 -10.667 -8.33398 -18 -11.001l-4 -3c14.667 -16.667 22 -35.667 22 -57s-7 -42.666 -21 -63.999l10 -12
c1.33301 -2 3 -4.16699 5 -6.5s4.16699 -5.16602 6.5 -8.49902s3.5 -7 3.5 -11c0 -3.33301 -1 -5.66602 -3 -6.99902s-5 -2 -9 -2c-8 0.666992 -15 8.33398 -21 23.001l-1 1l-3 8c-12.667 -12.667 -26.334 -19 -41.001 -19c-12.667 0 -24 5.33301 -34 16l-4 5v-1
c-0.666992 -0.666992 -1.33398 -1.83398 -2.00098 -3.50098s-1.66699 -3.5 -3 -5.5l-4 -6c-1.33301 -2 -2.66602 -4.33301 -3.99902 -7s-3.16602 -5.5 -5.49902 -8.5s-5.16602 -5.5 -8.49902 -7.5zM121.999 274.999c10 0 18.999 5.00098 26.999 15.001
c17.333 16.667 26 36.667 26 60c0 15.333 -4 28.666 -12 39.999c-7.33301 9.33301 -16.666 15 -27.999 17c-12.667 0 -22.667 -2.66699 -30 -8c0 -2 -1 -3 -3 -3s-4.66699 -12.333 -8 -37c-2 -12 -3 -21.667 -3 -29c0 -20.667 4 -35.667 12 -45
c4.66699 -6.66699 11 -10 19 -10z" />
    <glyph glyph-name="yen" unicode="&#xa5;" horiz-adv-x="422" 
d="M101 81l-0.994141 -0.00390625c-2 0 -3.66699 0.666992 -5 2s-2 3 -2 5v2c11.333 42 24.666 83 39.999 123l16 38l-43 -7c-19.333 -3.33301 -31.333 -5 -36 -5c-3.33301 0 -6 1.16699 -8 3.5s-3 4.83301 -3 7.5c0 0.666992 0.166992 2.16699 0.5 4.5
s2.83301 3.83301 7.5 4.5c29.333 6 59.333 9.66699 90 11c7.33301 17.333 15 34.333 23 51c-28.667 -2 -54.667 -5 -78 -9c-16.667 -3.33301 -33.667 -5.33301 -51 -6c-4.66699 1.33301 -7 4 -7 8c0 2.66699 1.66699 5.33398 5 8.00098
c21.333 6.66699 43.666 10.667 66.999 12c5.33301 1.33301 29.666 3.33301 72.999 6c26.667 53.333 54.667 102 84 146c-18.667 -16.667 -38.667 -32 -60 -46c-11.333 -8.66699 -24.666 -16 -39.999 -22c-6.66699 -2.66699 -12.667 -4 -18 -4
c-8.66699 0 -16.334 2.66699 -23.001 8s-10.667 11.333 -12 18s-2 13 -2 19v5c6 56.667 28 105 66 145c2 2 4 3 6 3c3.33301 0 6 -1 8 -3s3 -4 3 -6l-2 -6c-0.666992 -0.666992 -1.33398 -1.5 -2.00098 -2.5s-1 -1.83301 -1 -2.5
c-18.667 -27.333 -32.667 -56.666 -42 -87.999c-7.33301 -22.667 -11 -40 -11 -52c0 -3.33301 0.833008 -7 2.5 -11s6.16699 -6.33301 13.5 -7c13.333 0.666992 25.666 4.33398 36.999 11.001l2 1c34 18.667 67.333 44.334 100 77.001c20 29.333 42.333 56.666 67 81.999
l1 -1c1.33301 1.33301 3 2 5 2l4 -1c2.66699 -0.666992 4 -2.66699 4 -6c0 -1.33301 -15.667 -26 -47 -74c-38 -54 -75.333 -115.333 -112 -184h19c13.333 0 26.333 -0.166992 39 -0.5s25.334 -1.16602 38.001 -2.49902c24 0 37 -2.33301 39 -7l1 -4
c-0.666992 -2.66699 -6.33398 -4 -17.001 -4c-9.33301 0 -17.333 0.666992 -24 2c-47.333 0 -82 -0.666992 -104 -2c-8.66699 -16.667 -17 -33.667 -25 -51l16 1c28 1.33301 56.333 2 85 2h13c13.333 0 20.333 -2.33301 21 -7c0 -4 -6 -6 -18 -6h-16
c-34 0 -64.333 -1.33301 -91 -4l-18 -3c-26.667 -55.333 -50.334 -111.666 -71.001 -168.999c-1.33301 -2.66699 -3.33301 -4.33398 -6 -5.00098z" />
    <glyph glyph-name="brokenbar" unicode="&#xa6;" horiz-adv-x="126" 
d="M68 330l-2.00098 -0.000976562c-2 0 -3.66699 0.666992 -5 2c-3.33301 6.66699 -6 20.334 -8 41.001l-5 28c-2.66699 18.667 -5 37.667 -7 57c-2 6.66699 -3 17.667 -3 33c0 3.33301 0.166992 6.5 0.5 9.5s1.83301 5.33301 4.5 7s5.33398 2.5 8.00098 2.5
c10 0 15 -16.667 15 -50l7 -103c0.666992 -0.666992 1.16699 -2.66699 1.5 -6s0.5 -6.33301 0.5 -9c0 -8 -2.33301 -12 -7 -12zM53.999 45.999l-2 -0.000976562c-2.66699 0 -5.5 0.666992 -8.5 2s-4.66699 3.83301 -5 7.5s-0.5 6.83398 -0.5 9.50098
c0 11.333 2.66699 37 8 77l10 63v3c1.33301 12.667 5 19 11 19c1.33301 0 3 -0.666992 5 -2s3 -5 3 -11c0 -2.66699 -0.166992 -5.66699 -0.5 -9s-0.833008 -5 -1.5 -5l-1 -18c-2.66699 -29.333 -4 -47.333 -4 -54l-3 -40c0 -26.667 -3.66699 -40.667 -11 -42z" />
    <glyph glyph-name="section" unicode="&#xa7;" horiz-adv-x="423" 
d="M158 44c-46 0 -80.666 16.333 -103.999 49c-8.66699 13.333 -13 27.666 -13 42.999c0 3.33301 0.666992 11 2 23s10 24 26 36l4 1c4 0 6 -2.33301 6 -7c0 -2.66699 -1 -4.66699 -3 -6c-13.333 -9.33301 -20 -23.333 -20 -42c0 -5.33301 0.666992 -10.666 2 -15.999
c6.66699 -23.333 21.667 -39 45 -47c14 -5.33301 28.667 -8 44 -8c6.66699 0 17.5 0.833008 32.5 2.5s28.833 11.834 41.5 30.501c4 8.66699 6 17 6 25c0 18.667 -15.667 44.667 -47 78l-11 13c-36.667 36.667 -56 69.334 -58 98.001l-7 15
c0 1.33301 0.666992 2.66602 2 3.99902s3 2 5 2h2l1 6c7.33301 22 21 38.333 41 49c6 2.66699 12 4.66699 18 6l-5 3c-38.667 17.333 -58 40 -58 68c0 10.667 3 21.667 9 33c14 22 33 38 57 48c26 13.333 53.333 21.333 82 24c4 0.666992 8.33301 1 13 1
c23.333 0 45.166 -5.5 65.499 -16.5s34.5 -27.5 42.5 -49.5v-3c0 -2.66699 -1 -5 -3 -7s-5.33301 -3 -10 -3c-2 0 -4 1.33301 -6 4c-20.667 36 -52.334 54 -95.001 54c-29.333 0 -61.333 -10 -96 -30c-26 -14.667 -39 -33 -39 -55c0 -14.667 6.66699 -25.834 20 -33.501
s26.333 -14.5 39 -20.5s25.334 -12.667 38.001 -20c22.667 -13.333 41 -31 55 -53c6 -12 9 -23.667 9 -35c0 -12 -5 -26 -15 -42s-28.667 -25 -56 -27c-12 0 -23.333 1.66699 -34 5l27 -29c18 -19.333 31.667 -41.333 41 -66c2 -8 3 -16 3 -24c0 -16 -6.33301 -32 -19 -48
c-18 -22 -44.667 -33 -80 -33zM209.001 262c3.33301 0 9.33301 0.666992 18 2s18 8 28 20c7.33301 9.33301 11 18.333 11 27c0 7.33301 -3.83301 16.5 -11.5 27.5s-20.167 22.167 -37.5 33.5l-20 1c-20 0 -36.333 -8.66699 -49 -26c-4.66699 -8.66699 -7 -17.667 -7 -27
c0 -12 4.33301 -23.667 13 -35c16.667 -15.333 35 -23 55 -23z" />
    <glyph glyph-name="dieresis" unicode="&#xa8;" horiz-adv-x="141" 
d="M92 438c-6 0 -10.501 3.16699 -13.501 9.5s-4.5 15.5 -4.5 27.5v7c4 16.667 12.667 28.334 26 35.001l1 1c2.66699 0 4.33398 -0.333008 5.00098 -1l-1 -4c-8.66699 -8.66699 -13 -19.334 -13 -32.001c0 -9.33301 2 -17 6 -23c2 -4 3 -7.66699 3 -11
c-1.33301 -6 -4.33301 -9 -9 -9zM53.999 433c-3.33301 0 -5.66602 0.666016 -6.99902 1.99902c-4.66699 4.66699 -7 10.334 -7 17.001v10c0 18 3.66699 33 11 45c1.33301 2 2.66602 3 3.99902 3c4 0 6 -2.33301 6 -7c-2.66699 -10.667 -4 -21.667 -4 -33
c0 -4 0.5 -8.16699 1.5 -12.5s1.5 -10.5 1.5 -18.5c-0.666992 -3.33301 -2.66699 -5.33301 -6 -6z" />
    <glyph glyph-name="copyright" unicode="&#xa9;" horiz-adv-x="528" 
d="M161 102c-2.66699 0 -10.332 0.166992 -22.999 0.5s-28 7.16602 -46 20.499c-27.333 21.333 -41 54.333 -41 99l1 20c7.33301 48 25.333 91.667 54 131c38 57.333 86 102 144 134c14.667 8.66699 26 13 34 13c4 0 8 -0.666992 12 -2c16 6.66699 32.667 10 50 10
c22.667 0 44 -5.33301 64 -16c42.667 -24 64.667 -60.333 66 -109c-0.666992 -23.333 -6.33398 -45.666 -17.001 -66.999s-23 -41.333 -37 -60c-26 -35.333 -56.333 -67.5 -91 -96.5s-73 -51.5 -115 -67.5c-18 -6.66699 -36.333 -10 -55 -10zM165.002 122
c26 0 53.999 8.66699 83.999 26c71.333 39.333 128.333 91 171 155c26.667 38 40 72.333 40 103l-1 18c-8 36.667 -29.667 62 -65 76c-10 3.33301 -20.667 5 -32 5c-29.333 0 -56.333 -7.66699 -81 -23c-2.66699 -1.33301 -5 -2 -7 -2c-3.33301 0 -6.33301 1.33301 -9 4
l-23 -14c-17.333 -12 -33.666 -25.333 -48.999 -40c-55.333 -49.333 -91.333 -106.333 -108 -171c-4.66699 -16 -7 -31.667 -7 -47c0 -11.333 2.16699 -25.833 6.5 -43.5s20.833 -31.5 49.5 -41.5c10.667 -3.33301 21 -5 31 -5zM209.001 216
c-7.33301 0 -14.667 1.66699 -22 5c-12.667 7.33301 -20 18.666 -22 33.999l-1 22c0 34.667 11.667 65.334 35 92.001c8.66699 10 18.667 18.667 30 26c8.66699 6.66699 18 10.334 28 11.001c2.66699 0 5 -0.333008 7 -1c16.667 -5.33301 25 -18 25 -38
c0 -10.667 -2.66699 -20 -8 -28c-2 -3.33301 -4.66699 -5 -8 -5s-6 1 -8 3s-3 5.33301 -3 10l9 25c0 14 -4 21 -12 21h-5c-2 0 -5 -1.66699 -9 -5c-22 -18.667 -37.667 -43 -47 -73c-4.66699 -16.667 -7 -31 -7 -43v-10c0 -14.667 5.66699 -24 17 -28
c3.33301 -1.33301 6.66602 -2 9.99902 -2l6 1c13.333 3.33301 25.333 9.66602 36 18.999h1c0.666992 0.666992 2.33398 1 5.00098 1l2 -3l-1 -4c-22.667 -20 -42 -30 -58 -30z" />
    <glyph glyph-name="ordfeminine" unicode="&#xaa;" horiz-adv-x="204" 
d="M103 389l-2.99805 -0.000976562c-4.66699 0 -9.16699 1.16699 -13.5 3.5s-7.5 6 -9.5 11s-3 9.83301 -3 14.5c0 12.667 2 24.667 6 36v1c-0.666992 -0.666992 -1.16699 -1.5 -1.5 -2.5s-3.66602 -5 -9.99902 -12s-13.166 -10.5 -20.499 -10.5
c-1.33301 0 -3.5 0.833008 -6.5 2.5s-4.5 5.83398 -4.5 12.501c0 9.33301 1.83301 18.333 5.5 27s9.16699 17 16.5 25s16 13 26 15l5 1c8.66699 -0.666992 15 -4.66699 19 -12c2 -2.66699 3.33301 -6.33398 4 -11.001c0 -5.33301 -1.66699 -9 -5 -11h-1
c-0.666992 0.666992 -1 1.33398 -1 2.00098s-0.333008 1.66699 -1 3c0 4 -1.33301 7.5 -4 10.5s-5.33398 4.5 -8.00098 4.5c-3.33301 0 -7.33301 -1.33301 -12 -4c-16 -12 -26 -28.333 -30 -49l-1 -5c0.666992 -0.666992 1.66699 -1 3 -1c0.666992 0 1.5 0.166992 2.5 0.5
s2.16699 0.833008 3.5 1.5s2.5 1.33398 3.5 2.00098s1.5 1.33398 1.5 2.00098c7.33301 5.33301 13.666 11.666 18.999 18.999c2.66699 8 7 14.333 13 19l2 1c0.666992 0 1.66699 -0.166992 3 -0.5s2 -3.5 2 -9.5c0 -3.33301 -2 -10.666 -6 -21.999l-6 -29
c0 -4 0.666992 -8.66699 2 -14s6.33301 -8 15 -8c4 0 10 2 18 6c17.333 10 29.666 22 36.999 36c1.33301 3.33301 2.66602 5.83301 3.99902 7.5s2.33301 2.5 3 2.5s1.33398 -0.333008 2.00098 -1s1 -1.33398 1 -2.00098l-1 -1c-6 -12.667 -12.333 -23 -19 -31
s-18.334 -16.333 -35.001 -25c-5.33301 -2.66699 -10.333 -4.33398 -15 -5.00098z" />
    <glyph glyph-name="guillemotleft" unicode="&#xab;" horiz-adv-x="397" 
d="M214 224c-2.66699 0 -5.33496 1.33398 -8.00195 4.00098c-47.333 43.333 -85.666 75.333 -114.999 96l-13 11c-8.66699 7.33301 -18 14 -28 20c-2.66699 1.33301 -4 3.66602 -4 6.99902s1.33301 6 4 8c28.667 14 55.334 31 80.001 51l65 47
c5.33301 4.66699 11.666 8 18.999 10c6.66699 0 11.334 -2 14.001 -6c1.33301 -1.33301 2 -3.33301 2 -6c0 -7.33301 -6 -14.666 -18 -21.999l-6 -5c-52.667 -35.333 -96.667 -61 -132 -77l32 -16c46 -30.667 85 -64.334 117 -101.001c2 -3.33301 3 -6 3 -8
c0 -6 -3 -10 -9 -12zM326.999 222.001l-1.99805 -0.00292969c-2.66699 0 -5.66699 1 -9 3c-6.66699 7.33301 -12.834 14.5 -18.501 21.5s-20.167 22.833 -43.5 47.5c-22 26 -43.667 48 -65 66c-2 2 -3 4.33301 -3 7c0 3.33301 1.66699 6.33301 5 9l95 63l16 9l1 1
c8 4.66699 15.667 7.66699 23 9c3.33301 0 6.66602 -1.16699 9.99902 -3.5s5 -5.16602 5 -8.49902c0 -4.66699 -8.33301 -12 -25 -22l-43 -26l-60 -33c15.333 -11.333 35.333 -29.666 60 -54.999c27.333 -27.333 48 -50.666 62 -69.999c1.33301 -2 2 -4.33301 2 -7
c0 -5.33301 -3.33301 -9 -10 -11z" />
    <glyph glyph-name="logicalnot" unicode="&#xac;" horiz-adv-x="437" 
d="M366 280c-5.33301 0 -9.83105 0.667969 -13.498 2.00098s-5.5 4.66602 -5.5 9.99902c0 10 -6.33301 18 -19 24c-18 8 -55.667 12 -113 12c-26.667 -0.666992 -52.834 -1.83398 -78.501 -3.50098s-50.834 -2.5 -75.501 -2.5c-6 0 -9 3 -9 9
c0 1.33301 0.666992 3.33301 2 6c2 5.33301 40.667 8 116 8h107c30.667 0 61.334 -1 92.001 -3c4 0 6 -7.66699 6 -23c0 -13.333 -0.833008 -23.166 -2.5 -29.499s-3.83398 -9.5 -6.50098 -9.5z" />
    <glyph glyph-name="uni00AD" unicode="&#xad;" horiz-adv-x="235" 
d="M64 268c-2 0 -3 4.33301 -3 13c0 8 1 13 3 15c12 4 24 6 36 6h37c10.667 0 21.667 -1.33301 33 -4c2 -2 3 -6 3 -12c0 -6.66699 -1 -10 -3 -10l-42 1c-9.33301 0 -21 -1.66699 -35 -5c-10 -2 -19.667 -3.33301 -29 -4z" />
    <glyph glyph-name="registered" unicode="&#xae;" horiz-adv-x="427" 
d="M152 265c-9.33301 0 -19 1.00195 -29 3.00195c-34.667 10 -56.667 32.333 -66 67c-2 10 -3 19.667 -3 29c0 27.333 7 53.666 21 78.999c14.667 28.667 34 54 58 76c12.667 12 27 22.333 43 31c0.666992 2.66699 2.33398 5 5.00098 7c32 23.333 67 36.666 105 39.999
l12 -1c38.667 -5.33301 64 -26 76 -62c3.33301 -12.667 5 -25 5 -37c0 -21.333 -6.33301 -45 -19 -71s-30.834 -51.167 -54.501 -75.5s-50.5 -45.5 -80.5 -63.5c-22.667 -14.667 -47 -22 -73 -22zM151 282.002c32.667 1.33301 62.668 10.668 90.001 28.001s51 37.5 71 60.5
s36 49.833 48 80.5c6 14 9 28 9 42c0 16 -4 32 -12 48c-15.333 24 -36.333 36 -63 36c-20.667 0 -42.334 -6.33301 -65.001 -19v-2c0 -3.33301 -1.66699 -6 -5 -8l-20 -11c-52.667 -28.667 -89.667 -67 -111 -115c-8.66699 -18.667 -13 -37.334 -13 -56.001
c0 -12 1.66699 -24 5 -36c12 -30 34 -46 66 -48zM131.001 362.004h-5.00195c-2.66699 0 -4 2 -4 6c0 5.33301 5 18.333 15 39l25 53c8.66699 18 19.334 34.667 32.001 50c2 2 4 3 6 3c6.66699 0 10 -3.33301 10 -10c0 -5.33301 -5 -16.333 -15 -33l-7 -14
c33.333 36 58 54 74 54c6 0 10.333 -4 13 -12c0.666992 -2 1 -4.33301 1 -7c0 -6.66699 -3.33301 -14.667 -10 -24c-15.333 -21.333 -34.666 -36.333 -57.999 -45c19.333 -10.667 39.333 -19.667 60 -27c8 -2 12.333 -4 13 -6c0 -2 -0.5 -4 -1.5 -6s-2.5 -3 -4.5 -3
c-26 0 -59.333 12.333 -100 37c-1.33301 0.666992 -2.33301 1.66699 -3 3l-13 -17c0 -2 -2.33301 -7 -7 -15s-10.334 -16 -17.001 -24c-1.33301 -1.33301 -2.66602 -2 -3.99902 -2zM187.999 441.004c24 7.33301 44 20.667 60 40l2 2c4 4.66699 6.33301 8 7 10v3v1h-2l-7 -3
c-20 -12 -40 -29.667 -60 -53z" />
    <glyph glyph-name="macron" unicode="&#xaf;" horiz-adv-x="305" 
d="M76 445c-3.33301 0 -5 2.33398 -5 7.00098l1 7c2 6 22.333 9 61 9h56c34.667 0 52.167 -1.83301 52.5 -5.5s0.333008 -6.66699 0 -9s-1.5 -3.5 -3.5 -3.5l-81 1c-12.667 -0.666992 -25.667 -1.83398 -39 -3.50098s-27.333 -2.5 -42 -2.5z" />
    </font>
</defs>
</svg>
